MerriweatherSans-Italic.ufo
<glyph name="exclam" format="2">
  <advance width="335.0"/>
  <unicode hex="0021"/>
  <note>
exclam
</note>
  <outline>
    <contour>
      <point x="120.0" y="238.0" type="line"/>
      <point x="197.0" y="238.0" type="line"/>
      <point x="306.0" y="868.0" type="line"/>
      <point x="196.0" y="868.0" type="line"/>
    </contour>
    <contour>
      <point x="122.0" y="-8.0" type="curve" smooth="yes"/>
      <point x="170.0" y="-8.0"/>
      <point x="208.0" y="28.0"/>
      <point x="209.0" y="74.0" type="curve" smooth="yes"/>
      <point x="210.0" y="105.0"/>
      <point x="190.0" y="125.0"/>
      <point x="150.0" y="125.0" type="curve" smooth="yes"/>
      <point x="105.0" y="125.0"/>
      <point x="64.0" y="89.0"/>
      <point x="63.0" y="45.0" type="curve" smooth="yes"/>
      <point x="62.0" y="13.0"/>
      <point x="89.0" y="-8.0"/>
    </contour>
  </outline>
</glyph>
<glyph name="numbersign" format="2">
  <advance width="686.0"/>
  <unicode hex="0023"/>
  <note>
numbersign
</note>
  <outline>
    <contour>
      <point x="130.0" y="0.0" type="line"/>
      <point x="209.0" y="0.0" type="line"/>
      <point x="240.0" y="178.0" type="line"/>
      <point x="392.0" y="178.0" type="line"/>
      <point x="367.0" y="0.0" type="line"/>
      <point x="445.0" y="0.0" type="line"/>
      <point x="473.0" y="178.0" type="line"/>
      <point x="590.0" y="178.0" type="line"/>
      <point x="594.0" y="241.0" type="line"/>
      <point x="483.0" y="241.0" type="line"/>
      <point x="515.0" y="438.0" type="line"/>
      <point x="634.0" y="438.0" type="line"/>
      <point x="638.0" y="500.0" type="line"/>
      <point x="524.0" y="500.0" type="line"/>
      <point x="551.0" y="663.0" type="line"/>
      <point x="470.0" y="663.0" type="line"/>
      <point x="443.0" y="500.0" type="line"/>
      <point x="291.0" y="500.0" type="line"/>
      <point x="316.0" y="663.0" type="line"/>
      <point x="235.0" y="663.0" type="line"/>
      <point x="209.0" y="500.0" type="line"/>
      <point x="96.0" y="500.0" type="line"/>
      <point x="92.0" y="438.0" type="line"/>
      <point x="200.0" y="438.0" type="line"/>
      <point x="168.0" y="241.0" type="line"/>
      <point x="58.0" y="241.0" type="line"/>
      <point x="54.0" y="178.0" type="line"/>
      <point x="159.0" y="178.0" type="line"/>
    </contour>
    <contour>
      <point x="250.0" y="241.0" type="line"/>
      <point x="281.0" y="438.0" type="line"/>
      <point x="433.0" y="438.0" type="line"/>
      <point x="402.0" y="241.0" type="line"/>
    </contour>
  </outline>
</glyph>
<glyph name="dollar" format="2">
  <advance width="588.0"/>
  <unicode hex="0024"/>
  <note>
dollar
</note>
  <outline>
    <contour>
      <point x="187.0" y="-112.0" type="line"/>
      <point x="275.0" y="-112.0" type="line"/>
      <point x="292.0" y="-8.0" type="line"/>
      <point x="417.0" y="9.0"/>
      <point x="499.0" y="81.0"/>
      <point x="499.0" y="201.0" type="curve" smooth="yes"/>
      <point x="499.0" y="295.0"/>
      <point x="442.0" y="349.0"/>
      <point x="349.0" y="412.0" type="curve" smooth="yes"/>
      <point x="288.0" y="453.0"/>
      <point x="232.0" y="523.0"/>
      <point x="235.0" y="580.0" type="curve" smooth="yes"/>
      <point x="238.0" y="655.0"/>
      <point x="299.0" y="681.0"/>
      <point x="372.0" y="681.0" type="curve" smooth="yes"/>
      <point x="417.0" y="681.0"/>
      <point x="474.0" y="668.0"/>
      <point x="502.0" y="639.0" type="curve"/>
      <point x="533.0" y="713.0" type="line"/>
      <point x="504.0" y="734.0"/>
      <point x="465.0" y="746.0"/>
      <point x="417.0" y="751.0" type="curve"/>
      <point x="432.0" y="844.0" type="line"/>
      <point x="343.0" y="844.0" type="line"/>
      <point x="329.0" y="752.0" type="line"/>
      <point x="215.0" y="740.0"/>
      <point x="138.0" y="670.0"/>
      <point x="138.0" y="560.0" type="curve" smooth="yes"/>
      <point x="138.0" y="462.0"/>
      <point x="196.0" y="397.0"/>
      <point x="292.0" y="335.0" type="curve" smooth="yes"/>
      <point x="371.0" y="283.0"/>
      <point x="398.0" y="239.0"/>
      <point x="398.0" y="182.0" type="curve" smooth="yes"/>
      <point x="398.0" y="98.0"/>
      <point x="303.0" y="64.0"/>
      <point x="243.0" y="64.0" type="curve" smooth="yes"/>
      <point x="192.0" y="64.0"/>
      <point x="111.0" y="88.0"/>
      <point x="90.0" y="111.0" type="curve"/>
      <point x="63.0" y="33.0" type="line"/>
      <point x="83.0" y="17.0"/>
      <point x="141.0" y="-4.0"/>
      <point x="204.0" y="-9.0" type="curve"/>
    </contour>
  </outline>
</glyph>
<glyph name="percent" format="2">
  <advance width="840.0"/>
  <unicode hex="0025"/>
  <note>
percent
</note>
  <outline>
    <contour>
      <point x="156.0" y="0.0" type="line"/>
      <point x="234.0" y="0.0" type="line"/>
      <point x="696.0" y="747.0" type="line"/>
      <point x="619.0" y="747.0" type="line"/>
    </contour>
    <contour>
      <point x="199.0" y="364.0" type="curve" smooth="yes"/>
      <point x="315.0" y="364.0"/>
      <point x="398.0" y="463.0"/>
      <point x="398.0" y="579.0" type="curve" smooth="yes"/>
      <point x="398.0" y="656.0"/>
      <point x="355.0" y="723.0"/>
      <point x="263.0" y="723.0" type="curve" smooth="yes"/>
      <point x="140.0" y="723.0"/>
      <point x="61.0" y="623.0"/>
      <point x="61.0" y="515.0" type="curve" smooth="yes"/>
      <point x="61.0" y="427.0"/>
      <point x="113.0" y="364.0"/>
    </contour>
    <contour>
      <point x="213.0" y="424.0" type="curve" smooth="yes"/>
      <point x="168.0" y="424.0"/>
      <point x="140.0" y="460.0"/>
      <point x="140.0" y="516.0" type="curve" smooth="yes"/>
      <point x="140.0" y="582.0"/>
      <point x="168.0" y="663.0"/>
      <point x="249.0" y="663.0" type="curve" smooth="yes"/>
      <point x="290.0" y="663.0"/>
      <point x="315.0" y="630.0"/>
      <point x="315.0" y="575.0" type="curve" smooth="yes"/>
      <point x="315.0" y="508.0"/>
      <point x="281.0" y="424.0"/>
    </contour>
    <contour>
      <point x="607.0" y="31.0" type="curve" smooth="yes"/>
      <point x="723.0" y="31.0"/>
      <point x="806.0" y="130.0"/>
      <point x="806.0" y="246.0" type="curve" smooth="yes"/>
      <point x="806.0" y="323.0"/>
      <point x="763.0" y="390.0"/>
      <point x="671.0" y="390.0" type="curve" smooth="yes"/>
      <point x="548.0" y="390.0"/>
      <point x="469.0" y="290.0"/>
      <point x="469.0" y="182.0" type="curve" smooth="yes"/>
      <point x="469.0" y="94.0"/>
      <point x="521.0" y="31.0"/>
    </contour>
    <contour>
      <point x="621.0" y="91.0" type="curve" smooth="yes"/>
      <point x="576.0" y="91.0"/>
      <point x="548.0" y="127.0"/>
      <point x="548.0" y="183.0" type="curve" smooth="yes"/>
      <point x="548.0" y="249.0"/>
      <point x="576.0" y="330.0"/>
      <point x="657.0" y="330.0" type="curve" smooth="yes"/>
      <point x="698.0" y="330.0"/>
      <point x="723.0" y="297.0"/>
      <point x="723.0" y="242.0" type="curve" smooth="yes"/>
      <point x="723.0" y="175.0"/>
      <point x="689.0" y="91.0"/>
    </contour>
  </outline>
</glyph>
<glyph name="ampersand" format="2">
  <advance width="749.0"/>
  <unicode hex="0026"/>
  <note>
ampersand
</note>
  <outline>
    <contour>
      <point x="313.0" y="-8.0" type="curve" smooth="yes"/>
      <point x="378.0" y="-8.0"/>
      <point x="434.0" y="3.0"/>
      <point x="481.0" y="26.0" type="curve"/>
      <point x="516.0" y="3.0"/>
      <point x="564.0" y="-10.0"/>
      <point x="604.0" y="-10.0" type="curve" smooth="yes"/>
      <point x="631.0" y="-10.0"/>
      <point x="655.0" y="-8.0"/>
      <point x="676.0" y="-3.0" type="curve"/>
      <point x="687.0" y="56.0" type="line"/>
      <point x="624.0" y="55.0"/>
      <point x="589.0" y="59.0"/>
      <point x="555.0" y="79.0" type="curve"/>
      <point x="604.0" y="128.0"/>
      <point x="630.0" y="199.0"/>
      <point x="630.0" y="286.0" type="curve" smooth="yes"/>
      <point x="630.0" y="303.0"/>
      <point x="628.0" y="319.0"/>
      <point x="624.0" y="334.0" type="curve"/>
      <point x="698.0" y="334.0" type="line"/>
      <point x="703.0" y="405.0" type="line"/>
      <point x="563.0" y="405.0" type="line" smooth="yes"/>
      <point x="537.0" y="405.0"/>
      <point x="503.0" y="404.0"/>
      <point x="487.0" y="388.0" type="curve"/>
      <point x="482.0" y="323.0" type="line"/>
      <point x="493.0" y="328.0"/>
      <point x="517.0" y="332.0"/>
      <point x="538.0" y="333.0" type="curve"/>
      <point x="545.0" y="311.0"/>
      <point x="542.0" y="288.0"/>
      <point x="542.0" y="265.0" type="curve" smooth="yes"/>
      <point x="542.0" y="209.0"/>
      <point x="526.0" y="163.0"/>
      <point x="493.0" y="126.0" type="curve"/>
      <point x="426.0" y="187.0"/>
      <point x="370.0" y="264.0"/>
      <point x="314.0" y="360.0" type="curve"/>
      <point x="482.0" y="451.0"/>
      <point x="540.0" y="506.0"/>
      <point x="540.0" y="604.0" type="curve" smooth="yes"/>
      <point x="540.0" y="666.0"/>
      <point x="482.0" y="755.0"/>
      <point x="366.0" y="755.0" type="curve" smooth="yes"/>
      <point x="248.0" y="755.0"/>
      <point x="164.0" y="669.0"/>
      <point x="164.0" y="551.0" type="curve" smooth="yes"/>
      <point x="164.0" y="500.0"/>
      <point x="182.0" y="435.0"/>
      <point x="207.0" y="380.0" type="curve"/>
      <point x="113.0" y="327.0"/>
      <point x="46.0" y="272.0"/>
      <point x="46.0" y="180.0" type="curve" smooth="yes"/>
      <point x="46.0" y="49.0"/>
      <point x="166.0" y="-8.0"/>
    </contour>
    <contour>
      <point x="321.0" y="60.0" type="curve" smooth="yes"/>
      <point x="230.0" y="60.0"/>
      <point x="146.0" y="92.0"/>
      <point x="146.0" y="182.0" type="curve" smooth="yes"/>
      <point x="146.0" y="237.0"/>
      <point x="180.0" y="277.0"/>
      <point x="241.0" y="317.0" type="curve"/>
      <point x="303.0" y="215.0"/>
      <point x="343.0" y="153.0"/>
      <point x="421.0" y="78.0" type="curve"/>
      <point x="392.0" y="66.0"/>
      <point x="358.0" y="60.0"/>
    </contour>
    <contour>
      <point x="281.0" y="420.0" type="curve"/>
      <point x="261.0" y="462.0"/>
      <point x="251.0" y="507.0"/>
      <point x="251.0" y="554.0" type="curve" smooth="yes"/>
      <point x="251.0" y="625.0"/>
      <point x="294.0" y="690.0"/>
      <point x="362.0" y="690.0" type="curve" smooth="yes"/>
      <point x="417.0" y="690.0"/>
      <point x="449.0" y="651.0"/>
      <point x="449.0" y="594.0" type="curve" smooth="yes"/>
      <point x="449.0" y="519.0"/>
      <point x="383.0" y="474.0"/>
    </contour>
  </outline>
</glyph>
<glyph name="quotesingle" format="2">
  <advance width="259.25"/>
  <unicode hex="0027"/>
  <note>
quotesingle
</note>
  <outline>
    <contour>
      <point x="108.35" y="472.0" type="line"/>
      <point x="184.175" y="472.0" type="line"/>
      <point x="265.8" y="824.0" type="line"/>
      <point x="147.0" y="824.0" type="line"/>
    </contour>
  </outline>
</glyph>
<glyph name="parenleft" format="2">
  <advance width="417.0"/>
  <unicode hex="0028"/>
  <note>
parenleft
</note>
  <outline>
    <contour>
      <point x="265.0" y="-156.0" type="curve"/>
      <point x="326.0" y="-125.0" type="line"/>
      <point x="242.0" y="-47.0"/>
      <point x="201.0" y="120.0"/>
      <point x="201.0" y="250.0" type="curve" smooth="yes"/>
      <point x="201.0" y="488.0"/>
      <point x="308.0" y="736.0"/>
      <point x="446.0" y="821.0" type="curve"/>
      <point x="404.0" y="850.0" type="line"/>
      <point x="235.0" y="761.0"/>
      <point x="99.0" y="509.0"/>
      <point x="99.0" y="247.0" type="curve" smooth="yes"/>
      <point x="99.0" y="93.0"/>
      <point x="159.0" y="-79.0"/>
    </contour>
  </outline>
</glyph>
<glyph name="asterisk" format="2">
  <advance width="667.0"/>
  <unicode hex="002A"/>
  <note>
asterisk
</note>
  <outline>
    <contour>
      <point x="281.725" y="310.8" type="line"/>
      <point x="381.625" y="310.475" type="line"/>
      <point x="380.325" y="456.05" type="line"/>
      <point x="373.3" y="526.4" type="line"/>
      <point x="422.625" y="479.375" type="line"/>
      <point x="531.25" y="393.775" type="line"/>
      <point x="590.175" y="478.35" type="line"/>
      <point x="462.275" y="537.675" type="line"/>
      <point x="399.25" y="561.0" type="line"/>
      <point x="467.275" y="584.65" type="line"/>
      <point x="607.175" y="644.975" type="line"/>
      <point x="567.875" y="729.55" type="line"/>
      <point x="439.95" y="643.625" type="line"/>
      <point x="380.95" y="597.925" type="line"/>
      <point x="400.975" y="667.275" type="line"/>
      <point x="431.6" y="812.525" type="line"/>
      <point x="334.025" y="812.525" type="line"/>
      <point x="333.675" y="667.275" type="line"/>
      <point x="339.375" y="597.925" type="line"/>
      <point x="290.7" y="643.625" type="line"/>
      <point x="181.125" y="729.225" type="line"/>
      <point x="123.475" y="644.975" type="line"/>
      <point x="251.725" y="584.65" type="line"/>
      <point x="314.75" y="562.0" type="line"/>
      <point x="246.725" y="537.675" type="line"/>
      <point x="106.825" y="478.35" type="line"/>
      <point x="146.425" y="393.45" type="line"/>
      <point x="274.375" y="479.375" type="line"/>
      <point x="331.05" y="526.4" type="line"/>
      <point x="312.025" y="456.05" type="line"/>
    </contour>
  </outline>
</glyph>
<glyph name="plus" format="2">
  <advance width="666.025"/>
  <unicode hex="002B"/>
  <note>
plus
</note>
  <outline>
    <contour>
      <point x="266.45" y="140.425" type="line"/>
      <point x="360.925" y="140.425" type="line"/>
      <point x="375.25" y="261.025" type="line"/>
      <point x="379.25" y="339.075" type="line"/>
      <point x="432.95" y="335.075" type="line"/>
      <point x="559.25" y="335.075" type="line"/>
      <point x="568.875" y="421.2" type="line"/>
      <point x="443.25" y="421.2" type="line"/>
      <point x="388.55" y="416.2" type="line"/>
      <point x="402.225" y="493.925" type="line"/>
      <point x="415.225" y="610.15" type="line"/>
      <point x="320.75" y="610.15" type="line"/>
      <point x="307.425" y="493.925" type="line"/>
      <point x="300.75" y="415.2" type="line"/>
      <point x="235.375" y="421.2" type="line"/>
      <point x="122.75" y="421.2" type="line"/>
      <point x="113.45" y="335.075" type="line"/>
      <point x="225.075" y="335.075" type="line"/>
      <point x="292.1" y="339.075" type="line"/>
      <point x="279.775" y="261.025" type="line"/>
    </contour>
  </outline>
</glyph>
<glyph name="comma" format="2">
  <advance width="257.0"/>
  <unicode hex="002C"/>
  <note>
comma
</note>
  <outline>
    <contour>
      <point x="30.0" y="-245.0" type="line"/>
      <point x="90.0" y="-224.0"/>
      <point x="138.0" y="-179.0"/>
      <point x="163.0" y="-119.0" type="curve" smooth="yes"/>
      <point x="176.0" y="-88.0"/>
      <point x="182.0" y="-55.0"/>
      <point x="182.0" y="-20.0" type="curve" smooth="yes"/>
      <point x="182.0" y="41.0"/>
      <point x="157.0" y="104.0"/>
      <point x="89.0" y="129.0" type="curve"/>
      <point x="37.0" y="67.0" type="line"/>
      <point x="34.0" y="41.0" type="line"/>
      <point x="62.0" y="32.0"/>
      <point x="81.0" y="-9.0"/>
      <point x="81.0" y="-53.0" type="curve" smooth="yes"/>
      <point x="81.0" y="-113.0"/>
      <point x="45.0" y="-166.0"/>
      <point x="-4.0" y="-191.0" type="curve"/>
      <point x="-6.0" y="-201.0" type="line"/>
    </contour>
  </outline>
</glyph>
<glyph name="hyphen" format="2">
  <advance width="607.925"/>
  <unicode hex="002D"/>
  <note>
hyphen
</note>
  <outline>
    <contour>
      <point x="106.65" y="314.75" type="line"/>
      <point x="504.6" y="314.75" type="line"/>
      <point x="515.225" y="399.575" type="line"/>
      <point x="116.95" y="399.575" type="line"/>
    </contour>
  </outline>
</glyph>
<glyph name="period" format="2">
  <advance width="257.0"/>
  <unicode hex="002E"/>
  <note>
period
</note>
  <outline>
    <contour>
      <point x="102.0" y="-11.0" type="curve" smooth="yes"/>
      <point x="149.0" y="-11.0"/>
      <point x="178.0" y="19.0"/>
      <point x="178.0" y="67.0" type="curve" smooth="yes"/>
      <point x="178.0" y="99.0"/>
      <point x="159.0" y="122.0"/>
      <point x="120.0" y="122.0" type="curve" smooth="yes"/>
      <point x="77.0" y="122.0"/>
      <point x="43.0" y="85.0"/>
      <point x="43.0" y="44.0" type="curve" smooth="yes"/>
      <point x="43.0" y="12.0"/>
      <point x="69.0" y="-11.0"/>
    </contour>
  </outline>
</glyph>
<glyph name="slash" format="2">
  <advance width="417.0"/>
  <unicode hex="002F"/>
  <note>
slash
</note>
  <outline>
    <contour>
      <point x="-49.225" y="-177.0" type="line"/>
      <point x="42.9" y="-177.0" type="line"/>
      <point x="464.225" y="780.0" type="line"/>
      <point x="371.1" y="780.0" type="line"/>
    </contour>
  </outline>
</glyph>
<glyph name="three" format="2">
  <advance width="543.25"/>
  <unicode hex="0033"/>
  <outline>
    <contour>
      <point x="122.35" y="-7.675" type="curve" smooth="yes"/>
      <point x="305.425" y="-7.675"/>
      <point x="480.5" y="85.7"/>
      <point x="480.5" y="235.7" type="curve" smooth="yes"/>
      <point x="480.5" y="313.075"/>
      <point x="421.525" y="388.075"/>
      <point x="295.1" y="384.7" type="curve"/>
      <point x="395.375" y="418.675"/>
      <point x="486.175" y="499.975"/>
      <point x="486.175" y="594.6" type="curve" smooth="yes"/>
      <point x="486.175" y="701.0"/>
      <point x="399.25" y="748.0"/>
      <point x="304.0" y="748.0" type="curve" smooth="yes"/>
      <point x="200.0" y="748.0"/>
      <point x="113.375" y="700.975"/>
      <point x="80.7" y="668.975" type="curve"/>
      <point x="114.625" y="594.8" type="line"/>
      <point x="156.975" y="626.125"/>
      <point x="207.975" y="659.55"/>
      <point x="274.15" y="659.55" type="curve" smooth="yes"/>
      <point x="338.475" y="659.55"/>
      <point x="371.85" y="634.175"/>
      <point x="371.85" y="583.45" type="curve" smooth="yes"/>
      <point x="371.85" y="497.05"/>
      <point x="241.65" y="425.65"/>
      <point x="148.975" y="408.3" type="curve"/>
      <point x="141.3" y="318.1" type="line"/>
      <point x="214.2" y="334.425" type="line"/>
      <point x="319.75" y="333.1"/>
      <point x="359.85" y="288.775"/>
      <point x="359.85" y="229.975" type="curve" smooth="yes"/>
      <point x="359.85" y="130.85"/>
      <point x="246.575" y="76.125"/>
      <point x="116.65" y="76.125" type="curve" smooth="yes"/>
      <point x="92.3" y="76.125"/>
      <point x="64.3" y="78.125"/>
      <point x="31.6" y="81.125" type="curve"/>
      <point x="21.975" y="-1.675" type="line"/>
      <point x="60.65" y="-4.675"/>
      <point x="92.325" y="-7.675"/>
    </contour>
  </outline>
</glyph>
<glyph name="four" format="2">
  <advance width="618.975"/>
  <unicode hex="0034"/>
  <outline>
    <contour>
      <point x="316.05" y="0.0" type="line"/>
      <point x="421.125" y="0.0" type="line"/>
      <point x="438.1" y="149.325" type="line"/>
      <point x="562.925" y="149.325" type="line"/>
      <point x="574.55" y="243.15" type="line"/>
      <point x="449.4" y="236.15" type="line"/>
      <point x="478.75" y="454.75" type="line"/>
      <point x="372.325" y="436.075" type="line"/>
      <point x="345.0" y="231.475" type="line"/>
      <point x="133.45" y="222.8" type="line"/>
      <point x="173.1" y="272.45" type="line"/>
      <point x="456.925" y="706.6" type="line"/>
      <point x="396.075" y="747.0" type="line"/>
      <point x="336.725" y="747.0" type="line"/>
      <point x="221.525" y="534.8"/>
      <point x="124.9" y="372.375"/>
      <point x="14.075" y="202.85" type="curve"/>
      <point x="35.65" y="149.325" type="line"/>
      <point x="333.7" y="149.325" type="line"/>
    </contour>
  </outline>
</glyph>
<glyph name="five" format="2">
  <advance width="546.625"/>
  <unicode hex="0035"/>
  <outline>
    <contour>
      <point x="95.4" y="-6.325" type="curve" smooth="yes"/>
      <point x="326.3" y="-6.325"/>
      <point x="502.925" y="113.75"/>
      <point x="502.925" y="293.025" type="curve" smooth="yes"/>
      <point x="502.925" y="404.175"/>
      <point x="439.7" y="473.6"/>
      <point x="301.85" y="473.6" type="curve" smooth="yes"/>
      <point x="268.575" y="473.6"/>
      <point x="223.9" y="467.95"/>
      <point x="194.5" y="458.95" type="curve"/>
      <point x="244.575" y="654.225" type="line"/>
      <point x="503.4" y="654.225" type="line"/>
      <point x="525.975" y="755.0" type="line"/>
      <point x="450.375" y="755.0" type="line"/>
      <point x="439.7" y="747.0" type="line"/>
      <point x="158.15" y="747.0" type="line"/>
      <point x="80.125" y="408.3" type="line"/>
      <point x="122.025" y="365.425" type="line"/>
      <point x="156.75" y="381.1"/>
      <point x="210.425" y="391.425"/>
      <point x="246.1" y="391.425" type="curve" smooth="yes"/>
      <point x="330.8" y="391.425"/>
      <point x="373.925" y="349.45"/>
      <point x="373.925" y="274.025" type="curve" smooth="yes"/>
      <point x="373.925" y="136.275"/>
      <point x="225.625" y="76.475"/>
      <point x="82.7" y="76.475" type="curve" smooth="yes"/>
      <point x="71.375" y="76.475"/>
      <point x="59.375" y="77.15"/>
      <point x="43.7" y="80.15" type="curve"/>
      <point x="31.4" y="1.675" type="line"/>
      <point x="51.4" y="-5.325"/>
      <point x="79.4" y="-6.325"/>
    </contour>
  </outline>
</glyph>
<glyph name="seven" format="2">
  <advance width="534.35"/>
  <unicode hex="0037"/>
  <outline>
    <contour>
      <point x="103.925" y="0.0" type="line"/>
      <point x="235.225" y="0.0" type="line"/>
      <point x="549.325" y="724.05" type="line"/>
      <point x="532.025" y="747.0" type="line"/>
      <point x="75.15" y="747.0" type="line"/>
      <point x="69.15" y="656.9" type="line"/>
      <point x="420.725" y="657.9" type="line"/>
    </contour>
  </outline>
</glyph>
<glyph name="less" format="2">
  <advance width="668.0"/>
  <unicode hex="003C"/>
  <note>
less
</note>
  <outline>
    <contour>
      <point x="530.0" y="86.0" type="line"/>
      <point x="540.0" y="172.0" type="line"/>
      <point x="205.0" y="362.0" type="line"/>
      <point x="584.0" y="552.0" type="line"/>
      <point x="596.0" y="646.0" type="line"/>
      <point x="103.0" y="397.0" type="line"/>
      <point x="95.0" y="335.0" type="line"/>
    </contour>
  </outline>
</glyph>
<glyph name="equal" format="2">
  <advance width="520.625"/>
  <unicode hex="003D"/>
  <note>
equal
</note>
  <outline>
    <contour>
      <point x="80.675" y="410.75" type="line"/>
      <point x="480.625" y="410.75" type="line"/>
      <point x="491.25" y="494.9" type="line"/>
      <point x="90.975" y="494.9" type="line"/>
    </contour>
    <contour>
      <point x="47.65" y="164.05" type="line"/>
      <point x="447.925" y="164.05" type="line"/>
      <point x="458.225" y="247.525" type="line"/>
      <point x="58.275" y="247.525" type="line"/>
    </contour>
  </outline>
</glyph>
<glyph name="greater" format="2">
  <advance width="668.0"/>
  <unicode hex="003E"/>
  <note>
greater
</note>
  <outline>
    <contour>
      <point x="122.0" y="87.0" type="line"/>
      <point x="615.0" y="336.0" type="line"/>
      <point x="623.0" y="399.0" type="line"/>
      <point x="188.0" y="648.0" type="line"/>
      <point x="178.0" y="562.0" type="line"/>
      <point x="513.0" y="372.0" type="line"/>
      <point x="134.0" y="182.0" type="line"/>
    </contour>
  </outline>
</glyph>
<glyph name="question" format="2">
  <advance width="431.0"/>
  <unicode hex="003F"/>
  <note>
question
</note>
  <outline>
    <contour>
      <point x="125.0" y="257.0" type="curve"/>
      <point x="207.0" y="257.0" type="line"/>
      <point x="204.0" y="282.0"/>
      <point x="201.0" y="305.0"/>
      <point x="202.0" y="329.0" type="curve" smooth="yes"/>
      <point x="204.0" y="378.0"/>
      <point x="245.0" y="405.0"/>
      <point x="301.0" y="436.0" type="curve" smooth="yes"/>
      <point x="404.0" y="493.0"/>
      <point x="461.0" y="579.0"/>
      <point x="461.0" y="673.0" type="curve" smooth="yes"/>
      <point x="461.0" y="807.0"/>
      <point x="367.0" y="868.0"/>
      <point x="228.0" y="868.0" type="curve" smooth="yes"/>
      <point x="180.0" y="868.0"/>
      <point x="137.0" y="856.0"/>
      <point x="124.0" y="846.0" type="curve"/>
      <point x="107.0" y="773.0" type="line"/>
      <point x="146.0" y="786.0"/>
      <point x="172.0" y="790.0"/>
      <point x="213.0" y="790.0" type="curve" smooth="yes"/>
      <point x="288.0" y="790.0"/>
      <point x="362.0" y="753.0"/>
      <point x="362.0" y="660.0" type="curve" smooth="yes"/>
      <point x="362.0" y="608.0"/>
      <point x="348.0" y="547.0"/>
      <point x="257.0" y="500.0" type="curve" smooth="yes"/>
      <point x="159.0" y="449.0"/>
      <point x="110.0" y="394.0"/>
      <point x="110.0" y="338.0" type="curve" smooth="yes"/>
      <point x="110.0" y="290.0"/>
      <point x="121.0" y="271.0"/>
    </contour>
    <contour>
      <point x="150.0" y="-8.0" type="curve" smooth="yes"/>
      <point x="197.0" y="-8.0"/>
      <point x="227.0" y="22.0"/>
      <point x="227.0" y="70.0" type="curve" smooth="yes"/>
      <point x="227.0" y="102.0"/>
      <point x="208.0" y="125.0"/>
      <point x="169.0" y="125.0" type="curve" smooth="yes"/>
      <point x="124.0" y="125.0"/>
      <point x="92.0" y="88.0"/>
      <point x="92.0" y="47.0" type="curve" smooth="yes"/>
      <point x="92.0" y="15.0"/>
      <point x="118.0" y="-8.0"/>
    </contour>
  </outline>
</glyph>
<glyph name="at" format="2">
  <advance width="961.0"/>
  <unicode hex="0040"/>
  <note>
at
</note>
  <outline>
    <contour>
      <point x="438.0" y="-215.0" type="curve" smooth="yes"/>
      <point x="521.0" y="-215.0"/>
      <point x="601.0" y="-193.0"/>
      <point x="646.0" y="-158.0" type="curve"/>
      <point x="630.0" y="-111.0" type="line"/>
      <point x="595.0" y="-128.0"/>
      <point x="502.0" y="-147.0"/>
      <point x="446.0" y="-147.0" type="curve" smooth="yes"/>
      <point x="247.0" y="-147.0"/>
      <point x="133.0" y="-18.0"/>
      <point x="133.0" y="194.0" type="curve" smooth="yes"/>
      <point x="133.0" y="451.0"/>
      <point x="305.0" y="690.0"/>
      <point x="560.0" y="690.0" type="curve" smooth="yes"/>
      <point x="729.0" y="690.0"/>
      <point x="838.0" y="618.0"/>
      <point x="838.0" y="419.0" type="curve" smooth="yes"/>
      <point x="838.0" y="295.0"/>
      <point x="759.0" y="90.0"/>
      <point x="663.0" y="90.0" type="curve" smooth="yes"/>
      <point x="657.0" y="90.0"/>
      <point x="655.0" y="104.0"/>
      <point x="655.0" y="127.0" type="curve" smooth="yes"/>
      <point x="655.0" y="217.0"/>
      <point x="692.0" y="444.0"/>
      <point x="712.0" y="521.0" type="curve"/>
      <point x="631.0" y="507.0" type="line"/>
      <point x="607.0" y="524.0"/>
      <point x="557.0" y="533.0"/>
      <point x="524.0" y="533.0" type="curve" smooth="yes"/>
      <point x="360.0" y="533.0"/>
      <point x="260.0" y="376.0"/>
      <point x="260.0" y="204.0" type="curve" smooth="yes"/>
      <point x="260.0" y="107.0"/>
      <point x="336.0" y="3.0"/>
      <point x="396.0" y="3.0" type="curve" smooth="yes"/>
      <point x="465.0" y="3.0"/>
      <point x="529.0" y="73.0"/>
      <point x="576.0" y="181.0" type="curve"/>
      <point x="573.0" y="153.0"/>
      <point x="570.0" y="126.0"/>
      <point x="570.0" y="110.0" type="curve" smooth="yes"/>
      <point x="570.0" y="50.0"/>
      <point x="571.0" y="5.0"/>
      <point x="614.0" y="5.0" type="curve" smooth="yes"/>
      <point x="792.0" y="5.0"/>
      <point x="913.0" y="229.0"/>
      <point x="913.0" y="434.0" type="curve" smooth="yes"/>
      <point x="913.0" y="631.0"/>
      <point x="785.0" y="754.0"/>
      <point x="579.0" y="754.0" type="curve" smooth="yes"/>
      <point x="268.0" y="754.0"/>
      <point x="59.0" y="511.0"/>
      <point x="59.0" y="183.0" type="curve" smooth="yes"/>
      <point x="59.0" y="-55.0"/>
      <point x="204.0" y="-215.0"/>
    </contour>
    <contour>
      <point x="411.0" y="78.0" type="curve" smooth="yes"/>
      <point x="369.0" y="78.0"/>
      <point x="348.0" y="125.0"/>
      <point x="348.0" y="218.0" type="curve" smooth="yes"/>
      <point x="348.0" y="333.0"/>
      <point x="408.0" y="472.0"/>
      <point x="520.0" y="472.0" type="curve" smooth="yes"/>
      <point x="551.0" y="472.0"/>
      <point x="593.0" y="459.0"/>
      <point x="608.0" y="436.0" type="curve"/>
      <point x="597.0" y="336.0"/>
      <point x="484.0" y="78.0"/>
    </contour>
  </outline>
</glyph>
<glyph name="A" format="2">
  <advance width="618.0"/>
  <unicode hex="0041"/>
  <note>
A
</note>
  <anchor x="272.0" y="0.0" name="bottom"/>
  <anchor x="575.0" y="0.0" name="ogonek"/>
  <anchor x="371.0" y="747.0" name="top"/>
  <outline>
    <contour>
      <point x="-37.0" y="0.0" type="line"/>
      <point x="66.0" y="0.0" type="line"/>
      <point x="155.0" y="193.0" type="line"/>
      <point x="445.0" y="193.0" type="line"/>
      <point x="477.0" y="0.0" type="line"/>
      <point x="574.0" y="0.0" type="line"/>
      <point x="434.0" y="747.0" type="line"/>
      <point x="327.0" y="747.0" type="line"/>
    </contour>
    <contour>
      <point x="189.0" y="267.0" type="line"/>
      <point x="345.0" y="605.0" type="line"/>
      <point x="370.0" y="660.0" type="line"/>
      <point x="376.0" y="604.0" type="line"/>
      <point x="432.0" y="267.0" type="line"/>
    </contour>
  </outline>
</glyph>
<glyph name="B" format="2">
  <advance width="614.1"/>
  <unicode hex="0042"/>
  <note>
B
</note>
  <anchor x="270.55" y="0.0" name="bottom"/>
  <anchor x="369.55" y="747.975" name="top"/>
  <outline>
    <contour>
      <point x="229.175" y="-7.0" type="curve" smooth="yes"/>
      <point x="439.1" y="-7.0"/>
      <point x="566.75" y="69.35"/>
      <point x="564.725" y="238.025" type="curve" smooth="yes"/>
      <point x="563.375" y="321.35"/>
      <point x="505.675" y="378.675"/>
      <point x="421.35" y="392.0" type="curve"/>
      <point x="514.325" y="421.05"/>
      <point x="570.025" y="489.35"/>
      <point x="570.025" y="589.025" type="curve" smooth="yes"/>
      <point x="570.025" y="686.325"/>
      <point x="508.4" y="755.0"/>
      <point x="345.475" y="755.0" type="curve" smooth="yes"/>
      <point x="318.475" y="755.0"/>
      <point x="217.2" y="747.0"/>
      <point x="195.525" y="747.0" type="curve" smooth="yes"/>
      <point x="147.025" y="747.0" type="line"/>
      <point x="50.75" y="0.0" type="line"/>
      <point x="100.95" y="0.0" type="line" smooth="yes"/>
      <point x="127.175" y="0.0"/>
      <point x="205.3" y="-7.0"/>
    </contour>
    <contour>
      <point x="250.5" y="70.45" type="curve" smooth="yes"/>
      <point x="226.8" y="70.45"/>
      <point x="187.375" y="73.8"/>
      <point x="169.725" y="78.475" type="curve"/>
      <point x="204.075" y="345.775" type="line"/>
      <point x="233.775" y="347.775"/>
      <point x="264.85" y="348.775"/>
      <point x="296.275" y="348.775" type="curve" smooth="yes"/>
      <point x="397.325" y="348.775"/>
      <point x="448.725" y="310.025"/>
      <point x="448.725" y="225.3" type="curve" smooth="yes"/>
      <point x="448.725" y="118.925"/>
      <point x="381.35" y="70.45"/>
    </contour>
    <contour>
      <point x="214.725" y="425.575" type="curve"/>
      <point x="246.4" y="674.875" type="line"/>
      <point x="270.0" y="677.875"/>
      <point x="302.8" y="679.55"/>
      <point x="321.175" y="679.225" type="curve" smooth="yes"/>
      <point x="418.675" y="676.625"/>
      <point x="460.025" y="646.8"/>
      <point x="460.025" y="577.725" type="curve" smooth="yes"/>
      <point x="460.025" y="480.0"/>
      <point x="390.575" y="424.575"/>
      <point x="291.55" y="424.575" type="curve" smooth="yes"/>
      <point x="250.4" y="424.575"/>
      <point x="232.775" y="424.575"/>
    </contour>
  </outline>
</glyph>
<glyph name="C" format="2">
  <advance width="557.0"/>
  <unicode hex="0043"/>
  <note>
C
</note>
  <anchor x="302.0" y="0.0" name="bottom"/>
  <anchor x="399.0" y="747.0" name="top"/>
  <outline>
    <contour>
      <point x="298.0" y="-8.0" type="curve" smooth="yes"/>
      <point x="410.0" y="-8.0"/>
      <point x="474.0" y="17.0"/>
      <point x="505.0" y="41.0" type="curve"/>
      <point x="491.0" y="122.0" type="line"/>
      <point x="465.0" y="100.0"/>
      <point x="376.0" y="69.0"/>
      <point x="315.0" y="69.0" type="curve" smooth="yes"/>
      <point x="198.0" y="69.0"/>
      <point x="151.0" y="189.0"/>
      <point x="151.0" y="325.0" type="curve" smooth="yes"/>
      <point x="151.0" y="430.0"/>
      <point x="181.0" y="546.0"/>
      <point x="254.0" y="619.0" type="curve" smooth="yes"/>
      <point x="291.0" y="656.0"/>
      <point x="338.0" y="674.0"/>
      <point x="396.0" y="674.0" type="curve" smooth="yes"/>
      <point x="465.0" y="674.0"/>
      <point x="486.0" y="661.0"/>
      <point x="523.0" y="642.0" type="curve"/>
      <point x="557.0" y="719.0" type="line"/>
      <point x="503.0" y="743.0"/>
      <point x="449.0" y="755.0"/>
      <point x="399.0" y="755.0" type="curve" smooth="yes"/>
      <point x="270.0" y="755.0"/>
      <point x="159.0" y="678.0"/>
      <point x="98.0" y="546.0" type="curve" smooth="yes"/>
      <point x="67.0" y="479.0"/>
      <point x="52.0" y="403.0"/>
      <point x="52.0" y="318.0" type="curve" smooth="yes"/>
      <point x="52.0" y="205.0"/>
      <point x="82.0" y="102.0"/>
      <point x="155.0" y="39.0" type="curve" smooth="yes"/>
      <point x="191.0" y="8.0"/>
      <point x="239.0" y="-8.0"/>
    </contour>
  </outline>
</glyph>
<glyph name="D" format="2">
  <advance width="675.9"/>
  <unicode hex="0044"/>
  <note>
D
</note>
  <anchor x="300.95" y="0.0" name="bottom"/>
  <anchor x="350.95" y="374.325" name="center"/>
  <anchor x="399.95" y="747.975" name="top"/>
  <outline>
    <contour>
      <point x="260.525" y="-8.0" type="curve" smooth="yes"/>
      <point x="493.725" y="-12.05"/>
      <point x="643.425" y="190.3"/>
      <point x="643.425" y="440.6" type="curve" smooth="yes"/>
      <point x="643.425" y="638.3"/>
      <point x="556.425" y="755.0"/>
      <point x="361.1" y="755.0" type="curve" smooth="yes"/>
      <point x="323.275" y="755.0"/>
      <point x="227.5" y="747.0"/>
      <point x="200.175" y="747.0" type="curve" smooth="yes"/>
      <point x="147.025" y="747.0" type="line"/>
      <point x="50.75" y="0.0" type="line"/>
      <point x="103.325" y="0.0" type="line" smooth="yes"/>
      <point x="171.225" y="0.0"/>
      <point x="200.25" y="-6.65"/>
    </contour>
    <contour>
      <point x="279.55" y="73.775" type="curve" smooth="yes"/>
      <point x="241.85" y="73.1"/>
      <point x="199.1" y="78.1"/>
      <point x="171.4" y="88.125" type="curve"/>
      <point x="245.4" y="665.55" type="line"/>
      <point x="265.075" y="670.225"/>
      <point x="306.45" y="674.9"/>
      <point x="331.125" y="674.9" type="curve" smooth="yes"/>
      <point x="428.275" y="674.9"/>
      <point x="483.025" y="646.85"/>
      <point x="510.4" y="578.75" type="curve" smooth="yes"/>
      <point x="523.75" y="543.7"/>
      <point x="530.425" y="496.975"/>
      <point x="530.425" y="436.9" type="curve" smooth="yes"/>
      <point x="530.425" y="314.925"/>
      <point x="494.725" y="198.55"/>
      <point x="419.0" y="128.825" type="curve" smooth="yes"/>
      <point x="381.3" y="93.8"/>
      <point x="334.6" y="75.45"/>
    </contour>
  </outline>
</glyph>
<glyph name="E" format="2">
  <advance width="561.2"/>
  <unicode hex="0045"/>
  <note>
E
</note>
  <anchor x="288.0" y="0.0" name="bottom"/>
  <anchor x="469.875" y="10.0" name="ogonek"/>
  <anchor x="351.3" y="747.0" name="top"/>
  <anchor x="82.0" y="747.975" name="topleft"/>
  <outline>
    <contour>
      <point x="50.75" y="0.0" type="line"/>
      <point x="497.9" y="0.0" type="line"/>
      <point x="506.85" y="90.1" type="line"/>
      <point x="170.05" y="82.75" type="line"/>
      <point x="203.75" y="342.775" type="line"/>
      <point x="418.8" y="335.425" type="line"/>
      <point x="426.75" y="425.2" type="line"/>
      <point x="214.375" y="422.2" type="line"/>
      <point x="245.075" y="664.25" type="line"/>
      <point x="527.45" y="660.9" type="line"/>
      <point x="533.05" y="747.0" type="line"/>
      <point x="147.025" y="747.0" type="line"/>
    </contour>
  </outline>
</glyph>
<glyph name="F" format="2">
  <advance width="516.0"/>
  <unicode hex="0046"/>
  <note>
F
</note>
  <anchor x="221.0" y="0.0" name="bottom"/>
  <anchor x="320.0" y="747.0" name="top"/>
  <outline>
    <contour>
      <point x="54.0" y="0.0" type="line"/>
      <point x="150.0" y="0.0" type="line"/>
      <point x="194.0" y="347.0" type="line"/>
      <point x="427.0" y="339.0" type="line"/>
      <point x="433.0" y="421.0" type="line"/>
      <point x="203.0" y="417.0" type="line"/>
      <point x="235.0" y="674.0" type="line"/>
      <point x="527.0" y="670.0" type="line"/>
      <point x="534.0" y="747.0" type="line"/>
      <point x="148.0" y="747.0" type="line"/>
    </contour>
  </outline>
</glyph>
<glyph name="G" format="2">
  <advance width="654.0"/>
  <unicode hex="0047"/>
  <note>
G
</note>
  <anchor x="290.0" y="0.0" name="bottom"/>
  <anchor x="389.0" y="747.0" name="top"/>
  <outline>
    <contour>
      <point x="297.0" y="-8.0" type="curve" smooth="yes"/>
      <point x="360.0" y="-8.0"/>
      <point x="413.0" y="5.0"/>
      <point x="480.0" y="26.0" type="curve" smooth="yes"/>
      <point x="523.0" y="38.0"/>
      <point x="539.0" y="43.0"/>
      <point x="560.0" y="46.0" type="curve"/>
      <point x="600.0" y="356.0" type="line"/>
      <point x="392.0" y="356.0" type="line"/>
      <point x="382.0" y="278.0" type="line"/>
      <point x="495.0" y="278.0" type="line"/>
      <point x="473.0" y="104.0" type="line"/>
      <point x="421.0" y="80.0"/>
      <point x="361.0" y="68.0"/>
      <point x="314.0" y="68.0" type="curve" smooth="yes"/>
      <point x="198.0" y="68.0"/>
      <point x="151.0" y="188.0"/>
      <point x="151.0" y="324.0" type="curve" smooth="yes"/>
      <point x="151.0" y="433.0"/>
      <point x="187.0" y="550.0"/>
      <point x="265.0" y="623.0" type="curve" smooth="yes"/>
      <point x="304.0" y="659.0"/>
      <point x="352.0" y="677.0"/>
      <point x="411.0" y="677.0" type="curve" smooth="yes"/>
      <point x="488.0" y="677.0"/>
      <point x="549.0" y="656.0"/>
      <point x="577.0" y="635.0" type="curve"/>
      <point x="607.0" y="722.0" type="line"/>
      <point x="532.0" y="746.0"/>
      <point x="485.0" y="755.0"/>
      <point x="413.0" y="755.0" type="curve" smooth="yes"/>
      <point x="277.0" y="755.0"/>
      <point x="161.0" y="676.0"/>
      <point x="98.0" y="540.0" type="curve" smooth="yes"/>
      <point x="67.0" y="471.0"/>
      <point x="52.0" y="393.0"/>
      <point x="53.0" y="306.0" type="curve" smooth="yes"/>
      <point x="56.0" y="198.0"/>
      <point x="88.0" y="97.0"/>
      <point x="161.0" y="37.0" type="curve" smooth="yes"/>
      <point x="197.0" y="7.0"/>
      <point x="242.0" y="-8.0"/>
    </contour>
  </outline>
</glyph>
<glyph name="H" format="2">
  <advance width="688.0"/>
  <unicode hex="0048"/>
  <note>
H
</note>
  <anchor x="308.0" y="0.0" name="bottom"/>
  <anchor x="408.0" y="747.0" name="top"/>
  <outline>
    <contour>
      <point x="54.0" y="0.0" type="line"/>
      <point x="150.0" y="0.0" type="line"/>
      <point x="193.0" y="339.0" type="line"/>
      <point x="512.0" y="339.0" type="line"/>
      <point x="469.0" y="0.0" type="line"/>
      <point x="566.0" y="0.0" type="line"/>
      <point x="660.0" y="747.0" type="line"/>
      <point x="563.0" y="747.0" type="line"/>
      <point x="521.0" y="412.0" type="line"/>
      <point x="202.0" y="412.0" type="line"/>
      <point x="245.0" y="747.0" type="line"/>
      <point x="148.0" y="747.0" type="line"/>
    </contour>
  </outline>
</glyph>
<glyph name="I" format="2">
  <advance width="293.075"/>
  <unicode hex="0049"/>
  <note>
I
</note>
  <anchor x="109.875" y="0.0" name="bottom"/>
  <anchor x="229.1" y="10.0" name="ogonek"/>
  <anchor x="211.85" y="747.0" name="top"/>
  <anchor x="82.0" y="747.975" name="topleft"/>
  <outline>
    <contour>
      <point x="59.725" y="0.0" type="line"/>
      <point x="169.075" y="0.0" type="line"/>
      <point x="265.35" y="747.0" type="line"/>
      <point x="156.0" y="747.0" type="line"/>
    </contour>
  </outline>
</glyph>
<glyph name="J" format="2">
  <advance width="284.0"/>
  <unicode hex="004A"/>
  <note>
J
</note>
  <anchor x="105.0" y="0.0" name="bottom"/>
  <anchor x="219.0" y="747.0" name="top"/>
  <outline>
    <contour>
      <point x="-66.0" y="-154.0" type="line"/>
      <point x="50.0" y="-135.0"/>
      <point x="121.0" y="-80.0"/>
      <point x="158.0" y="37.0" type="curve" smooth="yes"/>
      <point x="165.0" y="60.0"/>
      <point x="181.0" y="142.0"/>
      <point x="198.0" y="285.0" type="curve" smooth="yes"/>
      <point x="252.0" y="747.0" type="line"/>
      <point x="156.0" y="747.0" type="line"/>
      <point x="130.0" y="548.0"/>
      <point x="111.0" y="253.0"/>
      <point x="64.0" y="42.0" type="curve" smooth="yes"/>
      <point x="52.0" y="-13.0"/>
      <point x="-28.0" y="-94.0"/>
      <point x="-83.0" y="-111.0" type="curve"/>
    </contour>
  </outline>
</glyph>
<glyph name="K" format="2">
  <advance width="608.0"/>
  <unicode hex="004B"/>
  <note>
K
</note>
  <anchor x="267.0" y="0.0" name="bottom"/>
  <anchor x="366.0" y="747.0" name="top"/>
  <outline>
    <contour>
      <point x="54.0" y="0.0" type="line"/>
      <point x="150.0" y="0.0" type="line"/>
      <point x="181.0" y="239.0" type="line"/>
      <point x="276.0" y="345.0" type="line"/>
      <point x="374.0" y="166.0" type="line"/>
      <point x="389.0" y="135.0"/>
      <point x="455.0" y="12.0"/>
      <point x="463.0" y="0.0" type="curve"/>
      <point x="580.0" y="0.0" type="line"/>
      <point x="553.0" y="41.0"/>
      <point x="499.0" y="133.0"/>
      <point x="462.0" y="199.0" type="curve" smooth="yes"/>
      <point x="375.0" y="351.0"/>
      <point x="382.0" y="341.0"/>
      <point x="338.0" y="414.0" type="curve"/>
      <point x="638.0" y="747.0" type="line"/>
      <point x="525.0" y="747.0" type="line"/>
      <point x="197.0" y="370.0" type="line"/>
      <point x="245.0" y="747.0" type="line"/>
      <point x="148.0" y="747.0" type="line"/>
    </contour>
  </outline>
</glyph>
<glyph name="L" format="2">
  <advance width="485.15"/>
  <unicode hex="004C"/>
  <note>
L
</note>
  <anchor x="205.575" y="0.0" name="bottom"/>
  <anchor x="255.575" y="374.325" name="center"/>
  <anchor x="304.575" y="747.975" name="top"/>
  <anchor x="527.15" y="747.975" name="topright"/>
  <outline>
    <contour>
      <point x="50.75" y="0.0" type="line"/>
      <point x="431.575" y="0.0" type="line"/>
      <point x="444.2" y="92.425" type="line"/>
      <point x="171.725" y="89.775" type="line"/>
      <point x="256.375" y="747.0" type="line"/>
      <point x="147.025" y="747.0" type="line"/>
    </contour>
  </outline>
</glyph>
<glyph name="M" format="2">
  <advance width="875.0"/>
  <unicode hex="004D"/>
  <note>
M
</note>
  <anchor x="401.0" y="0.0" name="bottom"/>
  <anchor x="500.0" y="747.0" name="top"/>
  <outline>
    <contour>
      <point x="364.0" y="-9.0" type="line"/>
      <point x="433.0" y="-1.0" type="line"/>
      <point x="646.0" y="521.0" type="line"/>
      <point x="712.0" y="685.0" type="line"/>
      <point x="701.0" y="498.0" type="line"/>
      <point x="676.0" y="0.0" type="line"/>
      <point x="774.0" y="0.0" type="line"/>
      <point x="792.0" y="747.0" type="line"/>
      <point x="652.0" y="747.0" type="line"/>
      <point x="443.0" y="229.0" type="line"/>
      <point x="419.0" y="147.0" type="line"/>
      <point x="412.0" y="229.0" type="line"/>
      <point x="333.0" y="747.0" type="line"/>
      <point x="209.0" y="747.0" type="line"/>
      <point x="23.0" y="0.0" type="line"/>
      <point x="121.0" y="0.0" type="line"/>
      <point x="237.0" y="504.0" type="line"/>
      <point x="268.0" y="685.0" type="line"/>
      <point x="286.0" y="509.0" type="line"/>
    </contour>
  </outline>
</glyph>
<glyph name="N" format="2">
  <advance width="691.8"/>
  <unicode hex="004E"/>
  <note>
N
</note>
  <anchor x="308.9" y="0.0" name="bottom"/>
  <anchor x="407.9" y="747.975" name="top"/>
  <outline>
    <contour>
      <point x="50.75" y="0.0" type="line"/>
      <point x="153.1" y="0.0" type="line"/>
      <point x="214.125" y="479.025" type="line"/>
      <point x="224.85" y="622.4" type="line"/>
      <point x="254.425" y="505.825" type="line"/>
      <point x="467.975" y="0.0" type="line"/>
      <point x="570.425" y="0.0" type="line"/>
      <point x="666.375" y="747.0" type="line"/>
      <point x="562.35" y="747.0" type="line"/>
      <point x="504.3" y="267.2" type="line"/>
      <point x="495.95" y="144.55" type="line"/>
      <point x="463.65" y="250.125" type="line"/>
      <point x="256.15" y="747.0" type="line"/>
      <point x="147.025" y="747.0" type="line"/>
    </contour>
  </outline>
</glyph>
<glyph name="O" format="2">
  <advance width="673.0"/>
  <unicode hex="004F"/>
  <note>
O
</note>
  <anchor x="300.0" y="0.0" name="bottom"/>
  <anchor x="350.0" y="374.0" name="center"/>
  <anchor x="404.0" y="10.0" name="ogonek"/>
  <anchor x="401.0" y="747.0" name="top"/>
  <anchor x="82.0" y="747.0" name="topleft"/>
  <anchor x="715.0" y="747.0" name="topright"/>
  <outline>
    <contour>
      <point x="292.0" y="-8.0" type="curve" smooth="yes"/>
      <point x="506.0" y="-8.0"/>
      <point x="637.0" y="197.0"/>
      <point x="637.0" y="438.0" type="curve" smooth="yes"/>
      <point x="637.0" y="607.0"/>
      <point x="561.0" y="755.0"/>
      <point x="397.0" y="755.0" type="curve" smooth="yes"/>
      <point x="187.0" y="755.0"/>
      <point x="53.0" y="546.0"/>
      <point x="53.0" y="310.0" type="curve" smooth="yes"/>
      <point x="53.0" y="136.0"/>
      <point x="131.0" y="-8.0"/>
    </contour>
    <contour>
      <point x="308.0" y="66.0" type="curve" smooth="yes"/>
      <point x="205.0" y="66.0"/>
      <point x="157.0" y="144.0"/>
      <point x="153.0" y="316.0" type="curve" smooth="yes"/>
      <point x="149.0" y="487.0"/>
      <point x="235.0" y="678.0"/>
      <point x="382.0" y="678.0" type="curve" smooth="yes"/>
      <point x="485.0" y="678.0"/>
      <point x="534.0" y="603.0"/>
      <point x="537.0" y="431.0" type="curve" smooth="yes"/>
      <point x="539.0" y="256.0"/>
      <point x="457.0" y="66.0"/>
    </contour>
  </outline>
</glyph>
<glyph name="P" format="2">
  <advance width="585.425"/>
  <unicode hex="0050"/>
  <note>
P
</note>
  <anchor x="255.875" y="0.0" name="bottom"/>
  <anchor x="354.875" y="747.975" name="top"/>
  <outline>
    <contour>
      <point x="50.75" y="0.0" type="line"/>
      <point x="159.425" y="0.0" type="line"/>
      <point x="192.75" y="255.75" type="line"/>
      <point x="210.45" y="253.075"/>
      <point x="239.125" y="251.4"/>
      <point x="279.8" y="251.4" type="curve" smooth="yes"/>
      <point x="399.375" y="251.4"/>
      <point x="495.025" y="303.7"/>
      <point x="545.7" y="396.025" type="curve" smooth="yes"/>
      <point x="570.7" y="441.35"/>
      <point x="583.375" y="495.025"/>
      <point x="583.05" y="555.7" type="curve" smooth="yes"/>
      <point x="583.05" y="689.35"/>
      <point x="502.45" y="755.0"/>
      <point x="353.875" y="755.0" type="curve" smooth="yes"/>
      <point x="318.375" y="755.0"/>
      <point x="234.125" y="747.0"/>
      <point x="206.95" y="747.0" type="curve" smooth="yes"/>
      <point x="147.025" y="747.0" type="line"/>
    </contour>
    <contour>
      <point x="279.425" y="336.175" type="curve" smooth="yes"/>
      <point x="254.75" y="336.175"/>
      <point x="220.4" y="339.175"/>
      <point x="204.05" y="342.85" type="curve"/>
      <point x="245.4" y="665.175" type="line"/>
      <point x="271.125" y="671.2"/>
      <point x="310.875" y="675.2"/>
      <point x="335.275" y="675.2" type="curve" smooth="yes"/>
      <point x="430.6" y="675.2"/>
      <point x="475.325" y="634.175"/>
      <point x="473.35" y="551.125" type="curve" smooth="yes"/>
      <point x="470.025" y="409.275"/>
      <point x="409.325" y="336.5"/>
    </contour>
  </outline>
</glyph>
<glyph name="Q" format="2">
  <advance width="674.3"/>
  <unicode hex="0051"/>
  <note>
Q
</note>
  <anchor x="300.65" y="0.0" name="bottom"/>
  <anchor x="350.65" y="374.325" name="center"/>
  <anchor x="407.25" y="10.0" name="ogonek"/>
  <anchor x="402.95" y="747.975" name="top"/>
  <anchor x="82.0" y="747.975" name="topleft"/>
  <anchor x="716.3" y="747.975" name="topright"/>
  <outline>
    <contour>
      <point x="440.4" y="-180.55" type="curve" smooth="yes"/>
      <point x="498.375" y="-180.55"/>
      <point x="573.6" y="-166.6"/>
      <point x="597.25" y="-148.3" type="curve"/>
      <point x="597.25" y="-69.4" type="line"/>
      <point x="570.95" y="-78.4"/>
      <point x="525.975" y="-83.4"/>
      <point x="493.825" y="-83.4" type="curve" smooth="yes"/>
      <point x="417.775" y="-83.4"/>
      <point x="350.675" y="-72.375"/>
      <point x="350.675" y="-8.95" type="curve" smooth="yes"/>
      <point x="350.675" y="-3.375"/>
      <point x="350.675" y="10.625"/>
      <point x="350.675" y="13.275" type="curve"/>
      <point x="278.525" y="12.3" type="line"/>
      <point x="274.875" y="-2.325"/>
      <point x="272.875" y="-29.875"/>
      <point x="272.875" y="-40.15" type="curve" smooth="yes"/>
      <point x="272.875" y="-130.8"/>
      <point x="344.475" y="-180.55"/>
    </contour>
    <component base="O"/>
  </outline>
</glyph>
<glyph name="R" format="2">
  <advance width="620.0"/>
  <unicode hex="0052"/>
  <note>
R
</note>
  <anchor x="273.0" y="0.0" name="bottom"/>
  <anchor x="355.0" y="747.0" name="top"/>
  <outline>
    <contour>
      <point x="53.0" y="0.0" type="line"/>
      <point x="149.0" y="0.0" type="line"/>
      <point x="189.0" y="319.0" type="line"/>
      <point x="289.0" y="318.0" type="line"/>
      <point x="336.0" y="313.0"/>
      <point x="367.0" y="231.0"/>
      <point x="393.0" y="149.0" type="curve" smooth="yes"/>
      <point x="420.0" y="74.0"/>
      <point x="441.0" y="25.0"/>
      <point x="456.0" y="0.0" type="curve"/>
      <point x="566.0" y="0.0" type="line"/>
      <point x="545.0" y="30.0"/>
      <point x="506.0" y="123.0"/>
      <point x="472.0" y="204.0" type="curve" smooth="yes"/>
      <point x="457.0" y="247.0"/>
      <point x="427.0" y="307.0"/>
      <point x="404.0" y="331.0" type="curve"/>
      <point x="514.0" y="366.0"/>
      <point x="577.0" y="458.0"/>
      <point x="577.0" y="575.0" type="curve" smooth="yes"/>
      <point x="577.0" y="691.0"/>
      <point x="497.0" y="755.0"/>
      <point x="348.0" y="755.0" type="curve" smooth="yes"/>
      <point x="319.0" y="755.0"/>
      <point x="222.0" y="747.0"/>
      <point x="197.0" y="747.0" type="curve" smooth="yes"/>
      <point x="147.0" y="747.0" type="line"/>
    </contour>
    <contour>
      <point x="308.0" y="395.0" type="curve" smooth="yes"/>
      <point x="252.0" y="395.0"/>
      <point x="216.0" y="395.0"/>
      <point x="199.0" y="396.0" type="curve"/>
      <point x="235.0" y="673.0" type="line"/>
      <point x="255.0" y="676.0"/>
      <point x="309.0" y="681.0"/>
      <point x="337.0" y="681.0" type="curve" smooth="yes"/>
      <point x="424.0" y="681.0"/>
      <point x="471.0" y="644.0"/>
      <point x="472.0" y="579.0" type="curve" smooth="yes"/>
      <point x="476.0" y="470.0"/>
      <point x="420.0" y="395.0"/>
    </contour>
  </outline>
</glyph>
<glyph name="S" format="2">
  <advance width="510.0"/>
  <unicode hex="0053"/>
  <note>
S
</note>
  <anchor x="218.0" y="0.0" name="bottom"/>
  <anchor x="317.0" y="747.0" name="top"/>
  <outline>
    <contour>
      <point x="192.0" y="-8.0" type="curve" smooth="yes"/>
      <point x="336.0" y="-8.0"/>
      <point x="450.0" y="59.0"/>
      <point x="450.0" y="201.0" type="curve" smooth="yes"/>
      <point x="450.0" y="294.0"/>
      <point x="394.0" y="349.0"/>
      <point x="300.0" y="412.0" type="curve" smooth="yes"/>
      <point x="239.0" y="453.0"/>
      <point x="185.0" y="523.0"/>
      <point x="186.0" y="581.0" type="curve" smooth="yes"/>
      <point x="189.0" y="656.0"/>
      <point x="250.0" y="681.0"/>
      <point x="323.0" y="681.0" type="curve" smooth="yes"/>
      <point x="368.0" y="681.0"/>
      <point x="425.0" y="668.0"/>
      <point x="453.0" y="640.0" type="curve"/>
      <point x="484.0" y="713.0" type="line"/>
      <point x="452.0" y="736.0"/>
      <point x="397.0" y="755.0"/>
      <point x="316.0" y="755.0" type="curve" smooth="yes"/>
      <point x="189.0" y="755.0"/>
      <point x="89.0" y="687.0"/>
      <point x="89.0" y="560.0" type="curve" smooth="yes"/>
      <point x="89.0" y="461.0"/>
      <point x="147.0" y="399.0"/>
      <point x="243.0" y="335.0" type="curve" smooth="yes"/>
      <point x="322.0" y="283.0"/>
      <point x="349.0" y="239.0"/>
      <point x="349.0" y="182.0" type="curve" smooth="yes"/>
      <point x="349.0" y="103.0"/>
      <point x="282.0" y="68.0"/>
      <point x="194.0" y="68.0" type="curve" smooth="yes"/>
      <point x="144.0" y="68.0"/>
      <point x="60.0" y="92.0"/>
      <point x="41.0" y="115.0" type="curve"/>
      <point x="14.0" y="37.0" type="line"/>
      <point x="40.0" y="14.0"/>
      <point x="129.0" y="-8.0"/>
    </contour>
  </outline>
</glyph>
<glyph name="T" format="2">
  <advance width="548.0"/>
  <unicode hex="0054"/>
  <note>
T
</note>
  <anchor x="237.0" y="0.0" name="bottom"/>
  <anchor x="287.0" y="374.0" name="center"/>
  <anchor x="336.0" y="747.0" name="top"/>
  <outline>
    <contour>
      <point x="186.0" y="0.0" type="line"/>
      <point x="283.0" y="0.0" type="line"/>
      <point x="368.0" y="676.0" type="line"/>
      <point x="573.0" y="670.0" type="line"/>
      <point x="583.0" y="747.0" type="line"/>
      <point x="74.0" y="747.0" type="line"/>
      <point x="63.0" y="670.0" type="line"/>
      <point x="271.0" y="676.0" type="line"/>
    </contour>
  </outline>
</glyph>
<glyph name="U" format="2">
  <advance width="666.0"/>
  <unicode hex="0055"/>
  <note>
U
</note>
  <anchor x="296.0" y="0.0" name="bottom"/>
  <anchor x="381.0" y="0.0" name="ogonek"/>
  <anchor x="400.0" y="747.0" name="top"/>
  <anchor x="708.0" y="747.0" name="topright"/>
  <outline>
    <contour>
      <point x="294.0" y="-8.0" type="curve" smooth="yes"/>
      <point x="407.0" y="-8.0"/>
      <point x="488.0" y="31.0"/>
      <point x="538.0" y="123.0" type="curve" smooth="yes"/>
      <point x="563.0" y="169.0"/>
      <point x="580.0" y="230.0"/>
      <point x="590.0" y="306.0" type="curve" smooth="yes"/>
      <point x="646.0" y="747.0" type="line"/>
      <point x="551.0" y="747.0" type="line"/>
      <point x="497.0" y="314.0" type="line" smooth="yes"/>
      <point x="474.0" y="143.0"/>
      <point x="415.0" y="71.0"/>
      <point x="308.0" y="71.0" type="curve" smooth="yes"/>
      <point x="219.0" y="71.0"/>
      <point x="170.0" y="121.0"/>
      <point x="170.0" y="220.0" type="curve" smooth="yes"/>
      <point x="170.0" y="240.0"/>
      <point x="172.0" y="269.0"/>
      <point x="176.0" y="307.0" type="curve" smooth="yes"/>
      <point x="232.0" y="747.0" type="line"/>
      <point x="135.0" y="747.0" type="line"/>
      <point x="78.0" y="290.0" type="line" smooth="yes"/>
      <point x="73.0" y="244.0"/>
      <point x="71.0" y="227.0"/>
      <point x="71.0" y="213.0" type="curve" smooth="yes"/>
      <point x="71.0" y="74.0"/>
      <point x="149.0" y="-8.0"/>
    </contour>
  </outline>
</glyph>
<glyph name="V" format="2">
  <advance width="571.0"/>
  <unicode hex="0056"/>
  <note>
V
</note>
  <anchor x="249.0" y="0.0" name="bottom"/>
  <anchor x="348.0" y="747.0" name="top"/>
  <outline>
    <contour>
      <point x="186.0" y="0.0" type="line"/>
      <point x="288.0" y="0.0" type="line"/>
      <point x="628.0" y="747.0" type="line"/>
      <point x="525.0" y="747.0" type="line"/>
      <point x="293.0" y="209.0" type="line"/>
      <point x="251.0" y="101.0" type="line"/>
      <point x="239.0" y="209.0" type="line"/>
      <point x="159.0" y="747.0" type="line"/>
      <point x="63.0" y="747.0" type="line"/>
    </contour>
  </outline>
</glyph>
<glyph name="W" format="2">
  <advance width="866.0"/>
  <unicode hex="0057"/>
  <note>
W
</note>
  <anchor x="396.0" y="0.0" name="bottom"/>
  <anchor x="495.0" y="747.0" name="top"/>
  <outline>
    <contour>
      <point x="175.0" y="-5.0" type="line"/>
      <point x="274.0" y="-5.0" type="line"/>
      <point x="436.0" y="415.0" type="line"/>
      <point x="463.0" y="500.0" type="line"/>
      <point x="469.0" y="415.0" type="line"/>
      <point x="516.0" y="-5.0" type="line"/>
      <point x="615.0" y="-5.0" type="line"/>
      <point x="922.0" y="747.0" type="line"/>
      <point x="824.0" y="747.0" type="line"/>
      <point x="621.0" y="212.0" type="line"/>
      <point x="584.0" y="107.0" type="line"/>
      <point x="577.0" y="213.0" type="line"/>
      <point x="521.0" y="747.0" type="line"/>
      <point x="428.0" y="747.0" type="line"/>
      <point x="439.0" y="641.0" type="line"/>
      <point x="272.0" y="212.0" type="line"/>
      <point x="242.0" y="107.0" type="line"/>
      <point x="227.0" y="213.0" type="line"/>
      <point x="158.0" y="747.0" type="line"/>
      <point x="62.0" y="747.0" type="line"/>
    </contour>
  </outline>
</glyph>
<glyph name="X" format="2">
  <advance width="571.825"/>
  <unicode hex="0058"/>
  <note>
X
</note>
  <anchor x="249.25" y="0.0" name="bottom"/>
  <anchor x="348.25" y="747.975" name="top"/>
  <outline>
    <contour>
      <point x="-32.25" y="0.0" type="line"/>
      <point x="97.425" y="0.0" type="line"/>
      <point x="284.575" y="295.85" type="line"/>
      <point x="401.675" y="0.0" type="line"/>
      <point x="525.35" y="0.0" type="line"/>
      <point x="356.35" y="366.375" type="line"/>
      <point x="619.0" y="747.0" type="line"/>
      <point x="497.0" y="747.0" type="line"/>
      <point x="312.525" y="463.45" type="line"/>
      <point x="204.75" y="747.0" type="line"/>
      <point x="85.075" y="747.0" type="line"/>
      <point x="241.075" y="388.3" type="line"/>
    </contour>
  </outline>
</glyph>
<glyph name="Y" format="2">
  <advance width="535.5"/>
  <unicode hex="0059"/>
  <note>
Y
</note>
  <anchor x="231.25" y="0.0" name="bottom"/>
  <anchor x="330.25" y="747.975" name="top"/>
  <anchor x="82.0" y="747.975" name="topleft"/>
  <outline>
    <contour>
      <point x="180.8" y="0.0" type="line"/>
      <point x="285.45" y="0.0" type="line"/>
      <point x="323.1" y="288.0" type="line"/>
      <point x="613.425" y="747.0" type="line"/>
      <point x="495.125" y="747.0" type="line"/>
      <point x="304.2" y="422.325" type="line"/>
      <point x="284.575" y="380.775" type="line"/>
      <point x="269.225" y="422.325" type="line"/>
      <point x="156.675" y="747.0" type="line"/>
      <point x="41.0" y="747.0" type="line"/>
      <point x="218.45" y="288.0" type="line"/>
    </contour>
  </outline>
</glyph>
<glyph name="Z" format="2">
  <advance width="565.0"/>
  <unicode hex="005A"/>
  <note>
Z
</note>
  <anchor x="246.0" y="0.0" name="bottom"/>
  <anchor x="296.0" y="374.0" name="center"/>
  <anchor x="355.0" y="747.0" name="top"/>
  <outline>
    <contour>
      <point x="21.0" y="0.0" type="line"/>
      <point x="490.0" y="0.0" type="line"/>
      <point x="503.0" y="83.0" type="line"/>
      <point x="136.0" y="77.0" type="line"/>
      <point x="197.0" y="148.0" type="line"/>
      <point x="578.0" y="705.0" type="line"/>
      <point x="565.0" y="747.0" type="line"/>
      <point x="127.0" y="747.0" type="line"/>
      <point x="116.0" y="665.0" type="line"/>
      <point x="453.0" y="672.0" type="line"/>
      <point x="388.0" y="594.0" type="line"/>
      <point x="7.0" y="43.0" type="line"/>
    </contour>
  </outline>
</glyph>
<glyph name="bracketleft" format="2">
  <advance width="360.0"/>
  <unicode hex="005B"/>
  <note>
bracketleft
</note>
  <outline>
    <contour>
      <point x="129.0" y="-93.0" type="curve" smooth="yes"/>
      <point x="154.0" y="-93.0"/>
      <point x="206.0" y="-86.0"/>
      <point x="262.0" y="-70.0" type="curve"/>
      <point x="267.0" y="-28.0" type="line"/>
      <point x="133.0" y="-28.0" type="line"/>
      <point x="242.0" y="782.0" type="line"/>
      <point x="376.0" y="782.0" type="line"/>
      <point x="382.0" y="824.0" type="line"/>
      <point x="363.0" y="830.0"/>
      <point x="285.0" y="847.0"/>
      <point x="255.0" y="847.0" type="curve" smooth="yes"/>
      <point x="176.0" y="847.0"/>
      <point x="154.0" y="814.0"/>
      <point x="143.0" y="724.0" type="curve" smooth="yes"/>
      <point x="47.0" y="31.0" type="line" smooth="yes"/>
      <point x="45.0" y="14.0"/>
      <point x="43.0" y="-4.0"/>
      <point x="43.0" y="-23.0" type="curve" smooth="yes"/>
      <point x="43.0" y="-77.0"/>
      <point x="69.0" y="-93.0"/>
    </contour>
  </outline>
</glyph>
<glyph name="bracketright" format="2">
  <advance width="360.0"/>
  <unicode hex="005D"/>
  <note>
bracketright
</note>
  <outline>
    <contour>
      <point x="257.0" y="847.0" type="curve" smooth="yes"/>
      <point x="232.0" y="847.0"/>
      <point x="180.0" y="840.0"/>
      <point x="124.0" y="824.0" type="curve"/>
      <point x="119.0" y="782.0" type="line"/>
      <point x="253.0" y="782.0" type="line"/>
      <point x="144.0" y="-28.0" type="line"/>
      <point x="10.0" y="-28.0" type="line"/>
      <point x="4.0" y="-70.0" type="line"/>
      <point x="23.0" y="-76.0"/>
      <point x="101.0" y="-93.0"/>
      <point x="131.0" y="-93.0" type="curve" smooth="yes"/>
      <point x="210.0" y="-93.0"/>
      <point x="232.0" y="-60.0"/>
      <point x="243.0" y="30.0" type="curve" smooth="yes"/>
      <point x="339.0" y="723.0" type="line" smooth="yes"/>
      <point x="341.0" y="740.0"/>
      <point x="343.0" y="758.0"/>
      <point x="343.0" y="777.0" type="curve" smooth="yes"/>
      <point x="343.0" y="831.0"/>
      <point x="317.0" y="847.0"/>
    </contour>
  </outline>
</glyph>
<glyph name="asciicircum" format="2">
  <advance width="666.0"/>
  <unicode hex="005E"/>
  <note>
asciicircum
</note>
  <outline>
    <contour>
      <point x="82.1" y="249.0" type="line"/>
      <point x="175.225" y="249.0" type="line"/>
      <point x="374.35" y="639.025" type="line"/>
      <point x="469.775" y="249.0" type="line"/>
      <point x="560.9" y="249.0" type="line"/>
      <point x="434.925" y="747.325" type="line"/>
      <point x="332.725" y="747.325" type="line"/>
    </contour>
  </outline>
</glyph>
<glyph name="underscore" format="2">
  <advance width="652.0"/>
  <unicode hex="005F"/>
  <note>
underscore
</note>
  <outline>
    <contour>
      <point x="-54.0" y="-168.9" type="line"/>
      <point x="619.0" y="-168.9" type="line"/>
      <point x="628.0" y="-91.0" type="line"/>
      <point x="-44.0" y="-91.0" type="line"/>
    </contour>
  </outline>
</glyph>
<glyph name="grave" format="2">
  <advance width="264.0"/>
  <unicode hex="0060"/>
  <note>
grave
</note>
  <anchor x="36.0" y="557.0" name="_top"/>
  <anchor x="67.0" y="792.0" name="top"/>
  <outline>
    <contour>
      <point x="208.0" y="616.0" type="curve"/>
      <point x="249.0" y="650.0" type="line"/>
      <point x="108.0" y="846.0" type="line"/>
      <point x="34.0" y="779.0" type="line"/>
      <point x="58.0" y="737.0"/>
      <point x="161.0" y="635.0"/>
    </contour>
  </outline>
</glyph>
<glyph name="a" format="2">
  <advance width="568.75"/>
  <unicode hex="0061"/>
  <note>
a
</note>
  <anchor x="247.875" y="0.0" name="bottom"/>
  <anchor x="469.85" y="10.0" name="ogonek"/>
  <anchor x="349.175" y="557.0" name="top"/>
  <outline>
    <contour>
      <point x="192.3" y="-8.0" type="curve" smooth="yes"/>
      <point x="263.625" y="-8.0"/>
      <point x="323.65" y="38.275"/>
      <point x="363.35" y="97.225" type="curve"/>
      <point x="355.675" y="0.0" type="line"/>
      <point x="451.375" y="0.0" type="line"/>
      <point x="528.7" y="564.0" type="line"/>
      <point x="467.175" y="547.025" type="line"/>
      <point x="433.525" y="556.675"/>
      <point x="388.525" y="564.0"/>
      <point x="355.225" y="564.0" type="curve" smooth="yes"/>
      <point x="163.625" y="564.0"/>
      <point x="39.025" y="399.3"/>
      <point x="39.025" y="202.675" type="curve" smooth="yes"/>
      <point x="39.025" y="71.975"/>
      <point x="89.7" y="-8.0"/>
    </contour>
    <contour>
      <point x="216.45" y="73.15" type="curve" smooth="yes"/>
      <point x="163.7" y="73.15"/>
      <point x="150.675" y="144.25"/>
      <point x="150.675" y="214.35" type="curve" smooth="yes"/>
      <point x="150.675" y="298.35"/>
      <point x="178.025" y="389.725"/>
      <point x="235.425" y="447.1" type="curve" smooth="yes"/>
      <point x="264.125" y="475.45"/>
      <point x="299.5" y="489.8"/>
      <point x="340.875" y="489.8" type="curve" smooth="yes"/>
      <point x="365.25" y="489.8"/>
      <point x="388.3" y="486.45"/>
      <point x="410.375" y="478.75" type="curve"/>
      <point x="371.3" y="203.925" type="line"/>
      <point x="333.575" y="135.35"/>
      <point x="279.575" y="73.15"/>
    </contour>
  </outline>
</glyph>
<glyph name="b" format="2">
  <advance width="568.0"/>
  <unicode hex="0062"/>
  <note>
b
</note>
  <anchor x="247.0" y="0.0" name="bottom"/>
  <anchor x="377.0" y="557.0" name="top"/>
  <outline>
    <contour>
      <point x="206.0" y="-8.0" type="curve" smooth="yes"/>
      <point x="345.0" y="-8.0"/>
      <point x="442.0" y="76.0"/>
      <point x="488.0" y="188.0" type="curve" smooth="yes"/>
      <point x="511.0" y="243.0"/>
      <point x="522.0" y="299.0"/>
      <point x="522.0" y="354.0" type="curve" smooth="yes"/>
      <point x="522.0" y="485.0"/>
      <point x="471.0" y="564.0"/>
      <point x="371.0" y="564.0" type="curve" smooth="yes"/>
      <point x="300.0" y="564.0"/>
      <point x="237.0" y="521.0"/>
      <point x="193.0" y="466.0" type="curve"/>
      <point x="211.0" y="560.0" type="line"/>
      <point x="238.0" y="800.0" type="line"/>
      <point x="147.0" y="800.0" type="line"/>
      <point x="41.0" y="-8.0" type="line"/>
      <point x="96.0" y="9.0" type="line"/>
      <point x="129.0" y="0.0"/>
      <point x="173.0" y="-8.0"/>
    </contour>
    <contour>
      <point x="221.0" y="62.0" type="curve" smooth="yes"/>
      <point x="194.0" y="62.0"/>
      <point x="169.0" y="66.0"/>
      <point x="146.0" y="74.0" type="curve"/>
      <point x="186.0" y="371.0" type="line"/>
      <point x="226.0" y="432.0"/>
      <point x="291.0" y="490.0"/>
      <point x="354.0" y="490.0" type="curve" smooth="yes"/>
      <point x="410.0" y="490.0"/>
      <point x="424.0" y="419.0"/>
      <point x="424.0" y="342.0" type="curve" smooth="yes"/>
      <point x="424.0" y="258.0"/>
      <point x="393.0" y="164.0"/>
      <point x="333.0" y="106.0" type="curve" smooth="yes"/>
      <point x="302.0" y="77.0"/>
      <point x="265.0" y="62.0"/>
    </contour>
  </outline>
</glyph>
<glyph name="c" format="2">
  <advance width="442.0"/>
  <unicode hex="0063"/>
  <note>
c
</note>
  <anchor x="225.0" y="0.0" name="bottom"/>
  <anchor x="321.0" y="557.0" name="top"/>
  <outline>
    <contour>
      <point x="226.0" y="-8.0" type="curve" smooth="yes"/>
      <point x="285.0" y="-8.0"/>
      <point x="374.0" y="45.0"/>
      <point x="400.0" y="81.0" type="curve"/>
      <point x="369.0" y="133.0" type="line"/>
      <point x="320.0" y="85.0"/>
      <point x="283.0" y="65.0"/>
      <point x="240.0" y="65.0" type="curve" smooth="yes"/>
      <point x="172.0" y="65.0"/>
      <point x="139.0" y="109.0"/>
      <point x="139.0" y="222.0" type="curve" smooth="yes"/>
      <point x="139.0" y="322.0"/>
      <point x="178.0" y="410.0"/>
      <point x="233.0" y="458.0" type="curve" smooth="yes"/>
      <point x="260.0" y="481.0"/>
      <point x="288.0" y="493.0"/>
      <point x="316.0" y="493.0" type="curve" smooth="yes"/>
      <point x="353.0" y="493.0"/>
      <point x="383.0" y="484.0"/>
      <point x="407.0" y="464.0" type="curve"/>
      <point x="432.0" y="546.0" type="line"/>
      <point x="407.0" y="559.0"/>
      <point x="365.0" y="564.0"/>
      <point x="325.0" y="564.0" type="curve" smooth="yes"/>
      <point x="206.0" y="564.0"/>
      <point x="118.0" y="484.0"/>
      <point x="75.0" y="375.0" type="curve" smooth="yes"/>
      <point x="53.0" y="320.0"/>
      <point x="42.0" y="266.0"/>
      <point x="42.0" y="212.0" type="curve" smooth="yes"/>
      <point x="42.0" y="72.0"/>
      <point x="106.0" y="-8.0"/>
    </contour>
  </outline>
</glyph>
<glyph name="d" format="2">
  <advance width="567.0"/>
  <unicode hex="0064"/>
  <note>
d
</note>
  <anchor x="247.0" y="0.0" name="bottom"/>
  <anchor x="284.0" y="279.0" name="center"/>
  <anchor x="265.0" y="557.0" name="top"/>
  <anchor x="584.0" y="557.0" name="topright"/>
  <outline>
    <contour>
      <point x="190.0" y="-8.0" type="curve" smooth="yes"/>
      <point x="261.0" y="-8.0"/>
      <point x="325.0" y="36.0"/>
      <point x="368.0" y="95.0" type="curve"/>
      <point x="360.0" y="0.0" type="line"/>
      <point x="445.0" y="0.0" type="line"/>
      <point x="553.0" y="800.0" type="line"/>
      <point x="458.0" y="800.0" type="line"/>
      <point x="425.0" y="557.0" type="line"/>
      <point x="399.0" y="562.0"/>
      <point x="376.0" y="564.0"/>
      <point x="355.0" y="564.0" type="curve" smooth="yes"/>
      <point x="216.0" y="564.0"/>
      <point x="120.0" y="481.0"/>
      <point x="74.0" y="370.0" type="curve" smooth="yes"/>
      <point x="51.0" y="314.0"/>
      <point x="39.0" y="258.0"/>
      <point x="39.0" y="203.0" type="curve" smooth="yes"/>
      <point x="39.0" y="71.0"/>
      <point x="90.0" y="-8.0"/>
    </contour>
    <contour>
      <point x="207.0" y="66.0" type="curve" smooth="yes"/>
      <point x="151.0" y="66.0"/>
      <point x="137.0" y="141.0"/>
      <point x="137.0" y="215.0" type="curve" smooth="yes"/>
      <point x="137.0" y="298.0"/>
      <point x="168.0" y="392.0"/>
      <point x="229.0" y="451.0" type="curve" smooth="yes"/>
      <point x="259.0" y="480.0"/>
      <point x="296.0" y="495.0"/>
      <point x="340.0" y="495.0" type="curve" smooth="yes"/>
      <point x="367.0" y="495.0"/>
      <point x="392.0" y="491.0"/>
      <point x="415.0" y="482.0" type="curve"/>
      <point x="375.0" y="190.0" type="line"/>
      <point x="334.0" y="126.0"/>
      <point x="270.0" y="66.0"/>
    </contour>
  </outline>
</glyph>
<glyph name="e" format="2">
  <advance width="505.0"/>
  <unicode hex="0065"/>
  <note>
e
</note>
  <anchor x="246.0" y="0.0" name="bottom"/>
  <anchor x="317.0" y="10.0" name="ogonek"/>
  <anchor x="330.0" y="557.0" name="top"/>
  <outline>
    <contour>
      <point x="234.0" y="-8.0" type="curve" smooth="yes"/>
      <point x="301.0" y="-8.0"/>
      <point x="404.0" y="49.0"/>
      <point x="434.0" y="91.0" type="curve"/>
      <point x="407.0" y="145.0" type="line"/>
      <point x="352.0" y="93.0"/>
      <point x="296.0" y="67.0"/>
      <point x="245.0" y="67.0" type="curve" smooth="yes"/>
      <point x="169.0" y="67.0"/>
      <point x="142.0" y="125.0"/>
      <point x="142.0" y="194.0" type="curve"/>
      <point x="142.0" y="199.0"/>
      <point x="142.0" y="203.0"/>
      <point x="142.0" y="208.0" type="curve"/>
      <point x="291.0" y="216.0"/>
      <point x="468.0" y="298.0"/>
      <point x="468.0" y="442.0" type="curve" smooth="yes"/>
      <point x="468.0" y="499.0"/>
      <point x="421.0" y="564.0"/>
      <point x="334.0" y="564.0" type="curve" smooth="yes"/>
      <point x="222.0" y="564.0"/>
      <point x="132.0" y="498.0"/>
      <point x="82.0" y="391.0" type="curve" smooth="yes"/>
      <point x="57.0" y="337.0"/>
      <point x="43.0" y="277.0"/>
      <point x="42.0" y="212.0" type="curve" smooth="yes"/>
      <point x="41.0" y="133.0"/>
      <point x="67.0" y="64.0"/>
      <point x="125.0" y="23.0" type="curve" smooth="yes"/>
      <point x="154.0" y="2.0"/>
      <point x="190.0" y="-8.0"/>
    </contour>
    <contour>
      <point x="145.0" y="275.0" type="curve"/>
      <point x="152.0" y="338.0"/>
      <point x="182.0" y="412.0"/>
      <point x="231.0" y="458.0" type="curve" smooth="yes"/>
      <point x="255.0" y="481.0"/>
      <point x="282.0" y="492.0"/>
      <point x="313.0" y="492.0" type="curve" smooth="yes"/>
      <point x="352.0" y="492.0"/>
      <point x="373.0" y="475.0"/>
      <point x="373.0" y="434.0" type="curve" smooth="yes"/>
      <point x="373.0" y="348.0"/>
      <point x="241.0" y="278.0"/>
    </contour>
  </outline>
</glyph>
<glyph name="f" format="2">
  <advance width="339.0"/>
  <unicode hex="0066"/>
  <note>
f
</note>
  <anchor x="133.0" y="0.0" name="bottom"/>
  <anchor x="263.0" y="747.0" name="top"/>
  <outline>
    <contour>
      <point x="72.0" y="0.0" type="line"/>
      <point x="167.0" y="0.0" type="line"/>
      <point x="232.0" y="480.0" type="line"/>
      <point x="340.0" y="480.0" type="line"/>
      <point x="346.0" y="557.0" type="line"/>
      <point x="243.0" y="557.0" type="line"/>
      <point x="253.0" y="630.0" type="line" smooth="yes"/>
      <point x="261.0" y="695.0"/>
      <point x="296.0" y="746.0"/>
      <point x="348.0" y="746.0" type="curve"/>
      <point x="379.0" y="747.0"/>
      <point x="395.0" y="741.0"/>
      <point x="408.0" y="730.0" type="curve"/>
      <point x="433.0" y="808.0" type="line"/>
      <point x="412.0" y="817.0"/>
      <point x="388.0" y="821.0"/>
      <point x="360.0" y="821.0" type="curve" smooth="yes"/>
      <point x="286.0" y="821.0"/>
      <point x="231.0" y="787.0"/>
      <point x="195.0" y="728.0" type="curve" smooth="yes"/>
      <point x="175.0" y="694.0"/>
      <point x="161.0" y="652.0"/>
      <point x="154.0" y="603.0" type="curve" smooth="yes"/>
      <point x="147.0" y="557.0" type="line"/>
      <point x="83.0" y="557.0" type="line"/>
      <point x="69.0" y="480.0" type="line"/>
      <point x="137.0" y="480.0" type="line"/>
    </contour>
  </outline>
</glyph>
<glyph name="g" format="2">
  <advance width="565.0"/>
  <unicode hex="0067"/>
  <note>
g
</note>
  <anchor x="210.0" y="-273.0" name="bottom"/>
  <anchor x="354.0" y="557.0" name="top"/>
  <outline>
    <contour>
      <point x="190.0" y="-246.0" type="curve" smooth="yes"/>
      <point x="262.0" y="-246.0"/>
      <point x="336.0" y="-223.0"/>
      <point x="389.0" y="-163.0" type="curve" smooth="yes"/>
      <point x="415.0" y="-133.0"/>
      <point x="432.0" y="-94.0"/>
      <point x="439.0" y="-45.0" type="curve" smooth="yes"/>
      <point x="522.0" y="564.0" type="line"/>
      <point x="466.0" y="548.0" type="line"/>
      <point x="431.0" y="557.0"/>
      <point x="388.0" y="564.0"/>
      <point x="355.0" y="564.0" type="curve" smooth="yes"/>
      <point x="216.0" y="564.0"/>
      <point x="120.0" y="481.0"/>
      <point x="74.0" y="370.0" type="curve" smooth="yes"/>
      <point x="51.0" y="314.0"/>
      <point x="39.0" y="258.0"/>
      <point x="39.0" y="203.0" type="curve" smooth="yes"/>
      <point x="39.0" y="71.0"/>
      <point x="90.0" y="-8.0"/>
      <point x="190.0" y="-8.0" type="curve" smooth="yes"/>
      <point x="261.0" y="-8.0"/>
      <point x="324.0" y="37.0"/>
      <point x="367.0" y="93.0" type="curve"/>
      <point x="343.0" y="-47.0" type="line" smooth="yes"/>
      <point x="327.0" y="-131.0"/>
      <point x="289.0" y="-174.0"/>
      <point x="209.0" y="-174.0" type="curve" smooth="yes"/>
      <point x="162.0" y="-174.0"/>
      <point x="114.0" y="-163.0"/>
      <point x="83.0" y="-148.0" type="curve"/>
      <point x="59.0" y="-229.0" type="line"/>
      <point x="79.0" y="-237.0"/>
      <point x="147.0" y="-246.0"/>
    </contour>
    <contour>
      <point x="207.0" y="66.0" type="curve" smooth="yes"/>
      <point x="151.0" y="66.0"/>
      <point x="137.0" y="141.0"/>
      <point x="137.0" y="215.0" type="curve" smooth="yes"/>
      <point x="137.0" y="298.0"/>
      <point x="168.0" y="392.0"/>
      <point x="229.0" y="451.0" type="curve" smooth="yes"/>
      <point x="259.0" y="480.0"/>
      <point x="296.0" y="495.0"/>
      <point x="340.0" y="495.0" type="curve" smooth="yes"/>
      <point x="367.0" y="495.0"/>
      <point x="392.0" y="491.0"/>
      <point x="415.0" y="483.0" type="curve"/>
      <point x="373.0" y="187.0" type="line"/>
      <point x="332.0" y="123.0"/>
      <point x="268.0" y="66.0"/>
    </contour>
  </outline>
</glyph>
<glyph name="h" format="2">
  <advance width="594.1"/>
  <unicode hex="0068"/>
  <note>
h
</note>
  <anchor x="260.55" y="0.0" name="bottom"/>
  <anchor x="325.55" y="492.0" name="center"/>
  <anchor x="196.2" y="758.0" name="top"/>
  <outline>
    <contour>
      <point x="42.35" y="0.0" type="line"/>
      <point x="149.375" y="0.0" type="line"/>
      <point x="197.375" y="350.35" type="line"/>
      <point x="234.75" y="400.65"/>
      <point x="322.675" y="469.175"/>
      <point x="372.375" y="469.175" type="curve" smooth="yes"/>
      <point x="406.75" y="469.175"/>
      <point x="421.425" y="457.175"/>
      <point x="421.425" y="412.775" type="curve" smooth="yes"/>
      <point x="421.425" y="388.65"/>
      <point x="416.375" y="347.375"/>
      <point x="407.3" y="282.525" type="curve" smooth="yes"/>
      <point x="393.225" y="186.825"/>
      <point x="383.85" y="126.2"/>
      <point x="366.725" y="0.0" type="curve"/>
      <point x="475.4" y="0.0" type="line"/>
      <point x="512.875" y="246.175"/>
      <point x="532.075" y="388.375"/>
      <point x="532.075" y="422.025" type="curve" smooth="yes"/>
      <point x="532.075" y="523.0"/>
      <point x="495.125" y="564.0"/>
      <point x="419.525" y="564.0" type="curve" smooth="yes"/>
      <point x="343.175" y="564.0"/>
      <point x="263.1" y="515.65"/>
      <point x="206.375" y="445.3" type="curve"/>
      <point x="224.725" y="559.175" type="line"/>
      <point x="252.35" y="799.675" type="line"/>
      <point x="145.0" y="799.675" type="line"/>
    </contour>
  </outline>
</glyph>
<glyph name="k" format="2">
  <advance width="522.95"/>
  <unicode hex="006B"/>
  <note>
k
</note>
  <anchor x="224.475" y="0.0" name="bottom"/>
  <anchor x="354.475" y="983.0" name="top"/>
  <outline>
    <contour>
      <point x="42.35" y="0.0" type="line"/>
      <point x="149.375" y="0.0" type="line"/>
      <point x="252.35" y="799.675" type="line"/>
      <point x="145.0" y="799.675" type="line"/>
    </contour>
    <contour>
      <point x="372.6" y="1.675" type="line"/>
      <point x="497.225" y="1.675" type="line"/>
      <point x="323.15" y="294.95" type="line"/>
      <point x="415.2" y="342.675"/>
      <point x="516.625" y="456.225"/>
      <point x="525.65" y="557.0" type="curve"/>
      <point x="421.325" y="557.0" type="line"/>
      <point x="388.575" y="461.875"/>
      <point x="300.85" y="361.725"/>
      <point x="207.375" y="309.675" type="curve"/>
    </contour>
  </outline>
</glyph>
<glyph name="l" format="2">
  <advance width="291.5"/>
  <unicode hex="006C"/>
  <note>
l
</note>
  <anchor x="114.9" y="0.0" name="bottom"/>
  <anchor x="174.25" y="492.0" name="center"/>
  <anchor x="215.575" y="778.0" name="top"/>
  <anchor x="336.75" y="711.0" name="topright"/>
  <outline>
    <contour>
      <point x="57.75" y="1.675" type="line"/>
      <point x="165.75" y="1.675" type="line"/>
      <point x="274.425" y="799.675" type="line"/>
      <point x="166.425" y="799.675" type="line"/>
    </contour>
  </outline>
</glyph>
<glyph name="m" format="2">
  <advance width="879.6"/>
  <unicode hex="006D"/>
  <note>
m
</note>
  <anchor x="402.8" y="0.0" name="bottom"/>
  <anchor x="476.8" y="557.0" name="top"/>
  <outline>
    <contour>
      <point x="40.35" y="1.675" type="line"/>
      <point x="148.35" y="1.675" type="line"/>
      <point x="196.35" y="352.025" type="line"/>
      <point x="232.0" y="404.6"/>
      <point x="312.225" y="469.175"/>
      <point x="357.275" y="469.175" type="curve" smooth="yes"/>
      <point x="392.325" y="469.175"/>
      <point x="407.0" y="456.5"/>
      <point x="407.0" y="412.775" type="curve" smooth="yes"/>
      <point x="407.0" y="395.325"/>
      <point x="401.0" y="344.0"/>
      <point x="393.325" y="283.7" type="curve" smooth="yes"/>
      <point x="378.65" y="173.475"/>
      <point x="357.65" y="31.375"/>
      <point x="353.3" y="1.675" type="curve"/>
      <point x="461.3" y="1.675" type="line"/>
      <point x="477.625" y="109.55"/>
      <point x="487.95" y="176.15"/>
      <point x="501.225" y="273.425" type="curve" smooth="yes"/>
      <point x="507.6" y="315.7"/>
      <point x="511.975" y="349.925"/>
      <point x="514.325" y="375.425" type="curve"/>
      <point x="559.4" y="429.8"/>
      <point x="618.5" y="469.175"/>
      <point x="658.2" y="469.175" type="curve" smooth="yes"/>
      <point x="693.925" y="469.175"/>
      <point x="707.925" y="457.175"/>
      <point x="707.925" y="412.775" type="curve" smooth="yes"/>
      <point x="707.925" y="388.65"/>
      <point x="702.875" y="347.375"/>
      <point x="693.8" y="282.525" type="curve" smooth="yes"/>
      <point x="673.85" y="142.15"/>
      <point x="663.45" y="77.275"/>
      <point x="653.55" y="1.675" type="curve"/>
      <point x="761.9" y="1.675" type="line"/>
      <point x="778.875" y="111.825"/>
      <point x="789.2" y="180.05"/>
      <point x="798.575" y="250.675" type="curve" smooth="yes"/>
      <point x="811.575" y="341.675"/>
      <point x="818.575" y="398.35"/>
      <point x="818.575" y="422.025" type="curve" smooth="yes"/>
      <point x="818.575" y="523.0"/>
      <point x="782.625" y="564.0"/>
      <point x="706.0" y="564.0" type="curve" smooth="yes"/>
      <point x="639.7" y="564.0"/>
      <point x="569.35" y="523.0"/>
      <point x="515.65" y="460.7" type="curve"/>
      <point x="507.325" y="533.675"/>
      <point x="470.025" y="564.0"/>
      <point x="405.075" y="564.0" type="curve" smooth="yes"/>
      <point x="335.425" y="564.0"/>
      <point x="262.725" y="519.65"/>
      <point x="209.675" y="453.3" type="curve"/>
      <point x="219.025" y="557.0" type="line"/>
      <point x="115.675" y="557.0" type="line"/>
    </contour>
  </outline>
</glyph>
<glyph name="n" format="2">
  <advance width="593.075"/>
  <unicode hex="006E"/>
  <note>
n
</note>
  <anchor x="259.875" y="0.0" name="bottom"/>
  <anchor x="333.875" y="557.0" name="top"/>
  <outline>
    <contour>
      <point x="39.675" y="0.0" type="line"/>
      <point x="147.675" y="0.0" type="line"/>
      <point x="195.35" y="348.35" type="line"/>
      <point x="234.05" y="400.325"/>
      <point x="320.975" y="469.175"/>
      <point x="371.35" y="469.175" type="curve" smooth="yes"/>
      <point x="407.075" y="469.175"/>
      <point x="420.725" y="457.175"/>
      <point x="420.725" y="412.775" type="curve" smooth="yes"/>
      <point x="420.725" y="385.075"/>
      <point x="414.725" y="333.4"/>
      <point x="402.375" y="250.675" type="curve" smooth="yes"/>
      <point x="382.2" y="115.225"/>
      <point x="370.0" y="29.825"/>
      <point x="366.025" y="0.0" type="curve"/>
      <point x="474.7" y="0.0" type="line"/>
      <point x="498.05" y="146.0"/>
      <point x="507.05" y="208.975"/>
      <point x="512.05" y="250.675" type="curve"/>
      <point x="525.05" y="341.675"/>
      <point x="532.05" y="398.35"/>
      <point x="532.05" y="422.025" type="curve" smooth="yes"/>
      <point x="532.05" y="523.0"/>
      <point x="494.425" y="564.0"/>
      <point x="418.825" y="564.0" type="curve" smooth="yes"/>
      <point x="343.15" y="564.0"/>
      <point x="266.075" y="517.3"/>
      <point x="208.675" y="448.95" type="curve"/>
      <point x="218.7" y="557.0" type="line"/>
      <point x="115.675" y="557.0" type="line"/>
    </contour>
  </outline>
</glyph>
<glyph name="o" format="2">
  <advance width="554.0"/>
  <unicode hex="006F"/>
  <note>
o
</note>
  <anchor x="240.0" y="0.0" name="bottom"/>
  <anchor x="277.0" y="279.0" name="center"/>
  <anchor x="324.0" y="10.0" name="ogonek"/>
  <anchor x="324.0" y="557.0" name="top"/>
  <anchor x="571.0" y="557.0" name="topright"/>
  <outline>
    <contour>
      <point x="234.0" y="-8.0" type="curve" smooth="yes"/>
      <point x="339.0" y="-8.0"/>
      <point x="426.0" y="62.0"/>
      <point x="473.0" y="167.0" type="curve" smooth="yes"/>
      <point x="496.0" y="219.0"/>
      <point x="508.0" y="274.0"/>
      <point x="508.0" y="333.0" type="curve" smooth="yes"/>
      <point x="508.0" y="481.0"/>
      <point x="447.0" y="564.0"/>
      <point x="323.0" y="564.0" type="curve" smooth="yes"/>
      <point x="218.0" y="564.0"/>
      <point x="128.0" y="494.0"/>
      <point x="80.0" y="390.0" type="curve" smooth="yes"/>
      <point x="55.0" y="337.0"/>
      <point x="43.0" y="282.0"/>
      <point x="43.0" y="224.0" type="curve" smooth="yes"/>
      <point x="43.0" y="76.0"/>
      <point x="110.0" y="-8.0"/>
    </contour>
    <contour>
      <point x="249.0" y="64.0" type="curve" smooth="yes"/>
      <point x="177.0" y="64.0"/>
      <point x="143.0" y="122.0"/>
      <point x="143.0" y="226.0" type="curve" smooth="yes"/>
      <point x="143.0" y="345.0"/>
      <point x="197.0" y="493.0"/>
      <point x="308.0" y="493.0" type="curve" smooth="yes"/>
      <point x="379.0" y="493.0"/>
      <point x="408.0" y="438.0"/>
      <point x="408.0" y="331.0" type="curve" smooth="yes"/>
      <point x="408.0" y="208.0"/>
      <point x="356.0" y="64.0"/>
    </contour>
  </outline>
</glyph>
<glyph name="p" format="2">
  <advance width="571.0"/>
  <unicode hex="0070"/>
  <note>
p
</note>
  <anchor x="249.0" y="0.0" name="bottom"/>
  <anchor x="323.0" y="557.0" name="top"/>
  <outline>
    <contour>
      <point x="7.0" y="-250.0" type="line"/>
      <point x="103.0" y="-250.0" type="line"/>
      <point x="136.0" y="0.0" type="line"/>
      <point x="162.0" y="-5.0"/>
      <point x="185.0" y="-8.0"/>
      <point x="205.0" y="-8.0" type="curve" smooth="yes"/>
      <point x="344.0" y="-8.0"/>
      <point x="441.0" y="76.0"/>
      <point x="487.0" y="188.0" type="curve" smooth="yes"/>
      <point x="510.0" y="243.0"/>
      <point x="521.0" y="299.0"/>
      <point x="521.0" y="354.0" type="curve" smooth="yes"/>
      <point x="521.0" y="485.0"/>
      <point x="470.0" y="564.0"/>
      <point x="370.0" y="564.0" type="curve" smooth="yes"/>
      <point x="298.0" y="564.0"/>
      <point x="235.0" y="521.0"/>
      <point x="192.0" y="465.0" type="curve"/>
      <point x="200.0" y="557.0" type="line"/>
      <point x="115.0" y="557.0" type="line"/>
    </contour>
    <contour>
      <point x="220.0" y="62.0" type="curve" smooth="yes"/>
      <point x="193.0" y="62.0"/>
      <point x="169.0" y="66.0"/>
      <point x="146.0" y="74.0" type="curve"/>
      <point x="185.0" y="371.0" type="line"/>
      <point x="225.0" y="432.0"/>
      <point x="290.0" y="490.0"/>
      <point x="353.0" y="490.0" type="curve" smooth="yes"/>
      <point x="409.0" y="490.0"/>
      <point x="423.0" y="419.0"/>
      <point x="423.0" y="342.0" type="curve" smooth="yes"/>
      <point x="423.0" y="258.0"/>
      <point x="392.0" y="164.0"/>
      <point x="332.0" y="106.0" type="curve" smooth="yes"/>
      <point x="301.0" y="77.0"/>
      <point x="264.0" y="62.0"/>
    </contour>
  </outline>
</glyph>
<glyph name="q" format="2">
  <advance width="575.425"/>
  <unicode hex="0071"/>
  <note>
q
</note>
  <anchor x="250.875" y="0.0" name="bottom"/>
  <anchor x="324.875" y="557.0" name="top"/>
  <outline>
    <contour>
      <point x="316.025" y="-246.025" type="line"/>
      <point x="423.375" y="-246.025" type="line"/>
      <point x="531.375" y="566.675" type="line"/>
      <point x="466.15" y="548.7" type="line"/>
      <point x="433.15" y="557.675"/>
      <point x="391.2" y="564.0"/>
      <point x="358.575" y="564.0" type="curve" smooth="yes"/>
      <point x="165.975" y="564.0"/>
      <point x="38.35" y="399.3"/>
      <point x="38.35" y="202.675" type="curve" smooth="yes"/>
      <point x="38.35" y="71.975"/>
      <point x="88.7" y="-8.0"/>
      <point x="191.3" y="-8.0" type="curve" smooth="yes"/>
      <point x="263.6" y="-8.0"/>
      <point x="324.975" y="39.6"/>
      <point x="366.675" y="98.525" type="curve"/>
      <point x="349.025" y="1.675" type="line"/>
    </contour>
    <contour>
      <point x="215.45" y="73.475" type="curve" smooth="yes"/>
      <point x="165.625" y="73.475"/>
      <point x="150.0" y="137.425"/>
      <point x="150.0" y="214.35" type="curve" smooth="yes"/>
      <point x="150.0" y="343.075"/>
      <point x="218.8" y="489.8"/>
      <point x="344.225" y="489.8" type="curve" smooth="yes"/>
      <point x="367.6" y="489.8"/>
      <point x="390.325" y="486.45"/>
      <point x="411.05" y="479.75" type="curve"/>
      <point x="373.65" y="202.275" type="line"/>
      <point x="332.925" y="134.375"/>
      <point x="273.525" y="73.475"/>
    </contour>
  </outline>
</glyph>
<glyph name="r" format="2">
  <advance width="384.0"/>
  <unicode hex="0072"/>
  <note>
r
</note>
  <anchor x="87.0" y="0.0" name="bottom"/>
  <anchor x="269.0" y="557.0" name="top"/>
  <outline>
    <contour>
      <point x="40.0" y="0.0" type="line"/>
      <point x="135.0" y="0.0" type="line"/>
      <point x="180.0" y="329.0" type="line"/>
      <point x="208.0" y="390.0"/>
      <point x="261.0" y="463.0"/>
      <point x="329.0" y="463.0" type="curve" smooth="yes"/>
      <point x="352.0" y="463.0"/>
      <point x="367.0" y="461.0"/>
      <point x="376.0" y="457.0" type="curve"/>
      <point x="398.0" y="558.0" type="line"/>
      <point x="394.0" y="562.0"/>
      <point x="384.0" y="564.0"/>
      <point x="368.0" y="564.0" type="curve" smooth="yes"/>
      <point x="285.0" y="564.0"/>
      <point x="224.0" y="500.0"/>
      <point x="197.0" y="458.0" type="curve"/>
      <point x="207.0" y="557.0" type="line"/>
      <point x="116.0" y="557.0" type="line"/>
    </contour>
  </outline>
</glyph>
<glyph name="s" format="2">
  <advance width="426.0"/>
  <unicode hex="0073"/>
  <note>
s
</note>
  <anchor x="170.0" y="0.0" name="bottom"/>
  <anchor x="269.0" y="557.0" name="top"/>
  <outline>
    <contour>
      <point x="165.0" y="-8.0" type="curve" smooth="yes"/>
      <point x="271.0" y="-8.0"/>
      <point x="357.0" y="39.0"/>
      <point x="357.0" y="144.0" type="curve" smooth="yes"/>
      <point x="357.0" y="205.0"/>
      <point x="306.0" y="268.0"/>
      <point x="250.0" y="310.0" type="curve" smooth="yes"/>
      <point x="204.0" y="344.0"/>
      <point x="173.0" y="374.0"/>
      <point x="173.0" y="424.0" type="curve" smooth="yes"/>
      <point x="173.0" y="469.0"/>
      <point x="214.0" y="493.0"/>
      <point x="269.0" y="493.0" type="curve" smooth="yes"/>
      <point x="314.0" y="493.0"/>
      <point x="360.0" y="475.0"/>
      <point x="375.0" y="456.0" type="curve"/>
      <point x="394.0" y="545.0" type="line"/>
      <point x="373.0" y="554.0"/>
      <point x="325.0" y="564.0"/>
      <point x="269.0" y="564.0" type="curve" smooth="yes"/>
      <point x="168.0" y="564.0"/>
      <point x="83.0" y="513.0"/>
      <point x="83.0" y="412.0" type="curve" smooth="yes"/>
      <point x="83.0" y="338.0"/>
      <point x="128.0" y="294.0"/>
      <point x="188.0" y="246.0" type="curve" smooth="yes"/>
      <point x="250.0" y="197.0"/>
      <point x="266.0" y="172.0"/>
      <point x="266.0" y="133.0" type="curve" smooth="yes"/>
      <point x="266.0" y="84.0"/>
      <point x="223.0" y="64.0"/>
      <point x="170.0" y="64.0" type="curve" smooth="yes"/>
      <point x="124.0" y="64.0"/>
      <point x="81.0" y="77.0"/>
      <point x="40.0" y="104.0" type="curve"/>
      <point x="21.0" y="21.0" type="line"/>
      <point x="40.0" y="6.0"/>
      <point x="104.0" y="-8.0"/>
    </contour>
  </outline>
</glyph>
<glyph name="t" format="2">
  <advance width="362.0"/>
  <unicode hex="0074"/>
  <note>
t
</note>
  <anchor x="144.0" y="0.0" name="bottom"/>
  <anchor x="181.0" y="279.0" name="center"/>
  <anchor x="211.0" y="653.0" name="top"/>
  <anchor x="379.0" y="557.0" name="topright"/>
  <outline>
    <contour>
      <point x="164.0" y="-8.0" type="curve" smooth="yes"/>
      <point x="211.0" y="-8.0"/>
      <point x="294.0" y="31.0"/>
      <point x="317.0" y="63.0" type="curve"/>
      <point x="305.0" y="116.0" type="line"/>
      <point x="281.0" y="97.0"/>
      <point x="224.0" y="68.0"/>
      <point x="201.0" y="68.0" type="curve" smooth="yes"/>
      <point x="180.0" y="68.0"/>
      <point x="174.0" y="89.0"/>
      <point x="174.0" y="121.0" type="curve" smooth="yes"/>
      <point x="174.0" y="137.0"/>
      <point x="185.0" y="222.0"/>
      <point x="219.0" y="480.0" type="curve"/>
      <point x="347.0" y="480.0" type="line"/>
      <point x="358.0" y="557.0" type="line"/>
      <point x="230.0" y="557.0" type="line"/>
      <point x="248.0" y="693.0" type="line"/>
      <point x="167.0" y="693.0" type="line"/>
      <point x="137.0" y="557.0" type="line"/>
      <point x="85.0" y="557.0" type="line"/>
      <point x="65.0" y="480.0" type="line"/>
      <point x="122.0" y="480.0" type="line"/>
      <point x="81.0" y="145.0" type="line" smooth="yes"/>
      <point x="77.0" y="115.0"/>
      <point x="75.0" y="93.0"/>
      <point x="75.0" y="80.0" type="curve" smooth="yes"/>
      <point x="75.0" y="17.0"/>
      <point x="111.0" y="-8.0"/>
    </contour>
  </outline>
</glyph>
<glyph name="u" format="2">
  <advance width="582.425"/>
  <unicode hex="0075"/>
  <note>
u
</note>
  <anchor x="254.55" y="0.0" name="bottom"/>
  <anchor x="485.5" y="10.0" name="ogonek"/>
  <anchor x="321.475" y="557.0" name="top"/>
  <anchor x="599.425" y="557.0" name="topright"/>
  <outline>
    <contour>
      <point x="180.925" y="-10.0" type="curve" smooth="yes"/>
      <point x="255.275" y="-10.0"/>
      <point x="324.65" y="36.675"/>
      <point x="375.7" y="104.05" type="curve"/>
      <point x="366.0" y="0.0" type="line"/>
      <point x="465.725" y="0.0" type="line"/>
      <point x="540.05" y="557.0" type="line"/>
      <point x="432.05" y="557.0" type="line"/>
      <point x="384.725" y="202.65" type="line"/>
      <point x="339.65" y="134.225"/>
      <point x="272.5" y="80.5"/>
      <point x="222.75" y="80.5" type="curve" smooth="yes"/>
      <point x="180.3" y="80.5"/>
      <point x="161.95" y="95.825"/>
      <point x="161.95" y="141.9" type="curve" smooth="yes"/>
      <point x="161.95" y="164.225"/>
      <point x="165.275" y="200.2"/>
      <point x="171.6" y="250.15" type="curve" smooth="yes"/>
      <point x="179.675" y="313.025"/>
      <point x="209.0" y="525.525"/>
      <point x="213.975" y="557.0" type="curve"/>
      <point x="105.625" y="557.0" type="line"/>
      <point x="91.875" y="462.425"/>
      <point x="74.275" y="337.95"/>
      <point x="62.6" y="250.8" type="curve" smooth="yes"/>
      <point x="55.6" y="193.575"/>
      <point x="51.625" y="151.05"/>
      <point x="51.625" y="130.375" type="curve" smooth="yes"/>
      <point x="51.625" y="31.675"/>
      <point x="94.225" y="-10.0"/>
    </contour>
  </outline>
</glyph>
<glyph name="v" format="2">
  <advance width="492.0"/>
  <unicode hex="0076"/>
  <note>
v
</note>
  <anchor x="209.0" y="0.0" name="bottom"/>
  <anchor x="283.0" y="557.0" name="top"/>
  <outline>
    <contour>
      <point x="132.0" y="-8.0" type="line"/>
      <point x="217.0" y="-2.0" type="line"/>
      <point x="371.0" y="160.0"/>
      <point x="469.0" y="302.0"/>
      <point x="485.0" y="491.0" type="curve" smooth="yes"/>
      <point x="486.0" y="503.0"/>
      <point x="486.0" y="543.0"/>
      <point x="485.0" y="557.0" type="curve"/>
      <point x="395.0" y="557.0" type="line"/>
      <point x="395.0" y="524.0"/>
      <point x="385.0" y="453.0"/>
      <point x="376.0" y="417.0" type="curve" smooth="yes"/>
      <point x="352.0" y="317.0"/>
      <point x="307.0" y="220.0"/>
      <point x="237.0" y="128.0" type="curve" smooth="yes"/>
      <point x="195.0" y="73.0" type="line"/>
      <point x="189.0" y="175.0" type="line"/>
      <point x="156.0" y="557.0" type="line"/>
      <point x="50.0" y="557.0" type="line"/>
      <point x="104.0" y="175.0" type="line"/>
    </contour>
  </outline>
</glyph>
<glyph name="w" format="2">
  <advance width="812.0"/>
  <unicode hex="0077"/>
  <note>
w
</note>
  <anchor x="369.0" y="0.0" name="bottom"/>
  <anchor x="443.0" y="557.0" name="top"/>
  <outline>
    <contour>
      <point x="137.0" y="-6.0" type="line"/>
      <point x="222.0" y="-2.0" type="line"/>
      <point x="314.0" y="100.0"/>
      <point x="367.0" y="195.0"/>
      <point x="406.0" y="289.0" type="curve"/>
      <point x="422.0" y="175.0" type="line"/>
      <point x="451.0" y="-6.0" type="line"/>
      <point x="536.0" y="-2.0" type="line"/>
      <point x="709.0" y="208.0"/>
      <point x="783.0" y="339.0"/>
      <point x="792.0" y="500.0" type="curve" smooth="yes"/>
      <point x="793.0" y="512.0"/>
      <point x="794.0" y="544.0"/>
      <point x="794.0" y="557.0" type="curve"/>
      <point x="699.0" y="557.0" type="line"/>
      <point x="699.0" y="526.0"/>
      <point x="699.0" y="477.0"/>
      <point x="690.0" y="429.0" type="curve" smooth="yes"/>
      <point x="670.0" y="324.0"/>
      <point x="641.0" y="265.0"/>
      <point x="578.0" y="164.0" type="curve" smooth="yes"/>
      <point x="514.0" y="75.0" type="line"/>
      <point x="505.0" y="175.0" type="line"/>
      <point x="473.0" y="557.0" type="line"/>
      <point x="368.0" y="557.0" type="line"/>
      <point x="384.0" y="448.0" type="line"/>
      <point x="363.0" y="344.0"/>
      <point x="323.0" y="262.0"/>
      <point x="264.0" y="167.0" type="curve" smooth="yes"/>
      <point x="199.0" y="75.0" type="line"/>
      <point x="194.0" y="175.0" type="line"/>
      <point x="159.0" y="557.0" type="line"/>
      <point x="53.0" y="557.0" type="line"/>
      <point x="108.0" y="175.0" type="line"/>
    </contour>
  </outline>
</glyph>
<glyph name="x" format="2">
  <advance width="465.0"/>
  <unicode hex="0078"/>
  <note>
x
</note>
  <anchor x="196.0" y="0.0" name="bottom"/>
  <anchor x="270.0" y="557.0" name="top"/>
  <outline>
    <contour>
      <point x="-26.0" y="2.0" type="line"/>
      <point x="76.0" y="2.0" type="line"/>
      <point x="213.0" y="212.0" type="line"/>
      <point x="295.0" y="2.0" type="line"/>
      <point x="407.0" y="2.0" type="line"/>
      <point x="273.0" y="277.0" type="line"/>
      <point x="479.0" y="557.0" type="line"/>
      <point x="375.0" y="557.0" type="line"/>
      <point x="242.0" y="356.0" type="line"/>
      <point x="172.0" y="557.0" type="line"/>
      <point x="58.0" y="557.0" type="line"/>
      <point x="182.0" y="289.0" type="line"/>
    </contour>
  </outline>
</glyph>
<glyph name="y" format="2">
  <advance width="513.0"/>
  <unicode hex="0079"/>
  <note>
y
</note>
  <anchor x="367.0" y="0.0" name="bottom"/>
  <anchor x="274.0" y="557.0" name="top"/>
  <outline>
    <contour>
      <point x="-26.0" y="-245.0" type="curve" smooth="yes"/>
      <point x="58.0" y="-245.0"/>
      <point x="123.0" y="-207.0"/>
      <point x="167.0" y="-164.0" type="curve" smooth="yes"/>
      <point x="242.0" y="-89.0"/>
      <point x="318.0" y="20.0"/>
      <point x="366.0" y="112.0" type="curve" smooth="yes"/>
      <point x="439.0" y="249.0"/>
      <point x="480.0" y="376.0"/>
      <point x="488.0" y="492.0" type="curve" smooth="yes"/>
      <point x="489.0" y="509.0"/>
      <point x="490.0" y="538.0"/>
      <point x="489.0" y="557.0" type="curve"/>
      <point x="395.0" y="557.0" type="line"/>
      <point x="394.0" y="533.0"/>
      <point x="393.0" y="511.0"/>
      <point x="392.0" y="491.0" type="curve" smooth="yes"/>
      <point x="377.0" y="346.0"/>
      <point x="337.0" y="221.0"/>
      <point x="272.0" y="117.0" type="curve"/>
      <point x="255.0" y="87.0"/>
      <point x="239.0" y="58.0"/>
      <point x="222.0" y="28.0" type="curve"/>
      <point x="203.0" y="175.0" type="line"/>
      <point x="162.0" y="557.0" type="line"/>
      <point x="56.0" y="557.0" type="line"/>
      <point x="109.0" y="175.0" type="line"/>
      <point x="141.0" y="-8.0" type="line"/>
      <point x="201.0" y="-8.0" type="line"/>
      <point x="139.0" y="-98.0"/>
      <point x="81.0" y="-167.0"/>
      <point x="-10.0" y="-167.0" type="curve" smooth="yes"/>
      <point x="-36.0" y="-167.0"/>
      <point x="-56.0" y="-158.0"/>
      <point x="-68.0" y="-152.0" type="curve"/>
      <point x="-95.0" y="-231.0" type="line"/>
      <point x="-76.0" y="-238.0"/>
      <point x="-43.0" y="-245.0"/>
    </contour>
  </outline>
</glyph>
<glyph name="z" format="2">
  <advance width="471.0"/>
  <unicode hex="007A"/>
  <note>
z
</note>
  <anchor x="199.0" y="0.0" name="bottom"/>
  <anchor x="236.0" y="279.0" name="center"/>
  <anchor x="278.0" y="557.0" name="top"/>
  <outline>
    <contour>
      <point x="15.0" y="0.0" type="line"/>
      <point x="394.0" y="0.0" type="line"/>
      <point x="401.0" y="76.0" type="line"/>
      <point x="110.0" y="76.0" type="line"/>
      <point x="180.0" y="149.0" type="line"/>
      <point x="471.0" y="531.0" type="line"/>
      <point x="448.0" y="557.0" type="line"/>
      <point x="95.0" y="557.0" type="line"/>
      <point x="84.0" y="480.0" type="line"/>
      <point x="347.0" y="480.0" type="line"/>
      <point x="269.0" y="398.0" type="line"/>
      <point x="-14.0" y="29.0" type="line"/>
    </contour>
  </outline>
</glyph>
<glyph name="braceleft" format="2">
  <advance width="387.0"/>
  <unicode hex="007B"/>
  <note>
braceleft
</note>
  <outline>
    <contour>
      <point x="181.0" y="-93.0" type="curve" smooth="yes"/>
      <point x="229.0" y="-93.0"/>
      <point x="259.0" y="-86.0"/>
      <point x="315.0" y="-70.0" type="curve"/>
      <point x="321.0" y="-27.0" type="line"/>
      <point x="187.0" y="-27.0" type="line"/>
      <point x="232.0" y="298.0" type="line" smooth="yes"/>
      <point x="237.0" y="337.0"/>
      <point x="198.0" y="360.0"/>
      <point x="147.0" y="388.0" type="curve"/>
      <point x="204.0" y="412.0"/>
      <point x="245.0" y="422.0"/>
      <point x="253.0" y="483.0" type="curve" smooth="yes"/>
      <point x="292.0" y="782.0" type="line"/>
      <point x="432.0" y="782.0" type="line"/>
      <point x="439.0" y="824.0" type="line"/>
      <point x="421.0" y="829.0"/>
      <point x="341.0" y="847.0"/>
      <point x="306.0" y="847.0" type="curve" smooth="yes"/>
      <point x="250.0" y="847.0"/>
      <point x="212.0" y="828.0"/>
      <point x="198.0" y="724.0" type="curve" smooth="yes"/>
      <point x="166.0" y="481.0" type="line" smooth="yes"/>
      <point x="162.0" y="453.0"/>
      <point x="101.0" y="431.0"/>
      <point x="49.0" y="418.0" type="curve"/>
      <point x="40.0" y="358.0" type="line"/>
      <point x="83.0" y="346.0"/>
      <point x="145.0" y="321.0"/>
      <point x="141.0" y="292.0" type="curve" smooth="yes"/>
      <point x="99.0" y="-23.0" type="line" smooth="yes"/>
      <point x="92.0" y="-76.0"/>
      <point x="121.0" y="-93.0"/>
    </contour>
  </outline>
</glyph>
<glyph name="asciitilde" format="2">
  <advance width="555.0"/>
  <unicode hex="007E"/>
  <note>
asciitilde
</note>
  <outline>
    <contour>
      <point x="365.0" y="352.0" type="curve" smooth="yes"/>
      <point x="433.0" y="352.0"/>
      <point x="502.0" y="397.0"/>
      <point x="517.0" y="454.0" type="curve"/>
      <point x="482.0" y="490.0" type="line"/>
      <point x="457.0" y="452.0"/>
      <point x="424.0" y="433.0"/>
      <point x="384.0" y="433.0" type="curve" smooth="yes"/>
      <point x="361.0" y="433.0"/>
      <point x="344.0" y="445.0"/>
      <point x="313.0" y="470.0" type="curve" smooth="yes"/>
      <point x="276.0" y="501.0"/>
      <point x="252.0" y="517.0"/>
      <point x="217.0" y="517.0" type="curve" smooth="yes"/>
      <point x="150.0" y="517.0"/>
      <point x="84.0" y="466.0"/>
      <point x="64.0" y="414.0" type="curve"/>
      <point x="99.0" y="378.0" type="line"/>
      <point x="125.0" y="417.0"/>
      <point x="158.0" y="436.0"/>
      <point x="198.0" y="436.0" type="curve" smooth="yes"/>
      <point x="221.0" y="436.0"/>
      <point x="238.0" y="423.0"/>
      <point x="269.0" y="398.0" type="curve" smooth="yes"/>
      <point x="305.0" y="367.0"/>
      <point x="329.0" y="352.0"/>
    </contour>
  </outline>
</glyph>
<glyph name="exclamdown" format="2">
  <advance width="335.0"/>
  <unicode hex="00A1"/>
  <note>
exclamdown
</note>
  <outline>
    <contour>
      <point x="45.0" y="-212.0" type="line"/>
      <point x="155.0" y="-212.0" type="line"/>
      <point x="231.0" y="418.0" type="line"/>
      <point x="154.0" y="418.0" type="line"/>
    </contour>
    <contour>
      <point x="201.0" y="534.0" type="curve" smooth="yes"/>
      <point x="245.0" y="534.0"/>
      <point x="288.0" y="571.0"/>
      <point x="288.0" y="614.0" type="curve" smooth="yes"/>
      <point x="288.0" y="646.0"/>
      <point x="262.0" y="667.0"/>
      <point x="229.0" y="667.0" type="curve" smooth="yes"/>
      <point x="184.0" y="667.0"/>
      <point x="143.0" y="636.0"/>
      <point x="143.0" y="585.0" type="curve" smooth="yes"/>
      <point x="143.0" y="556.0"/>
      <point x="162.0" y="534.0"/>
    </contour>
  </outline>
</glyph>
<glyph name="cent" format="2">
  <advance width="516.0"/>
  <unicode hex="00A2"/>
  <note>
cent
</note>
  <outline>
    <contour>
      <point x="176.0" y="-105.0" type="line"/>
      <point x="250.0" y="-105.0" type="line"/>
      <point x="268.0" y="-7.0" type="line"/>
      <point x="337.0" y="-2.0"/>
      <point x="395.0" y="41.0"/>
      <point x="426.0" y="81.0" type="curve"/>
      <point x="394.0" y="133.0" type="line"/>
      <point x="345.0" y="85.0"/>
      <point x="307.0" y="65.0"/>
      <point x="266.0" y="65.0" type="curve" smooth="yes"/>
      <point x="197.0" y="65.0"/>
      <point x="164.0" y="109.0"/>
      <point x="164.0" y="222.0" type="curve" smooth="yes"/>
      <point x="164.0" y="346.0"/>
      <point x="238.0" y="493.0"/>
      <point x="342.0" y="493.0" type="curve" smooth="yes"/>
      <point x="379.0" y="493.0"/>
      <point x="409.0" y="484.0"/>
      <point x="433.0" y="464.0" type="curve"/>
      <point x="458.0" y="546.0" type="line"/>
      <point x="435.0" y="557.0"/>
      <point x="403.0" y="563.0"/>
      <point x="368.0" y="564.0" type="curve"/>
      <point x="393.0" y="663.0" type="line"/>
      <point x="320.0" y="663.0" type="line"/>
      <point x="293.0" y="558.0" type="line"/>
      <point x="153.0" y="527.0"/>
      <point x="67.0" y="363.0"/>
      <point x="67.0" y="212.0" type="curve" smooth="yes"/>
      <point x="67.0" y="96.0"/>
      <point x="112.0" y="22.0"/>
      <point x="195.0" y="-1.0" type="curve"/>
    </contour>
  </outline>
</glyph>
<glyph name="sterling" format="2">
  <advance width="668.0"/>
  <unicode hex="00A3"/>
  <note>
sterling
</note>
  <outline>
    <contour>
      <point x="33.0" y="-10.0" type="curve" smooth="yes"/>
      <point x="73.0" y="-10.0"/>
      <point x="118.0" y="15.0"/>
      <point x="145.0" y="50.0" type="curve"/>
      <point x="219.0" y="13.0"/>
      <point x="327.0" y="-10.0"/>
      <point x="401.0" y="-10.0" type="curve" smooth="yes"/>
      <point x="550.0" y="-10.0"/>
      <point x="625.0" y="58.0"/>
      <point x="625.0" y="172.0" type="curve" smooth="yes"/>
      <point x="625.0" y="223.0"/>
      <point x="597.0" y="261.0"/>
      <point x="557.0" y="293.0" type="curve"/>
      <point x="480.0" y="235.0" type="line"/>
      <point x="505.0" y="222.0"/>
      <point x="527.0" y="194.0"/>
      <point x="527.0" y="167.0" type="curve" smooth="yes"/>
      <point x="527.0" y="86.0"/>
      <point x="486.0" y="59.0"/>
      <point x="389.0" y="59.0" type="curve" smooth="yes"/>
      <point x="327.0" y="59.0"/>
      <point x="249.0" y="72.0"/>
      <point x="203.0" y="106.0" type="curve"/>
      <point x="234.0" y="153.0"/>
      <point x="247.0" y="184.0"/>
      <point x="259.0" y="233.0" type="curve" smooth="yes"/>
      <point x="265.0" y="258.0"/>
      <point x="273.0" y="300.0"/>
      <point x="283.0" y="363.0" type="curve"/>
      <point x="438.0" y="363.0" type="line"/>
      <point x="446.0" y="427.0" type="line"/>
      <point x="295.0" y="427.0" type="line"/>
      <point x="303.0" y="473.0" type="line" smooth="yes"/>
      <point x="320.0" y="585.0"/>
      <point x="369.0" y="686.0"/>
      <point x="459.0" y="686.0" type="curve" smooth="yes"/>
      <point x="502.0" y="686.0"/>
      <point x="549.0" y="663.0"/>
      <point x="556.0" y="646.0" type="curve"/>
      <point x="601.0" y="714.0" type="line"/>
      <point x="572.0" y="746.0"/>
      <point x="513.0" y="754.0"/>
      <point x="474.0" y="754.0" type="curve" smooth="yes"/>
      <point x="319.0" y="754.0"/>
      <point x="226.0" y="634.0"/>
      <point x="204.0" y="472.0" type="curve" smooth="yes"/>
      <point x="197.0" y="427.0" type="line"/>
      <point x="108.0" y="427.0" type="line"/>
      <point x="99.0" y="363.0" type="line"/>
      <point x="186.0" y="363.0" type="line"/>
      <point x="165.0" y="241.0" type="line" smooth="yes"/>
      <point x="158.0" y="192.0"/>
      <point x="140.0" y="137.0"/>
      <point x="111.0" y="114.0" type="curve"/>
      <point x="68.0" y="114.0"/>
      <point x="-5.0" y="86.0"/>
      <point x="-5.0" y="25.0" type="curve" smooth="yes"/>
      <point x="-5.0" y="2.0"/>
      <point x="8.0" y="-10.0"/>
    </contour>
  </outline>
</glyph>
<glyph name="currency" format="2">
  <advance width="752.0"/>
  <unicode hex="00A4"/>
  <note>
currency
</note>
  <outline>
    <contour>
      <point x="169.0" y="63.0" type="line"/>
      <point x="264.0" y="158.0" type="line"/>
      <point x="297.0" y="135.0"/>
      <point x="339.0" y="123.0"/>
      <point x="382.0" y="123.0" type="curve" smooth="yes"/>
      <point x="427.0" y="123.0"/>
      <point x="467.0" y="136.0"/>
      <point x="503.0" y="161.0" type="curve"/>
      <point x="598.0" y="66.0" type="line"/>
      <point x="654.0" y="121.0" type="line"/>
      <point x="559.0" y="216.0" type="line"/>
      <point x="583.0" y="251.0"/>
      <point x="597.0" y="293.0"/>
      <point x="597.0" y="337.0" type="curve" smooth="yes"/>
      <point x="597.0" y="380.0"/>
      <point x="585.0" y="420.0"/>
      <point x="562.0" y="455.0" type="curve"/>
      <point x="655.0" y="548.0" type="line"/>
      <point x="600.0" y="604.0" type="line"/>
      <point x="507.0" y="511.0" type="line"/>
      <point x="471.0" y="536.0"/>
      <point x="427.0" y="551.0"/>
      <point x="382.0" y="551.0" type="curve" smooth="yes"/>
      <point x="338.0" y="551.0"/>
      <point x="298.0" y="539.0"/>
      <point x="262.0" y="515.0" type="curve"/>
      <point x="167.0" y="610.0" type="line"/>
      <point x="112.0" y="554.0" type="line"/>
      <point x="206.0" y="460.0" type="line"/>
      <point x="182.0" y="425.0"/>
      <point x="167.0" y="382.0"/>
      <point x="167.0" y="337.0" type="curve" smooth="yes"/>
      <point x="167.0" y="292.0"/>
      <point x="182.0" y="248.0"/>
      <point x="207.0" y="212.0" type="curve"/>
      <point x="113.0" y="119.0" type="line"/>
    </contour>
    <contour>
      <point x="382.0" y="188.0" type="curve" smooth="yes"/>
      <point x="305.0" y="188.0"/>
      <point x="239.0" y="253.0"/>
      <point x="239.0" y="337.0" type="curve" smooth="yes"/>
      <point x="239.0" y="415.0"/>
      <point x="299.0" y="486.0"/>
      <point x="382.0" y="486.0" type="curve" smooth="yes"/>
      <point x="458.0" y="486.0"/>
      <point x="524.0" y="421.0"/>
      <point x="524.0" y="337.0" type="curve" smooth="yes"/>
      <point x="524.0" y="257.0"/>
      <point x="460.0" y="188.0"/>
    </contour>
  </outline>
</glyph>
<glyph name="yen" format="2">
  <advance width="724.0"/>
  <unicode hex="00A5"/>
  <note>
yen
</note>
  <outline>
    <contour>
      <point x="292.0" y="0.0" type="line"/>
      <point x="378.0" y="0.0" type="line"/>
      <point x="399.0" y="184.0" type="line"/>
      <point x="603.0" y="184.0" type="line"/>
      <point x="611.0" y="247.0" type="line"/>
      <point x="407.0" y="247.0" type="line"/>
      <point x="420.0" y="357.0" type="line"/>
      <point x="626.0" y="357.0" type="line"/>
      <point x="634.0" y="421.0" type="line"/>
      <point x="460.0" y="421.0" type="line"/>
      <point x="703.0" y="747.0" type="line"/>
      <point x="608.0" y="747.0" type="line"/>
      <point x="429.0" y="480.0" type="line"/>
      <point x="396.0" y="422.0" type="line"/>
      <point x="376.0" y="476.0" type="line"/>
      <point x="252.0" y="747.0" type="line"/>
      <point x="158.0" y="747.0" type="line"/>
      <point x="313.0" y="421.0" type="line"/>
      <point x="144.0" y="421.0" type="line"/>
      <point x="135.0" y="357.0" type="line"/>
      <point x="334.0" y="357.0" type="line"/>
      <point x="321.0" y="247.0" type="line"/>
      <point x="121.0" y="247.0" type="line"/>
      <point x="112.0" y="184.0" type="line"/>
      <point x="313.0" y="184.0" type="line"/>
    </contour>
  </outline>
</glyph>
<glyph name="brokenbar" format="2">
  <advance width="417.0"/>
  <unicode hex="00A6"/>
  <note>
brokenbar
</note>
  <outline>
    <contour>
      <point x="170.4" y="81.575" type="line"/>
      <point x="260.9" y="81.575" type="line"/>
      <point x="260.9" y="515.975" type="line"/>
      <point x="170.4" y="515.975" type="line"/>
    </contour>
    <contour>
      <point x="170.4" y="262.7" type="line"/>
      <point x="260.9" y="262.7" type="line"/>
      <point x="260.9" y="696.425" type="line"/>
      <point x="170.4" y="696.425" type="line"/>
    </contour>
  </outline>
</glyph>
<glyph name="section" format="2">
  <advance width="663.0"/>
  <unicode hex="00A7"/>
  <outline>
    <contour>
      <point x="151.0" y="650.0" type="curve" smooth="yes"/>
      <point x="122.0" y="444.0"/>
      <point x="476.0" y="465.0"/>
      <point x="452.0" y="301.0" type="curve" smooth="yes"/>
      <point x="447.0" y="260.0"/>
      <point x="412.0" y="198.0"/>
      <point x="389.0" y="172.0" type="curve"/>
      <point x="434.0" y="142.0" type="line"/>
      <point x="494.0" y="185.0"/>
      <point x="543.0" y="248.0"/>
      <point x="553.0" y="319.0" type="curve" smooth="yes"/>
      <point x="582.0" y="523.0"/>
      <point x="231.0" y="523.0"/>
      <point x="250.0" y="662.0" type="curve" smooth="yes"/>
      <point x="258.0" y="716.0"/>
      <point x="322.0" y="736.0"/>
      <point x="388.0" y="737.0" type="curve" smooth="yes"/>
      <point x="476.0" y="737.0"/>
      <point x="523.0" y="715.0"/>
      <point x="544.0" y="700.0" type="curve"/>
      <point x="575.0" y="781.0" type="line"/>
      <point x="549.0" y="798.0"/>
      <point x="493.0" y="817.0"/>
      <point x="401.0" y="817.0" type="curve" smooth="yes"/>
      <point x="301.0" y="817.0"/>
      <point x="169.0" y="781.0"/>
    </contour>
    <contour>
      <point x="512.0" y="73.0" type="curve" smooth="yes"/>
      <point x="540.0" y="269.0"/>
      <point x="185.0" y="236.0"/>
      <point x="207.0" y="392.0" type="curve" smooth="yes"/>
      <point x="213.0" y="433.0"/>
      <point x="247.0" y="492.0"/>
      <point x="271.0" y="518.0" type="curve"/>
      <point x="223.0" y="547.0" type="line"/>
      <point x="165.0" y="506.0"/>
      <point x="117.0" y="444.0"/>
      <point x="107.0" y="375.0" type="curve" smooth="yes"/>
      <point x="79.0" y="176.0"/>
      <point x="432.0" y="188.0"/>
      <point x="414.0" y="63.0" type="curve" smooth="yes"/>
      <point x="406.0" y="6.0"/>
      <point x="335.0" y="-14.0"/>
      <point x="262.0" y="-14.0" type="curve" smooth="yes"/>
      <point x="173.0" y="-15.0"/>
      <point x="108.0" y="13.0"/>
      <point x="84.0" y="32.0" type="curve"/>
      <point x="52.0" y="-49.0" type="line"/>
      <point x="79.0" y="-70.0"/>
      <point x="158.0" y="-94.0"/>
      <point x="249.0" y="-94.0" type="curve" smooth="yes"/>
      <point x="356.0" y="-94.0"/>
      <point x="494.0" y="-56.0"/>
    </contour>
  </outline>
</glyph>
<glyph name="dieresis" format="2">
  <advance width="395.0"/>
  <unicode hex="00A8"/>
  <note>
dieresis
</note>
  <outline>
    <contour>
      <point x="291.0" y="678.0" type="curve" smooth="yes"/>
      <point x="329.0" y="678.0"/>
      <point x="365.0" y="714.0"/>
      <point x="365.0" y="752.0" type="curve" smooth="yes"/>
      <point x="365.0" y="783.0"/>
      <point x="341.0" y="806.0"/>
      <point x="305.0" y="806.0" type="curve" smooth="yes"/>
      <point x="268.0" y="806.0"/>
      <point x="234.0" y="771.0"/>
      <point x="234.0" y="734.0" type="curve" smooth="yes"/>
      <point x="234.0" y="703.0"/>
      <point x="260.0" y="678.0"/>
    </contour>
    <contour>
      <point x="85.0" y="678.0" type="curve" smooth="yes"/>
      <point x="124.0" y="678.0"/>
      <point x="160.0" y="714.0"/>
      <point x="160.0" y="752.0" type="curve" smooth="yes"/>
      <point x="160.0" y="783.0"/>
      <point x="135.0" y="806.0"/>
      <point x="100.0" y="806.0" type="curve" smooth="yes"/>
      <point x="63.0" y="806.0"/>
      <point x="29.0" y="771.0"/>
      <point x="29.0" y="734.0" type="curve" smooth="yes"/>
      <point x="29.0" y="703.0"/>
      <point x="56.0" y="678.0"/>
    </contour>
  </outline>
</glyph>
<glyph name="ordfeminine" format="2">
  <advance width="425.775"/>
  <unicode hex="00AA"/>
  <note>
ordfeminine
</note>
  <outline>
    <contour>
      <point x="164.625" y="361.7" type="curve" smooth="yes"/>
      <point x="217.625" y="361.7"/>
      <point x="257.9" y="387.025"/>
      <point x="290.85" y="425.0" type="curve"/>
      <point x="282.1" y="361.7" type="line"/>
      <point x="368.0" y="361.7" type="line"/>
      <point x="440.3" y="769.0" type="line"/>
      <point x="386.75" y="755.675" type="line"/>
      <point x="363.425" y="764.0"/>
      <point x="327.8" y="770.0"/>
      <point x="299.475" y="770.0" type="curve" smooth="yes"/>
      <point x="205.55" y="770.0"/>
      <point x="123.95" y="712.325"/>
      <point x="79.65" y="630.35" type="curve" smooth="yes"/>
      <point x="57.0" y="589.025"/>
      <point x="45.675" y="547.05"/>
      <point x="45.675" y="504.75" type="curve" smooth="yes"/>
      <point x="45.675" y="414.375"/>
      <point x="86.975" y="361.7"/>
    </contour>
    <contour>
      <point x="202.525" y="424.55" type="curve" smooth="yes"/>
      <point x="157.45" y="424.55"/>
      <point x="140.75" y="453.95"/>
      <point x="140.75" y="513.05" type="curve" smooth="yes"/>
      <point x="140.75" y="573.775"/>
      <point x="165.1" y="643.1"/>
      <point x="209.775" y="685.425" type="curve" smooth="yes"/>
      <point x="232.45" y="706.425"/>
      <point x="258.775" y="716.75"/>
      <point x="289.1" y="716.75" type="curve" smooth="yes"/>
      <point x="304.125" y="716.75"/>
      <point x="320.175" y="711.05"/>
      <point x="332.525" y="701.675" type="curve"/>
      <point x="293.875" y="482.175" type="line"/>
      <point x="258.8" y="445.5"/>
      <point x="226.825" y="424.55"/>
    </contour>
  </outline>
</glyph>
<glyph name="logicalnot" format="2">
  <advance width="669.0"/>
  <unicode hex="00AC"/>
  <note>
logicalnot
</note>
  <outline>
    <contour>
      <point x="456.825" y="157.0" type="line"/>
      <point x="550.0" y="157.0" type="line"/>
      <point x="580.0" y="417.0" type="line"/>
      <point x="111.0" y="417.0" type="line"/>
      <point x="102.35" y="336.15" type="line"/>
      <point x="478.175" y="336.15" type="line"/>
    </contour>
  </outline>
</glyph>
<glyph name="registered" format="2">
  <advance width="1040.0"/>
  <unicode hex="00AE"/>
  <outline>
    <contour>
      <point x="95.0" y="470.0" type="curve" smooth="yes"/>
      <point x="95.0" y="232.0"/>
      <point x="282.0" y="40.0"/>
      <point x="520.0" y="40.0" type="curve" smooth="yes"/>
      <point x="757.0" y="40.0"/>
      <point x="945.0" y="232.0"/>
      <point x="945.0" y="470.0" type="curve" smooth="yes"/>
      <point x="945.0" y="708.0"/>
      <point x="757.0" y="898.0"/>
      <point x="520.0" y="898.0" type="curve" smooth="yes"/>
      <point x="282.0" y="898.0"/>
      <point x="95.0" y="708.0"/>
    </contour>
    <contour>
      <point x="164.0" y="470.0" type="curve" smooth="yes"/>
      <point x="164.0" y="672.0"/>
      <point x="315.0" y="837.0"/>
      <point x="520.0" y="837.0" type="curve" smooth="yes"/>
      <point x="724.0" y="837.0"/>
      <point x="875.0" y="672.0"/>
      <point x="875.0" y="470.0" type="curve" smooth="yes"/>
      <point x="875.0" y="268.0"/>
      <point x="724.0" y="103.0"/>
      <point x="520.0" y="103.0" type="curve" smooth="yes"/>
      <point x="315.0" y="103.0"/>
      <point x="164.0" y="268.0"/>
    </contour>
    <contour>
      <point x="360.0" y="234.0" type="line"/>
      <point x="447.0" y="234.0" type="line"/>
      <point x="447.0" y="414.0" type="line"/>
      <point x="471.0" y="414.0"/>
      <point x="495.0" y="414.0"/>
      <point x="507.0" y="415.0" type="curve"/>
      <point x="551.0" y="403.0"/>
      <point x="571.0" y="347.0"/>
      <point x="592.0" y="302.0" type="curve" smooth="yes"/>
      <point x="604.0" y="276.0"/>
      <point x="614.0" y="255.0"/>
      <point x="630.0" y="234.0" type="curve"/>
      <point x="730.0" y="234.0" type="line"/>
      <point x="701.0" y="278.0"/>
      <point x="690.0" y="292.0"/>
      <point x="680.0" y="312.0" type="curve" smooth="yes"/>
      <point x="658.0" y="353.0"/>
      <point x="639.0" y="401.0"/>
      <point x="605.0" y="427.0" type="curve"/>
      <point x="674.0" y="448.0"/>
      <point x="699.0" y="502.0"/>
      <point x="699.0" y="573.0" type="curve" smooth="yes"/>
      <point x="699.0" y="646.0"/>
      <point x="647.0" y="707.0"/>
      <point x="524.0" y="707.0" type="curve" smooth="yes"/>
      <point x="479.0" y="707.0"/>
      <point x="433.0" y="704.0"/>
      <point x="398.0" y="704.0" type="curve" smooth="yes"/>
      <point x="385.0" y="704.0"/>
      <point x="373.0" y="704.0"/>
      <point x="360.0" y="704.0" type="curve"/>
    </contour>
    <contour>
      <point x="447.0" y="479.0" type="curve"/>
      <point x="447.0" y="637.0" type="line"/>
      <point x="465.0" y="642.0"/>
      <point x="479.0" y="642.0"/>
      <point x="500.0" y="643.0" type="curve" smooth="yes"/>
      <point x="588.0" y="645.0"/>
      <point x="609.0" y="612.0"/>
      <point x="609.0" y="562.0" type="curve" smooth="yes"/>
      <point x="609.0" y="499.0"/>
      <point x="576.0" y="477.0"/>
      <point x="510.0" y="477.0" type="curve" smooth="yes"/>
      <point x="494.0" y="477.0"/>
      <point x="461.0" y="477.0"/>
    </contour>
  </outline>
</glyph>
<glyph name="macron" format="2">
  <advance width="300.325"/>
  <unicode hex="00AF"/>
  <note>
macron
</note>
  <outline>
    <contour>
      <point x="32.525" y="684.25" type="line"/>
      <point x="286.05" y="684.25" type="line"/>
      <point x="289.7" y="761.8" type="line"/>
      <point x="35.5" y="761.8" type="line"/>
    </contour>
  </outline>
</glyph>
<glyph name="degree" format="2">
  <advance width="439.0"/>
  <unicode hex="00B0"/>
  <note>
degree
</note>
  <outline>
    <contour>
      <point x="226.0" y="466.0" type="curve" smooth="yes"/>
      <point x="289.0" y="466.0"/>
      <point x="342.0" y="496.0"/>
      <point x="371.0" y="545.0" type="curve" smooth="yes"/>
      <point x="386.0" y="570.0"/>
      <point x="393.0" y="597.0"/>
      <point x="393.0" y="627.0" type="curve" smooth="yes"/>
      <point x="393.0" y="683.0"/>
      <point x="363.0" y="733.0"/>
      <point x="315.0" y="761.0" type="curve" smooth="yes"/>
      <point x="291.0" y="774.0"/>
      <point x="264.0" y="781.0"/>
      <point x="235.0" y="781.0" type="curve" smooth="yes"/>
      <point x="172.0" y="781.0"/>
      <point x="120.0" y="751.0"/>
      <point x="92.0" y="703.0" type="curve" smooth="yes"/>
      <point x="77.0" y="678.0"/>
      <point x="70.0" y="651.0"/>
      <point x="70.0" y="621.0" type="curve" smooth="yes"/>
      <point x="70.0" y="565.0"/>
      <point x="99.0" y="515.0"/>
      <point x="147.0" y="487.0" type="curve" smooth="yes"/>
      <point x="170.0" y="473.0"/>
      <point x="197.0" y="466.0"/>
    </contour>
    <contour>
      <point x="229.0" y="525.0" type="curve" smooth="yes"/>
      <point x="178.0" y="525.0"/>
      <point x="139.0" y="569.0"/>
      <point x="139.0" y="622.0" type="curve" smooth="yes"/>
      <point x="139.0" y="679.0"/>
      <point x="178.0" y="722.0"/>
      <point x="233.0" y="722.0" type="curve" smooth="yes"/>
      <point x="284.0" y="722.0"/>
      <point x="324.0" y="678.0"/>
      <point x="324.0" y="626.0" type="curve" smooth="yes"/>
      <point x="324.0" y="570.0"/>
      <point x="285.0" y="525.0"/>
    </contour>
  </outline>
</glyph>
<glyph name="plusminus" format="2">
  <advance width="667.0"/>
  <unicode hex="00B1"/>
  <note>
plusminus
</note>
  <outline>
    <contour>
      <point x="271.0" y="144.0" type="line"/>
      <point x="358.0" y="144.0" type="line"/>
      <point x="371.0" y="262.0" type="line"/>
      <point x="376.0" y="342.0" type="line"/>
      <point x="431.0" y="338.0" type="line"/>
      <point x="556.0" y="338.0" type="line"/>
      <point x="564.0" y="416.0" type="line"/>
      <point x="440.0" y="416.0" type="line"/>
      <point x="384.0" y="411.0" type="line"/>
      <point x="398.0" y="491.0" type="line"/>
      <point x="411.0" y="603.0" type="line"/>
      <point x="324.0" y="603.0" type="line"/>
      <point x="311.0" y="491.0" type="line"/>
      <point x="304.0" y="410.0" type="line"/>
      <point x="236.0" y="416.0" type="line"/>
      <point x="126.0" y="416.0" type="line"/>
      <point x="118.0" y="338.0" type="line"/>
      <point x="228.0" y="338.0" type="line"/>
      <point x="296.0" y="342.0" type="line"/>
      <point x="284.0" y="262.0" type="line"/>
    </contour>
    <contour>
      <point x="84.0" y="15.0" type="line"/>
      <point x="508.0" y="15.0" type="line"/>
      <point x="517.0" y="88.0" type="line"/>
      <point x="92.0" y="88.0" type="line"/>
    </contour>
  </outline>
</glyph>
<glyph name="acute" format="2">
  <advance width="273.325"/>
  <unicode hex="00B4"/>
  <note>
acute
</note>
  <outline>
    <contour>
      <point x="71.725" y="611.775" type="line"/>
      <point x="118.7" y="628.775"/>
      <point x="235.975" y="732.4"/>
      <point x="258.975" y="775.75" type="curve"/>
      <point x="180.425" y="847.95" type="line"/>
      <point x="28.475" y="648.05" type="line"/>
    </contour>
  </outline>
</glyph>
<glyph name="micro" format="2">
  <advance width="666.0"/>
  <unicode hex="00B5"/>
  <note>
uni00B5
</note>
  <outline>
    <contour>
      <point x="53.475" y="-182.0" type="line"/>
      <point x="155.5" y="-182.0" type="line"/>
      <point x="187.175" y="27.325" type="line"/>
      <point x="198.5" y="6.025"/>
      <point x="239.15" y="-9.0"/>
      <point x="265.125" y="-9.675" type="curve"/>
      <point x="338.275" y="-9.675"/>
      <point x="369.575" y="15.7"/>
      <point x="413.325" y="60.0" type="curve"/>
      <point x="417.975" y="13.325"/>
      <point x="447.325" y="-9.0"/>
      <point x="491.575" y="-9.0" type="curve" smooth="yes"/>
      <point x="550.825" y="-9.0"/>
      <point x="598.525" y="32.7"/>
      <point x="619.775" y="59.975" type="curve"/>
      <point x="588.475" y="114.25" type="line"/>
      <point x="566.1" y="89.9"/>
      <point x="548.125" y="78.925"/>
      <point x="531.125" y="78.925" type="curve" smooth="yes"/>
      <point x="522.125" y="78.925"/>
      <point x="514.125" y="90.25"/>
      <point x="514.125" y="109.25" type="curve" smooth="yes"/>
      <point x="514.125" y="133.3"/>
      <point x="529.0" y="229.7"/>
      <point x="570.475" y="557.0" type="curve"/>
      <point x="463.8" y="557.0" type="line"/>
      <point x="412.1" y="168.5" type="line"/>
      <point x="384.625" y="125.475"/>
      <point x="340.425" y="82.825"/>
      <point x="287.575" y="82.825" type="curve" smooth="yes"/>
      <point x="245.175" y="82.825"/>
      <point x="215.475" y="103.5"/>
      <point x="215.475" y="157.85" type="curve"/>
      <point x="227.625" y="253.475"/>
      <point x="252.925" y="442.8"/>
      <point x="255.85" y="479.175" type="curve" smooth="yes"/>
      <point x="259.1" y="530.5"/>
      <point x="230.125" y="563.325"/>
      <point x="185.0" y="563.325" type="curve" smooth="yes"/>
      <point x="126.35" y="563.325"/>
      <point x="71.1" y="527.35"/>
      <point x="54.15" y="502.0" type="curve"/>
      <point x="84.175" y="442.1" type="line"/>
      <point x="99.85" y="457.775"/>
      <point x="113.525" y="467.45"/>
      <point x="129.525" y="467.45" type="curve" smooth="yes"/>
      <point x="143.525" y="467.45"/>
      <point x="143.175" y="436.4"/>
      <point x="140.175" y="411.775" type="curve" smooth="yes"/>
    </contour>
  </outline>
</glyph>
<glyph name="paragraph" format="2">
  <advance width="605.0"/>
  <unicode hex="00B6"/>
  <note>
paragraph
</note>
  <outline>
    <contour>
      <point x="181.0" y="0.0" type="line"/>
      <point x="275.0" y="0.0" type="line"/>
      <point x="361.0" y="690.0" type="line"/>
      <point x="456.0" y="690.0" type="line"/>
      <point x="371.0" y="0.0" type="line"/>
      <point x="463.0" y="0.0" type="line"/>
      <point x="551.0" y="691.0" type="line"/>
      <point x="632.0" y="708.0" type="line"/>
      <point x="638.0" y="758.0" type="line"/>
      <point x="511.0" y="758.0" type="line" smooth="yes"/>
      <point x="474.0" y="758.0"/>
      <point x="388.0" y="767.0"/>
      <point x="329.0" y="767.0" type="curve" smooth="yes"/>
      <point x="142.0" y="767.0"/>
      <point x="58.0" y="687.0"/>
      <point x="58.0" y="551.0" type="curve" smooth="yes"/>
      <point x="58.0" y="443.0"/>
      <point x="123.0" y="381.0"/>
      <point x="231.0" y="378.0" type="curve"/>
    </contour>
  </outline>
</glyph>
<glyph name="cedilla" format="2">
  <unicode hex="00B8"/>
  <note>
cedilla
</note>
  <outline>
    <contour>
      <point x="74.0" y="-227.0" type="curve" smooth="yes"/>
      <point x="154.0" y="-227.0"/>
      <point x="210.0" y="-184.0"/>
      <point x="210.0" y="-81.0" type="curve" smooth="yes"/>
      <point x="210.0" y="-38.0"/>
      <point x="201.0" y="-5.0"/>
      <point x="188.0" y="15.0" type="curve"/>
      <point x="162.0" y="17.0" type="line"/>
      <point x="130.0" y="15.0" type="line"/>
      <point x="132.0" y="1.0"/>
      <point x="132.0" y="-14.0"/>
      <point x="131.0" y="-58.0" type="curve" smooth="yes"/>
      <point x="129.0" y="-125.0"/>
      <point x="96.0" y="-146.0"/>
      <point x="62.0" y="-146.0" type="curve" smooth="yes"/>
      <point x="34.0" y="-146.0"/>
      <point x="23.0" y="-144.0"/>
      <point x="14.0" y="-139.0" type="curve"/>
      <point x="2.0" y="-213.0" type="line"/>
      <point x="13.0" y="-221.0"/>
      <point x="47.0" y="-227.0"/>
    </contour>
  </outline>
</glyph>
<glyph name="ordmasculine" format="2">
  <advance width="393.0"/>
  <unicode hex="00BA"/>
  <note>
ordmasculine
</note>
  <outline>
    <contour>
      <point x="210.0" y="358.0" type="curve" smooth="yes"/>
      <point x="331.0" y="358.0"/>
      <point x="421.0" y="460.0"/>
      <point x="421.0" y="593.0" type="curve" smooth="yes"/>
      <point x="421.0" y="693.0"/>
      <point x="362.0" y="776.0"/>
      <point x="260.0" y="776.0" type="curve" smooth="yes"/>
      <point x="143.0" y="776.0"/>
      <point x="48.0" y="669.0"/>
      <point x="48.0" y="540.0" type="curve" smooth="yes"/>
      <point x="48.0" y="439.0"/>
      <point x="116.0" y="358.0"/>
    </contour>
    <contour>
      <point x="212.0" y="419.0" type="curve" smooth="yes"/>
      <point x="164.0" y="419.0"/>
      <point x="138.0" y="479.0"/>
      <point x="138.0" y="548.0" type="curve" smooth="yes"/>
      <point x="138.0" y="632.0"/>
      <point x="188.0" y="718.0"/>
      <point x="256.0" y="718.0" type="curve" smooth="yes"/>
      <point x="305.0" y="718.0"/>
      <point x="331.0" y="665.0"/>
      <point x="331.0" y="584.0" type="curve" smooth="yes"/>
      <point x="331.0" y="495.0"/>
      <point x="300.0" y="419.0"/>
    </contour>
  </outline>
</glyph>
<glyph name="guillemetright" format="2">
  <advance width="917.0"/>
  <unicode hex="00BB"/>
  <note>
guillemotright
</note>
  <outline>
    <contour>
      <point x="125.0" y="74.0" type="line"/>
      <point x="463.0" y="268.0" type="line"/>
      <point x="474.0" y="346.0" type="line"/>
      <point x="188.0" y="530.0" type="line"/>
      <point x="153.0" y="476.0" type="line"/>
      <point x="355.0" y="304.0" type="line"/>
      <point x="106.0" y="130.0" type="line"/>
    </contour>
    <contour>
      <point x="455.0" y="74.0" type="line"/>
      <point x="793.0" y="268.0" type="line"/>
      <point x="804.0" y="346.0" type="line"/>
      <point x="518.0" y="530.0" type="line"/>
      <point x="483.0" y="476.0" type="line"/>
      <point x="686.0" y="304.0" type="line"/>
      <point x="437.0" y="130.0" type="line"/>
    </contour>
  </outline>
</glyph>
<glyph name="questiondown" format="2">
  <advance width="439.775"/>
  <unicode hex="00BF"/>
  <note>
questiondown
</note>
  <outline>
    <contour>
      <point x="327.125" y="402.65" type="curve"/>
      <point x="245.125" y="402.65" type="line"/>
      <point x="248.125" y="377.65"/>
      <point x="249.825" y="358.55"/>
      <point x="248.5" y="335.85" type="curve" smooth="yes"/>
      <point x="245.525" y="286.525"/>
      <point x="203.875" y="257.575"/>
      <point x="147.55" y="226.25" type="curve" smooth="yes"/>
      <point x="42.925" y="167.95"/>
      <point x="-16.675" y="88.775"/>
      <point x="-16.675" y="-13.35" type="curve" smooth="yes"/>
      <point x="-16.675" y="-149.3"/>
      <point x="80.25" y="-208.35"/>
      <point x="224.775" y="-208.35" type="curve" smooth="yes"/>
      <point x="270.175" y="-208.35"/>
      <point x="314.475" y="-196.675"/>
      <point x="328.45" y="-185.05" type="curve"/>
      <point x="346.425" y="-106.2" type="line"/>
      <point x="308.4" y="-118.55"/>
      <point x="281.75" y="-122.225"/>
      <point x="241.4" y="-122.225" type="curve" smooth="yes"/>
      <point x="165.1" y="-122.225"/>
      <point x="90.125" y="-82.95"/>
      <point x="90.125" y="-0.35" type="curve" smooth="yes"/>
      <point x="90.125" y="60.75"/>
      <point x="120.05" y="118.5"/>
      <point x="211.375" y="167.775" type="curve" smooth="yes"/>
      <point x="299.625" y="215.2"/>
      <point x="343.1" y="267.925"/>
      <point x="343.1" y="320.675" type="curve" smooth="yes"/>
      <point x="343.1" y="362.5"/>
      <point x="334.05" y="385.4"/>
    </contour>
    <contour>
      <point x="303.5" y="667.65" type="curve" smooth="yes"/>
      <point x="253.9" y="667.65"/>
      <point x="222.275" y="635.375"/>
      <point x="222.275" y="584.775" type="curve" smooth="yes"/>
      <point x="222.275" y="551.15"/>
      <point x="241.925" y="526.85"/>
      <point x="283.85" y="526.85" type="curve" smooth="yes"/>
      <point x="330.8" y="526.85"/>
      <point x="364.425" y="565.8"/>
      <point x="364.425" y="609.4" type="curve" smooth="yes"/>
      <point x="364.425" y="643.675"/>
      <point x="338.1" y="667.65"/>
    </contour>
  </outline>
</glyph>
<glyph name="AE" format="2">
  <advance width="861.0"/>
  <unicode hex="00C6"/>
  <note>
AE
</note>
  <anchor x="394.0" y="0.0" name="bottom"/>
  <anchor x="493.0" y="747.0" name="top"/>
  <outline>
    <contour>
      <point x="-63.0" y="0.0" type="line"/>
      <point x="42.0" y="0.0" type="line"/>
      <point x="148.0" y="203.0" type="line"/>
      <point x="384.0" y="203.0" type="line"/>
      <point x="359.0" y="0.0" type="line"/>
      <point x="799.0" y="0.0" type="line"/>
      <point x="806.0" y="81.0" type="line"/>
      <point x="464.0" y="73.0" type="line"/>
      <point x="500.0" y="347.0" type="line"/>
      <point x="716.0" y="339.0" type="line"/>
      <point x="722.0" y="420.0" type="line"/>
      <point x="508.0" y="417.0" type="line"/>
      <point x="541.0" y="674.0" type="line"/>
      <point x="824.0" y="670.0" type="line"/>
      <point x="828.0" y="747.0" type="line"/>
      <point x="178.0" y="747.0" type="line"/>
      <point x="171.0" y="698.0" type="line"/>
      <point x="313.0" y="688.0" type="line"/>
    </contour>
    <contour>
      <point x="188.0" y="277.0" type="line"/>
      <point x="400.0" y="680.0" type="line"/>
      <point x="444.0" y="677.0" type="line"/>
      <point x="394.0" y="277.0" type="line"/>
    </contour>
  </outline>
</glyph>
<glyph name="Eth" format="2">
  <advance width="672.0"/>
  <unicode hex="00D0"/>
  <note>
Eth
</note>
  <anchor x="299.0" y="0.0" name="bottom"/>
  <anchor x="349.0" y="374.0" name="center"/>
  <anchor x="398.0" y="747.0" name="top"/>
  <outline>
    <contour>
      <point x="389.0" y="416.0" type="line"/>
      <point x="28.0" y="416.0" type="line"/>
      <point x="21.0" y="353.0" type="line"/>
      <point x="381.0" y="353.0" type="line"/>
    </contour>
    <component base="D"/>
  </outline>
</glyph>
<glyph name="multiply" format="2">
  <advance width="671.275"/>
  <unicode hex="00D7"/>
  <note>
multiply
</note>
  <outline>
    <contour>
      <point x="267.975" y="148.475" type="line"/>
      <point x="416.775" y="288.275" type="line"/>
      <point x="459.85" y="225.825" type="line"/>
      <point x="564.475" y="318.975" type="line"/>
      <point x="443.475" y="452.975" type="line"/>
      <point x="510.225" y="503.75" type="line"/>
      <point x="431.975" y="600.8" type="line"/>
      <point x="282.825" y="461.0" type="line"/>
      <point x="239.1" y="523.775" type="line"/>
      <point x="134.8" y="430.625" type="line"/>
      <point x="255.8" y="297.3" type="line"/>
      <point x="188.4" y="245.525" type="line"/>
    </contour>
  </outline>
</glyph>
<glyph name="Oslash" format="2">
  <advance width="673.0"/>
  <unicode hex="00D8"/>
  <note>
Oslash
</note>
  <anchor x="399.0" y="747.0" name="top"/>
  <outline>
    <contour>
      <point x="71.0" y="-64.0" type="line"/>
      <point x="145.0" y="47.0" type="line"/>
      <point x="185.0" y="10.0"/>
      <point x="234.0" y="-8.0"/>
      <point x="292.0" y="-8.0" type="curve" smooth="yes"/>
      <point x="427.0" y="-8.0"/>
      <point x="536.0" y="76.0"/>
      <point x="594.0" y="212.0" type="curve" smooth="yes"/>
      <point x="623.0" y="280.0"/>
      <point x="637.0" y="355.0"/>
      <point x="637.0" y="438.0" type="curve" smooth="yes"/>
      <point x="637.0" y="535.0"/>
      <point x="614.0" y="621.0"/>
      <point x="566.0" y="678.0" type="curve"/>
      <point x="641.0" y="792.0" type="line"/>
      <point x="598.0" y="815.0" type="line"/>
      <point x="530.0" y="713.0" type="line"/>
      <point x="493.0" y="741.0"/>
      <point x="449.0" y="755.0"/>
      <point x="397.0" y="755.0" type="curve" smooth="yes"/>
      <point x="268.0" y="755.0"/>
      <point x="158.0" y="672.0"/>
      <point x="98.0" y="537.0" type="curve" smooth="yes"/>
      <point x="68.0" y="469.0"/>
      <point x="53.0" y="393.0"/>
      <point x="53.0" y="310.0" type="curve" smooth="yes"/>
      <point x="53.0" y="222.0"/>
      <point x="73.0" y="142.0"/>
      <point x="112.0" y="85.0" type="curve"/>
      <point x="28.0" y="-41.0" type="line"/>
    </contour>
    <contour>
      <point x="308.0" y="66.0" type="curve" smooth="yes"/>
      <point x="260.0" y="66.0"/>
      <point x="224.0" y="83.0"/>
      <point x="200.0" y="118.0" type="curve"/>
      <point x="508.0" y="599.0" type="line"/>
      <point x="527.0" y="556.0"/>
      <point x="537.0" y="497.0"/>
      <point x="537.0" y="421.0" type="curve" smooth="yes"/>
      <point x="537.0" y="294.0"/>
      <point x="496.0" y="179.0"/>
      <point x="427.0" y="115.0" type="curve" smooth="yes"/>
      <point x="392.0" y="82.0"/>
      <point x="353.0" y="66.0"/>
    </contour>
    <contour>
      <point x="174.0" y="169.0" type="line"/>
      <point x="160.0" y="210.0"/>
      <point x="153.0" y="263.0"/>
      <point x="153.0" y="326.0" type="curve" smooth="yes"/>
      <point x="153.0" y="447.0"/>
      <point x="195.0" y="564.0"/>
      <point x="264.0" y="629.0" type="curve" smooth="yes"/>
      <point x="299.0" y="662.0"/>
      <point x="338.0" y="678.0"/>
      <point x="382.0" y="678.0" type="curve" smooth="yes"/>
      <point x="422.0" y="678.0"/>
      <point x="454.0" y="666.0"/>
      <point x="478.0" y="643.0" type="curve"/>
    </contour>
  </outline>
</glyph>
<glyph name="Thorn" format="2">
  <advance width="591.0"/>
  <unicode hex="00DE"/>
  <note>
Thorn
</note>
  <outline>
    <contour>
      <point x="54.0" y="0.0" type="line"/>
      <point x="150.0" y="0.0" type="line"/>
      <point x="167.0" y="137.0" type="line"/>
      <point x="186.0" y="134.0"/>
      <point x="216.0" y="132.0"/>
      <point x="256.0" y="132.0" type="curve" smooth="yes"/>
      <point x="373.0" y="132.0"/>
      <point x="467.0" y="183.0"/>
      <point x="518.0" y="275.0" type="curve" smooth="yes"/>
      <point x="543.0" y="320.0"/>
      <point x="556.0" y="374.0"/>
      <point x="556.0" y="435.0" type="curve" smooth="yes"/>
      <point x="556.0" y="568.0"/>
      <point x="478.0" y="633.0"/>
      <point x="333.0" y="633.0" type="curve" smooth="yes"/>
      <point x="316.0" y="633.0"/>
      <point x="245.0" y="628.0"/>
      <point x="229.0" y="626.0" type="curve"/>
      <point x="245.0" y="747.0" type="line"/>
      <point x="148.0" y="747.0" type="line"/>
    </contour>
    <contour>
      <point x="254.0" y="208.0" type="curve" smooth="yes"/>
      <point x="229.0" y="208.0"/>
      <point x="194.0" y="211.0"/>
      <point x="177.0" y="215.0" type="curve"/>
      <point x="220.0" y="550.0" type="line"/>
      <point x="248.0" y="557.0"/>
      <point x="292.0" y="561.0"/>
      <point x="317.0" y="561.0" type="curve" smooth="yes"/>
      <point x="412.0" y="561.0"/>
      <point x="459.0" y="519.0"/>
      <point x="458.0" y="434.0" type="curve" smooth="yes"/>
      <point x="455.0" y="285.0"/>
      <point x="393.0" y="208.0"/>
    </contour>
  </outline>
</glyph>
<glyph name="germandbls" format="2">
  <advance width="576.0"/>
  <unicode hex="00DF"/>
  <note>
germandbls
</note>
  <outline>
    <contour>
      <point x="332.0" y="-8.0" type="curve" smooth="yes"/>
      <point x="444.0" y="-8.0"/>
      <point x="530.0" y="49.0"/>
      <point x="530.0" y="152.0" type="curve" smooth="yes"/>
      <point x="530.0" y="217.0"/>
      <point x="500.0" y="267.0"/>
      <point x="450.0" y="333.0" type="curve" smooth="yes"/>
      <point x="425.0" y="366.0"/>
      <point x="412.0" y="384.0"/>
      <point x="412.0" y="400.0" type="curve" smooth="yes"/>
      <point x="412.0" y="427.0"/>
      <point x="427.0" y="445.0"/>
      <point x="459.0" y="478.0" type="curve" smooth="yes"/>
      <point x="500.0" y="519.0"/>
      <point x="535.0" y="563.002"/>
      <point x="535.0" y="633.0" type="curve" smooth="yes"/>
      <point x="535.0" y="725.0"/>
      <point x="473.0" y="776.0"/>
      <point x="380.0" y="776.0" type="curve" smooth="yes"/>
      <point x="197.0" y="776.0"/>
      <point x="120.0" y="656.0"/>
      <point x="95.0" y="455.0" type="curve" smooth="yes"/>
      <point x="38.0" y="2.0" type="line"/>
      <point x="132.0" y="2.0" type="line"/>
      <point x="186.0" y="425.0" type="line" smooth="yes"/>
      <point x="204.0" y="572.0"/>
      <point x="238.0" y="707.0"/>
      <point x="353.0" y="707.0" type="curve" smooth="yes"/>
      <point x="406.0" y="707.0"/>
      <point x="436.0" y="675.0"/>
      <point x="436.0" y="630.0" type="curve" smooth="yes"/>
      <point x="436.0" y="579.0"/>
      <point x="414.0" y="540.0"/>
      <point x="371.0" y="495.0" type="curve" smooth="yes"/>
      <point x="336.0" y="458.0"/>
      <point x="320.0" y="432.0"/>
      <point x="320.0" y="389.0" type="curve" smooth="yes"/>
      <point x="320.0" y="350.0"/>
      <point x="355.0" y="304.0"/>
      <point x="386.0" y="257.0" type="curve" smooth="yes"/>
      <point x="408.0" y="224.0"/>
      <point x="429.0" y="180.0"/>
      <point x="429.0" y="147.0" type="curve" smooth="yes"/>
      <point x="429.0" y="85.0"/>
      <point x="396.0" y="66.0"/>
      <point x="322.0" y="66.0" type="curve" smooth="yes"/>
      <point x="283.0" y="66.0"/>
      <point x="242.0" y="87.0"/>
      <point x="222.0" y="106.0" type="curve"/>
      <point x="209.0" y="15.0" type="line"/>
      <point x="232.0" y="4.0"/>
      <point x="291.0" y="-8.0"/>
    </contour>
  </outline>
</glyph>
<glyph name="ae" format="2">
  <advance width="797.0"/>
  <unicode hex="00E6"/>
  <note>
ae
</note>
  <anchor x="362.0" y="0.0" name="bottom"/>
  <anchor x="436.0" y="557.0" name="top"/>
  <outline>
    <contour>
      <point x="181.0" y="-8.0" type="curve" smooth="yes"/>
      <point x="252.0" y="-8.0"/>
      <point x="306.0" y="48.0"/>
      <point x="345.0" y="125.0" type="curve"/>
      <point x="369.0" y="45.0"/>
      <point x="430.0" y="-8.0"/>
      <point x="526.0" y="-8.0" type="curve" smooth="yes"/>
      <point x="593.0" y="-8.0"/>
      <point x="696.0" y="49.0"/>
      <point x="726.0" y="91.0" type="curve"/>
      <point x="699.0" y="145.0" type="line"/>
      <point x="644.0" y="93.0"/>
      <point x="588.0" y="67.0"/>
      <point x="537.0" y="67.0" type="curve" smooth="yes"/>
      <point x="464.0" y="67.0"/>
      <point x="425.0" y="125.0"/>
      <point x="435.0" y="208.0" type="curve"/>
      <point x="584.0" y="216.0"/>
      <point x="763.0" y="298.0"/>
      <point x="763.0" y="442.0" type="curve" smooth="yes"/>
      <point x="763.0" y="499.0"/>
      <point x="719.0" y="564.0"/>
      <point x="626.0" y="564.0" type="curve" smooth="yes"/>
      <point x="577.0" y="564.0"/>
      <point x="532.0" y="552.0"/>
      <point x="491.0" y="527.0" type="curve"/>
      <point x="434.0" y="561.0"/>
      <point x="401.0" y="564.0"/>
      <point x="351.0" y="564.0" type="curve" smooth="yes"/>
      <point x="162.0" y="564.0"/>
      <point x="40.0" y="398.0"/>
      <point x="40.0" y="203.0" type="curve" smooth="yes"/>
      <point x="40.0" y="62.0"/>
      <point x="87.0" y="-8.0"/>
    </contour>
    <contour>
      <point x="203.0" y="66.0" type="curve" smooth="yes"/>
      <point x="148.0" y="66.0"/>
      <point x="138.0" y="139.0"/>
      <point x="138.0" y="215.0" type="curve" smooth="yes"/>
      <point x="138.0" y="347.0"/>
      <point x="206.0" y="495.0"/>
      <point x="336.0" y="495.0" type="curve" smooth="yes"/>
      <point x="365.0" y="495.0"/>
      <point x="395.0" y="487.0"/>
      <point x="425.0" y="470.0" type="curve"/>
      <point x="367.0" y="404.0"/>
      <point x="337.0" y="314.0"/>
      <point x="334.0" y="201.0" type="curve"/>
      <point x="289.0" y="111.0"/>
      <point x="246.0" y="66.0"/>
    </contour>
    <contour>
      <point x="437.0" y="275.0" type="curve"/>
      <point x="444.0" y="338.0"/>
      <point x="474.0" y="412.0"/>
      <point x="523.0" y="458.0" type="curve" smooth="yes"/>
      <point x="547.0" y="481.0"/>
      <point x="574.0" y="492.0"/>
      <point x="605.0" y="492.0" type="curve" smooth="yes"/>
      <point x="644.0" y="492.0"/>
      <point x="667.0" y="475.0"/>
      <point x="667.0" y="434.0" type="curve" smooth="yes"/>
      <point x="667.0" y="348.0"/>
      <point x="533.0" y="278.0"/>
    </contour>
  </outline>
</glyph>
<glyph name="eth" format="2">
  <advance width="577.0"/>
  <unicode hex="00F0"/>
  <note>
eth
</note>
  <outline>
    <contour>
      <point x="242.0" y="-8.0" type="curve" smooth="yes"/>
      <point x="363.0" y="-8.0"/>
      <point x="453.0" y="75.0"/>
      <point x="498.0" y="207.0" type="curve" smooth="yes"/>
      <point x="520.0" y="272.0"/>
      <point x="531.0" y="345.0"/>
      <point x="531.0" y="424.0" type="curve" smooth="yes"/>
      <point x="531.0" y="567.0"/>
      <point x="487.0" y="682.0"/>
      <point x="374.0" y="782.0" type="curve"/>
      <point x="363.0" y="737.0" type="line"/>
      <point x="458.0" y="843.0" type="line"/>
      <point x="410.0" y="887.0" type="line"/>
      <point x="323.0" y="787.0" type="line"/>
      <point x="363.0" y="792.0" type="line"/>
      <point x="315.0" y="828.0"/>
      <point x="233.0" y="858.0"/>
      <point x="192.0" y="870.0" type="curve"/>
      <point x="171.0" y="812.0" type="line"/>
      <point x="208.0" y="803.0"/>
      <point x="278.0" y="776.0"/>
      <point x="317.0" y="735.0" type="curve"/>
      <point x="311.0" y="770.0" type="line"/>
      <point x="212.0" y="667.0" type="line"/>
      <point x="264.0" y="624.0" type="line"/>
      <point x="358.0" y="731.0" type="line"/>
      <point x="323.0" y="731.0" type="line"/>
      <point x="400.0" y="668.0"/>
      <point x="427.0" y="605.0"/>
      <point x="441.0" y="509.0" type="curve"/>
      <point x="418.0" y="546.0"/>
      <point x="367.0" y="564.0"/>
      <point x="316.0" y="564.0" type="curve" smooth="yes"/>
      <point x="151.0" y="564.0"/>
      <point x="43.0" y="397.0"/>
      <point x="43.0" y="212.0" type="curve" smooth="yes"/>
      <point x="43.0" y="93.0"/>
      <point x="119.0" y="-8.0"/>
    </contour>
    <contour>
      <point x="256.0" y="60.0" type="curve" smooth="yes"/>
      <point x="187.0" y="60.0"/>
      <point x="146.0" y="123.0"/>
      <point x="146.0" y="212.0" type="curve" smooth="yes"/>
      <point x="146.0" y="305.0"/>
      <point x="171.0" y="398.0"/>
      <point x="221.0" y="454.0" type="curve" smooth="yes"/>
      <point x="246.0" y="481.0"/>
      <point x="276.0" y="495.0"/>
      <point x="313.0" y="495.0" type="curve" smooth="yes"/>
      <point x="386.0" y="495.0"/>
      <point x="436.0" y="428.0"/>
      <point x="436.0" y="380.0" type="curve" smooth="yes"/>
      <point x="436.0" y="263.0"/>
      <point x="370.0" y="60.0"/>
    </contour>
  </outline>
</glyph>
<glyph name="divide" format="2">
  <advance width="657.875"/>
  <unicode hex="00F7"/>
  <note>
divide
</note>
  <outline>
    <contour>
      <point x="116.7" y="336.75" type="line"/>
      <point x="548.175" y="336.75" type="line"/>
      <point x="558.15" y="421.875" type="line"/>
      <point x="126.325" y="422.2" type="line"/>
    </contour>
    <contour>
      <point x="303.6" y="114.55" type="curve" smooth="yes"/>
      <point x="349.525" y="114.55"/>
      <point x="391.525" y="150.85"/>
      <point x="391.525" y="199.45" type="curve" smooth="yes"/>
      <point x="391.525" y="232.4"/>
      <point x="370.875" y="254.7"/>
      <point x="329.275" y="254.7" type="curve" smooth="yes"/>
      <point x="285.025" y="254.7"/>
      <point x="241.0" y="215.4"/>
      <point x="241.0" y="171.475" type="curve" smooth="yes"/>
      <point x="241.0" y="137.175"/>
      <point x="266.975" y="114.55"/>
    </contour>
    <contour>
      <point x="351.575" y="503.275" type="curve" smooth="yes"/>
      <point x="398.15" y="503.275"/>
      <point x="439.825" y="539.575"/>
      <point x="439.825" y="588.5" type="curve" smooth="yes"/>
      <point x="439.825" y="621.125"/>
      <point x="419.175" y="643.75"/>
      <point x="377.575" y="643.75" type="curve" smooth="yes"/>
      <point x="333.325" y="643.75"/>
      <point x="289.3" y="605.125"/>
      <point x="289.3" y="560.525" type="curve" smooth="yes"/>
      <point x="289.3" y="525.575"/>
      <point x="316.625" y="503.275"/>
    </contour>
  </outline>
</glyph>
<glyph name="oslash" format="2">
  <advance width="554.0"/>
  <unicode hex="00F8"/>
  <note>
oslash
</note>
  <anchor x="314.0" y="557.0" name="top"/>
  <outline>
    <contour>
      <point x="60.0" y="-64.0" type="line"/>
      <point x="123.0" y="25.0" type="line"/>
      <point x="152.0" y="4.0"/>
      <point x="189.0" y="-7.0"/>
      <point x="234.0" y="-7.0" type="curve" smooth="yes"/>
      <point x="339.0" y="-7.0"/>
      <point x="426.0" y="63.0"/>
      <point x="474.0" y="168.0" type="curve" smooth="yes"/>
      <point x="497.0" y="220.0"/>
      <point x="509.0" y="275.0"/>
      <point x="509.0" y="334.0" type="curve" smooth="yes"/>
      <point x="509.0" y="416.0"/>
      <point x="490.0" y="477.0"/>
      <point x="453.0" y="516.0" type="curve"/>
      <point x="521.0" y="612.0" type="line"/>
      <point x="477.0" y="636.0" type="line"/>
      <point x="414.0" y="546.0" type="line"/>
      <point x="388.0" y="559.0"/>
      <point x="358.0" y="565.0"/>
      <point x="323.0" y="565.0" type="curve" smooth="yes"/>
      <point x="219.0" y="565.0"/>
      <point x="129.0" y="495.0"/>
      <point x="81.0" y="391.0" type="curve" smooth="yes"/>
      <point x="56.0" y="338.0"/>
      <point x="44.0" y="283.0"/>
      <point x="44.0" y="225.0" type="curve" smooth="yes"/>
      <point x="44.0" y="156.0"/>
      <point x="58.0" y="101.0"/>
      <point x="87.0" y="61.0" type="curve"/>
      <point x="17.0" y="-41.0" type="line"/>
    </contour>
    <contour>
      <point x="249.0" y="65.0" type="curve" smooth="yes"/>
      <point x="218.0" y="65.0"/>
      <point x="194.0" y="75.0"/>
      <point x="177.0" y="96.0" type="curve"/>
      <point x="393.0" y="437.0" type="line"/>
      <point x="404.0" y="412.0"/>
      <point x="409.0" y="377.0"/>
      <point x="409.0" y="332.0" type="curve" smooth="yes"/>
      <point x="409.0" y="247.0"/>
      <point x="385.0" y="158.0"/>
      <point x="337.0" y="105.0" type="curve" smooth="yes"/>
      <point x="312.0" y="78.0"/>
      <point x="283.0" y="65.0"/>
    </contour>
    <contour>
      <point x="152.0" y="148.0" type="line"/>
      <point x="146.0" y="171.0"/>
      <point x="143.0" y="197.0"/>
      <point x="143.0" y="227.0" type="curve" smooth="yes"/>
      <point x="143.0" y="311.0"/>
      <point x="170.0" y="401.0"/>
      <point x="219.0" y="454.0" type="curve" smooth="yes"/>
      <point x="244.0" y="481.0"/>
      <point x="273.0" y="494.0"/>
      <point x="308.0" y="494.0" type="curve" smooth="yes"/>
      <point x="329.0" y="494.0"/>
      <point x="347.0" y="489.0"/>
      <point x="362.0" y="479.0" type="curve"/>
    </contour>
  </outline>
</glyph>
<glyph name="thorn" format="2">
  <advance width="568.0"/>
  <unicode hex="00FE"/>
  <note>
thorn
</note>
  <outline>
    <contour>
      <point x="6.0" y="-252.0" type="line"/>
      <point x="99.0" y="-252.0" type="line"/>
      <point x="126.0" y="-66.0" type="line"/>
      <point x="136.0" y="0.0" type="line"/>
      <point x="162.0" y="-5.0"/>
      <point x="185.0" y="-8.0"/>
      <point x="206.0" y="-8.0" type="curve" smooth="yes"/>
      <point x="345.0" y="-8.0"/>
      <point x="442.0" y="76.0"/>
      <point x="488.0" y="188.0" type="curve" smooth="yes"/>
      <point x="511.0" y="243.0"/>
      <point x="522.0" y="299.0"/>
      <point x="522.0" y="354.0" type="curve" smooth="yes"/>
      <point x="522.0" y="485.0"/>
      <point x="471.0" y="564.0"/>
      <point x="371.0" y="564.0" type="curve" smooth="yes"/>
      <point x="300.0" y="564.0"/>
      <point x="237.0" y="521.0"/>
      <point x="193.0" y="466.0" type="curve"/>
      <point x="211.0" y="560.0" type="line"/>
      <point x="238.0" y="800.0" type="line"/>
      <point x="147.0" y="800.0" type="line"/>
      <point x="41.0" y="-8.0" type="line"/>
    </contour>
    <contour>
      <point x="221.0" y="62.0" type="curve" smooth="yes"/>
      <point x="194.0" y="62.0"/>
      <point x="169.0" y="66.0"/>
      <point x="146.0" y="74.0" type="curve"/>
      <point x="186.0" y="371.0" type="line"/>
      <point x="226.0" y="432.0"/>
      <point x="291.0" y="490.0"/>
      <point x="354.0" y="490.0" type="curve" smooth="yes"/>
      <point x="410.0" y="490.0"/>
      <point x="424.0" y="419.0"/>
      <point x="424.0" y="342.0" type="curve" smooth="yes"/>
      <point x="424.0" y="258.0"/>
      <point x="393.0" y="164.0"/>
      <point x="333.0" y="106.0" type="curve" smooth="yes"/>
      <point x="302.0" y="77.0"/>
      <point x="265.0" y="62.0"/>
    </contour>
  </outline>
</glyph>
<glyph name="dcaron" format="2">
  <advance width="698.0"/>
  <unicode hex="010F"/>
  <note>
dcaron
</note>
  <anchor x="247.0" y="0.0" name="bottom"/>
  <anchor x="284.0" y="279.0" name="center"/>
  <anchor x="265.0" y="557.0" name="top"/>
  <anchor x="584.0" y="557.0" name="topright"/>
  <outline>
    <contour>
      <point x="649.0" y="490.0" type="line"/>
      <point x="684.0" y="542.0"/>
      <point x="707.0" y="628.0"/>
      <point x="707.0" y="693.0" type="curve" smooth="yes"/>
      <point x="707.0" y="746.0"/>
      <point x="704.0" y="780.0"/>
      <point x="693.0" y="805.0" type="curve"/>
      <point x="606.0" y="783.0" type="line"/>
      <point x="602.0" y="767.0" type="line"/>
      <point x="611.0" y="752.0"/>
      <point x="617.0" y="713.0"/>
      <point x="617.0" y="674.0" type="curve" smooth="yes"/>
      <point x="617.0" y="629.0"/>
      <point x="610.0" y="579.0"/>
      <point x="597.0" y="522.0" type="curve"/>
      <point x="600.0" y="510.0" type="line"/>
    </contour>
    <component base="d"/>
  </outline>
</glyph>
<glyph name="dcroat" format="2">
  <advance width="576.1"/>
  <unicode hex="0111"/>
  <note>
dcroat
</note>
  <anchor x="251.55" y="0.0" name="bottom"/>
  <anchor x="288.55" y="279.0" name="center"/>
  <anchor x="265.0" y="557.0" name="top"/>
  <anchor x="593.1" y="557.0" name="topright"/>
  <outline>
    <contour>
      <point x="307.975" y="616.0" type="line"/>
      <point x="604.65" y="616.0" type="line"/>
      <point x="612.65" y="680.0" type="line"/>
      <point x="315.3" y="680.0" type="line"/>
    </contour>
    <component base="d"/>
  </outline>
</glyph>
<glyph name="Hbar" format="2">
  <advance width="688.0"/>
  <unicode hex="0126"/>
  <note>
Hbar
</note>
  <outline>
    <contour>
      <point x="54.0" y="0.0" type="line"/>
      <point x="150.0" y="0.0" type="line"/>
      <point x="187.0" y="289.0" type="line"/>
      <point x="506.0" y="289.0" type="line"/>
      <point x="469.0" y="0.0" type="line"/>
      <point x="566.0" y="0.0" type="line"/>
      <point x="627.0" y="487.0" type="line"/>
      <point x="733.0" y="487.0" type="line"/>
      <point x="740.0" y="561.0" type="line"/>
      <point x="637.0" y="561.0" type="line"/>
      <point x="660.0" y="747.0" type="line"/>
      <point x="563.0" y="747.0" type="line"/>
      <point x="540.0" y="561.0" type="line"/>
      <point x="221.0" y="561.0" type="line"/>
      <point x="245.0" y="747.0" type="line"/>
      <point x="148.0" y="747.0" type="line"/>
      <point x="125.0" y="561.0" type="line"/>
      <point x="32.0" y="561.0" type="line"/>
      <point x="25.0" y="487.0" type="line"/>
      <point x="115.0" y="487.0" type="line"/>
    </contour>
    <contour>
      <point x="196.0" y="362.0" type="line"/>
      <point x="212.0" y="487.0" type="line"/>
      <point x="531.0" y="487.0" type="line"/>
      <point x="515.0" y="362.0" type="line"/>
    </contour>
  </outline>
</glyph>
<glyph name="hbar" format="2">
  <advance width="594.1"/>
  <unicode hex="0127"/>
  <note>
hbar
</note>
  <anchor x="260.55" y="0.0" name="bottom"/>
  <anchor x="325.55" y="492.0" name="center"/>
  <anchor x="196.2" y="758.0" name="top"/>
  <outline>
    <contour>
      <point x="63.675" y="616.0" type="line"/>
      <point x="356.475" y="616.0" type="line"/>
      <point x="363.475" y="680.0" type="line"/>
      <point x="71.675" y="680.0" type="line"/>
    </contour>
    <component base="h"/>
  </outline>
</glyph>
<glyph name="idotless" format="2">
  <advance width="291.5"/>
  <unicode hex="0131"/>
  <note>
dotlessi
</note>
  <anchor x="109.25" y="0.0" name="bottom"/>
  <anchor x="187.85" y="10.0" name="ogonek"/>
  <anchor x="183.25" y="557.0" name="top"/>
  <outline>
    <contour>
      <point x="57.425" y="0.0" type="line"/>
      <point x="165.425" y="0.0" type="line"/>
      <point x="240.75" y="557.0" type="line"/>
      <point x="132.75" y="557.0" type="line"/>
    </contour>
  </outline>
</glyph>
<glyph name="kgreenlandic" format="2">
  <advance width="508.0"/>
  <unicode hex="0138"/>
  <note>
kgreenlandic
</note>
  <outline>
    <contour>
      <point x="370.0" y="0.0" type="line"/>
      <point x="480.0" y="0.0" type="line"/>
      <point x="303.0" y="292.0" type="line"/>
      <point x="398.0" y="339.0"/>
      <point x="505.0" y="456.0"/>
      <point x="515.0" y="564.0" type="curve"/>
      <point x="424.0" y="564.0" type="line"/>
      <point x="385.0" y="456.0"/>
      <point x="299.0" y="366.0"/>
      <point x="197.0" y="308.0" type="curve"/>
    </contour>
    <contour>
      <point x="41.0" y="0.0" type="line"/>
      <point x="136.0" y="0.0" type="line"/>
      <point x="212.0" y="564.0" type="line"/>
      <point x="117.0" y="564.0" type="line"/>
    </contour>
  </outline>
</glyph>
<glyph name="Lcaron" format="2">
  <advance width="485.8"/>
  <unicode hex="013D"/>
  <note>
Lcaron
</note>
  <anchor x="205.575" y="0.0" name="bottom"/>
  <anchor x="255.575" y="374.325" name="center"/>
  <anchor x="304.575" y="747.975" name="top"/>
  <anchor x="527.15" y="747.975" name="topright"/>
  <outline>
    <contour>
      <point x="442.1" y="490.325" type="line"/>
      <point x="478.4" y="541.35"/>
      <point x="502.375" y="628.975"/>
      <point x="502.375" y="696.575" type="curve" smooth="yes"/>
      <point x="502.375" y="748.275"/>
      <point x="498.4" y="782.275"/>
      <point x="487.4" y="805.325" type="curve"/>
      <point x="396.5" y="783.0" type="line"/>
      <point x="391.525" y="766.35" type="line"/>
      <point x="400.525" y="752.0"/>
      <point x="406.2" y="712.025"/>
      <point x="406.2" y="672.375" type="curve" smooth="yes"/>
      <point x="406.2" y="625.425"/>
      <point x="398.55" y="572.825"/>
      <point x="386.2" y="521.35" type="curve"/>
      <point x="389.2" y="509.025" type="line"/>
    </contour>
    <component base="L"/>
  </outline>
</glyph>
<glyph name="lcaron" format="2">
  <advance width="383.0"/>
  <unicode hex="013E"/>
  <note>
lcaron
</note>
  <anchor x="111.0" y="0.0" name="bottom"/>
  <anchor x="171.0" y="492.0" name="center"/>
  <anchor x="212.0" y="778.0" name="top"/>
  <anchor x="327.0" y="711.0" name="topright"/>
  <outline>
    <contour>
      <point x="384.0" y="490.0" type="line"/>
      <point x="419.0" y="542.0"/>
      <point x="442.0" y="628.0"/>
      <point x="442.0" y="693.0" type="curve" smooth="yes"/>
      <point x="442.0" y="746.0"/>
      <point x="439.0" y="780.0"/>
      <point x="428.0" y="805.0" type="curve"/>
      <point x="341.0" y="783.0" type="line"/>
      <point x="337.0" y="767.0" type="line"/>
      <point x="346.0" y="752.0"/>
      <point x="352.0" y="713.0"/>
      <point x="352.0" y="674.0" type="curve" smooth="yes"/>
      <point x="352.0" y="629.0"/>
      <point x="345.0" y="579.0"/>
      <point x="332.0" y="522.0" type="curve"/>
      <point x="335.0" y="510.0" type="line"/>
    </contour>
    <component base="l"/>
  </outline>
</glyph>
<glyph name="Lslash" format="2">
  <advance width="478.0"/>
  <unicode hex="0141"/>
  <note>
Lslash
</note>
  <outline>
    <contour>
      <point x="54.0" y="0.0" type="line"/>
      <point x="428.0" y="0.0" type="line"/>
      <point x="439.0" y="83.0" type="line"/>
      <point x="161.0" y="81.0" type="line"/>
      <point x="191.0" y="319.0" type="line"/>
      <point x="395.0" y="405.0" type="line"/>
      <point x="378.0" y="467.0" type="line"/>
      <point x="200.0" y="390.0" type="line"/>
      <point x="245.0" y="747.0" type="line"/>
      <point x="148.0" y="747.0" type="line"/>
      <point x="97.0" y="346.0" type="line"/>
      <point x="-25.0" y="293.0" type="line"/>
      <point x="-7.0" y="236.0" type="line"/>
      <point x="88.0" y="276.0" type="line"/>
    </contour>
  </outline>
</glyph>
<glyph name="lslash" format="2">
  <advance width="291.5"/>
  <unicode hex="0142"/>
  <note>
lslash
</note>
  <outline>
    <contour>
      <point x="57.75" y="1.675" type="line"/>
      <point x="165.75" y="1.675" type="line"/>
      <point x="227.1" y="450.8" type="line"/>
      <point x="313.425" y="484.45" type="line"/>
      <point x="313.425" y="561.0" type="line"/>
      <point x="238.425" y="530.0" type="line"/>
      <point x="274.425" y="799.675" type="line"/>
      <point x="166.425" y="799.675" type="line"/>
      <point x="123.1" y="483.15" type="line"/>
      <point x="35.525" y="447.175" type="line"/>
      <point x="35.525" y="375.3" type="line"/>
      <point x="113.125" y="406.275" type="line"/>
    </contour>
  </outline>
</glyph>
<glyph name="Eng" format="2">
  <advance width="740.0"/>
  <unicode hex="014A"/>
  <note>
Eng
</note>
  <outline>
    <contour>
      <point x="342.0" y="-154.0" type="line"/>
      <point x="446.0" y="-137.0"/>
      <point x="520.0" y="-91.0"/>
      <point x="559.0" y="0.0" type="curve"/>
      <point x="655.0" y="747.0" type="line"/>
      <point x="563.0" y="747.0" type="line"/>
      <point x="503.0" y="249.0" type="line"/>
      <point x="494.0" y="127.0" type="line"/>
      <point x="463.0" y="229.0" type="line"/>
      <point x="249.0" y="747.0" type="line"/>
      <point x="148.0" y="747.0" type="line"/>
      <point x="54.0" y="0.0" type="line"/>
      <point x="144.0" y="0.0" type="line"/>
      <point x="206.0" y="493.0" type="line"/>
      <point x="219.0" y="638.0" type="line"/>
      <point x="245.0" y="525.0" type="line"/>
      <point x="462.0" y="12.0" type="line"/>
      <point x="438.0" y="-43.0"/>
      <point x="388.0" y="-91.0"/>
      <point x="325.0" y="-111.0" type="curve"/>
    </contour>
  </outline>
</glyph>
<glyph name="eng" format="2">
  <advance width="593.075"/>
  <unicode hex="014B"/>
  <note>
eng
</note>
  <outline>
    <contour>
      <point x="248.5" y="-253.65" type="curve" smooth="yes"/>
      <point x="374.55" y="-253.65"/>
      <point x="450.05" y="-166.675"/>
      <point x="475.375" y="0.0" type="curve" smooth="yes"/>
      <point x="496.075" y="134.6"/>
      <point x="511.375" y="237.35"/>
      <point x="520.35" y="303.45" type="curve" smooth="yes"/>
      <point x="528.375" y="359.575"/>
      <point x="532.05" y="400.3"/>
      <point x="532.05" y="422.025" type="curve" smooth="yes"/>
      <point x="532.05" y="523.0"/>
      <point x="494.425" y="564.0"/>
      <point x="418.825" y="564.0" type="curve" smooth="yes"/>
      <point x="343.8" y="564.0"/>
      <point x="266.075" y="516.625"/>
      <point x="208.675" y="447.95" type="curve"/>
      <point x="218.7" y="557.0" type="line"/>
      <point x="115.675" y="557.0" type="line"/>
      <point x="40.35" y="0.0" type="line"/>
      <point x="148.35" y="0.0" type="line"/>
      <point x="195.35" y="346.675" type="line"/>
      <point x="233.375" y="398.325"/>
      <point x="321.975" y="469.175"/>
      <point x="371.35" y="469.175" type="curve" smooth="yes"/>
      <point x="407.4" y="469.175"/>
      <point x="420.725" y="456.85"/>
      <point x="420.725" y="411.8" type="curve" smooth="yes"/>
      <point x="419.75" y="341.4"/>
      <point x="395.675" y="181.775"/>
      <point x="370.725" y="26.8" type="curve" smooth="yes"/>
      <point x="349.675" y="-105.425"/>
      <point x="314.925" y="-198.725"/>
      <point x="227.6" y="-198.725" type="curve" smooth="yes"/>
      <point x="219.6" y="-198.725"/>
      <point x="201.275" y="-196.4"/>
      <point x="193.275" y="-192.725" type="curve"/>
      <point x="175.95" y="-235.65" type="line"/>
      <point x="186.95" y="-247.65"/>
      <point x="215.875" y="-253.65"/>
    </contour>
  </outline>
</glyph>
<glyph name="OE" format="2">
  <advance width="1028.0"/>
  <unicode hex="0152"/>
  <note>
OE
</note>
  <outline>
    <contour>
      <point x="292.0" y="-8.0" type="curve" smooth="yes"/>
      <point x="395.0" y="-8.0"/>
      <point x="481.0" y="41.0"/>
      <point x="541.0" y="128.0" type="curve"/>
      <point x="525.0" y="0.0" type="line"/>
      <point x="965.0" y="0.0" type="line"/>
      <point x="972.0" y="81.0" type="line"/>
      <point x="630.0" y="73.0" type="line"/>
      <point x="666.0" y="347.0" type="line"/>
      <point x="882.0" y="339.0" type="line"/>
      <point x="888.0" y="420.0" type="line"/>
      <point x="674.0" y="417.0" type="line"/>
      <point x="707.0" y="674.0" type="line"/>
      <point x="990.0" y="670.0" type="line"/>
      <point x="994.0" y="747.0" type="line"/>
      <point x="619.0" y="747.0" type="line"/>
      <point x="601.0" y="605.0" type="line"/>
      <point x="566.0" y="698.0"/>
      <point x="498.0" y="755.0"/>
      <point x="397.0" y="755.0" type="curve" smooth="yes"/>
      <point x="268.0" y="755.0"/>
      <point x="158.0" y="672.0"/>
      <point x="98.0" y="537.0" type="curve" smooth="yes"/>
      <point x="68.0" y="469.0"/>
      <point x="53.0" y="393.0"/>
      <point x="53.0" y="310.0" type="curve" smooth="yes"/>
      <point x="53.0" y="191.0"/>
      <point x="88.0" y="91.0"/>
      <point x="160.0" y="35.0" type="curve" smooth="yes"/>
      <point x="196.0" y="6.0"/>
      <point x="240.0" y="-8.0"/>
    </contour>
    <contour>
      <point x="308.0" y="66.0" type="curve" smooth="yes"/>
      <point x="205.0" y="66.0"/>
      <point x="157.0" y="144.0"/>
      <point x="153.0" y="316.0" type="curve" smooth="yes"/>
      <point x="149.0" y="487.0"/>
      <point x="235.0" y="678.0"/>
      <point x="382.0" y="678.0" type="curve" smooth="yes"/>
      <point x="485.0" y="678.0"/>
      <point x="534.0" y="603.0"/>
      <point x="537.0" y="431.0" type="curve" smooth="yes"/>
      <point x="539.0" y="256.0"/>
      <point x="457.0" y="66.0"/>
    </contour>
  </outline>
</glyph>
<glyph name="tcaron" format="2">
  <advance width="362.0"/>
  <unicode hex="0165"/>
  <note>
tcaron
</note>
  <anchor x="144.0" y="0.0" name="bottom"/>
  <anchor x="181.0" y="279.0" name="center"/>
  <anchor x="211.0" y="653.0" name="top"/>
  <anchor x="379.0" y="557.0" name="topright"/>
  <outline>
    <contour>
      <point x="369.0" y="608.0" type="line"/>
      <point x="404.0" y="660.0"/>
      <point x="427.0" y="746.0"/>
      <point x="427.0" y="811.0" type="curve" smooth="yes"/>
      <point x="427.0" y="864.0"/>
      <point x="424.0" y="898.0"/>
      <point x="413.0" y="923.0" type="curve"/>
      <point x="326.0" y="901.0" type="line"/>
      <point x="322.0" y="885.0" type="line"/>
      <point x="331.0" y="870.0"/>
      <point x="337.0" y="831.0"/>
      <point x="337.0" y="792.0" type="curve" smooth="yes"/>
      <point x="337.0" y="747.0"/>
      <point x="330.0" y="697.0"/>
      <point x="317.0" y="640.0" type="curve"/>
      <point x="320.0" y="628.0" type="line"/>
    </contour>
    <component base="t"/>
  </outline>
</glyph>
<glyph name="Tbar" format="2">
  <advance width="548.0"/>
  <unicode hex="0166"/>
  <note>
Tbar
</note>
  <outline>
    <contour>
      <point x="186.0" y="0.0" type="line"/>
      <point x="283.0" y="0.0" type="line"/>
      <point x="327.0" y="353.0" type="line"/>
      <point x="460.0" y="353.0" type="line"/>
      <point x="468.0" y="416.0" type="line"/>
      <point x="335.0" y="416.0" type="line"/>
      <point x="368.0" y="676.0" type="line"/>
      <point x="573.0" y="670.0" type="line"/>
      <point x="583.0" y="747.0" type="line"/>
      <point x="74.0" y="747.0" type="line"/>
      <point x="63.0" y="670.0" type="line"/>
      <point x="271.0" y="676.0" type="line"/>
      <point x="239.0" y="416.0" type="line"/>
      <point x="107.0" y="416.0" type="line"/>
      <point x="99.0" y="353.0" type="line"/>
      <point x="230.0" y="353.0" type="line"/>
    </contour>
  </outline>
</glyph>
<glyph name="tbar" format="2">
  <advance width="362.0"/>
  <unicode hex="0167"/>
  <note>
tbar
</note>
  <anchor x="144.0" y="0.0" name="bottom"/>
  <anchor x="181.0" y="279.0" name="center"/>
  <anchor x="211.0" y="653.0" name="top"/>
  <anchor x="379.0" y="557.0" name="topright"/>
  <outline>
    <contour>
      <point x="336.0" y="369.0" type="line"/>
      <point x="45.0" y="369.0" type="line"/>
      <point x="33.0" y="299.0" type="line"/>
      <point x="324.0" y="299.0" type="line"/>
    </contour>
    <component base="t"/>
  </outline>
</glyph>
<glyph name="Schwa" format="2">
  <advance width="634.0"/>
  <unicode hex="018F"/>
  <anchor x="262.0" y="0.0" name="bottom"/>
  <anchor x="360.0" y="747.0" name="top"/>
  <outline>
    <contour>
      <point x="253.0" y="-8.0" type="curve" smooth="yes"/>
      <point x="308.0" y="-8.0"/>
      <point x="357.0" y="7.0"/>
      <point x="401.0" y="37.0" type="curve" smooth="yes"/>
      <point x="490.0" y="97.0"/>
      <point x="548.0" y="198.0"/>
      <point x="580.0" y="306.0" type="curve" smooth="yes"/>
      <point x="604.0" y="393.0"/>
      <point x="609.0" y="471.0"/>
      <point x="596.0" y="540.0" type="curve" smooth="yes"/>
      <point x="569.0" y="676.0"/>
      <point x="474.0" y="755.0"/>
      <point x="338.0" y="755.0" type="curve" smooth="yes"/>
      <point x="266.0" y="755.0"/>
      <point x="237.0" y="746.0"/>
      <point x="155.0" y="722.0" type="curve"/>
      <point x="162.0" y="635.0" type="line"/>
      <point x="196.0" y="656.0"/>
      <point x="242.0" y="677.0"/>
      <point x="319.0" y="677.0" type="curve" smooth="yes"/>
      <point x="491.0" y="677.0"/>
      <point x="533.0" y="501.0"/>
      <point x="486.0" y="324.0" type="curve" smooth="yes"/>
      <point x="451.0" y="188.0"/>
      <point x="372.0" y="68.0"/>
      <point x="256.0" y="68.0" type="curve" smooth="yes"/>
      <point x="166.0" y="68.0"/>
      <point x="111.0" y="160.0"/>
      <point x="141.0" y="309.0" type="curve"/>
      <point x="531.0" y="309.0" type="line"/>
      <point x="542.0" y="387.0" type="line"/>
      <point x="63.0" y="387.0" type="line"/>
      <point x="14.0" y="196.0"/>
      <point x="49.0" y="-8.0"/>
    </contour>
  </outline>
</glyph>
<glyph name="florin" format="2">
  <advance width="517.0"/>
  <unicode hex="0192"/>
  <note>
florin
</note>
  <outline>
    <contour>
      <point x="108.475" y="-174.0" type="line"/>
      <point x="217.175" y="-174.0" type="line"/>
      <point x="301.85" y="476.125" type="line"/>
      <point x="431.025" y="476.125" type="line"/>
      <point x="438.675" y="557.0" type="line"/>
      <point x="312.5" y="557.0" type="line"/>
      <point x="323.15" y="629.975" type="line" smooth="yes"/>
      <point x="334.825" y="711.8"/>
      <point x="362.525" y="737.8"/>
      <point x="421.275" y="737.8" type="curve" smooth="yes"/>
      <point x="458.35" y="737.8"/>
      <point x="474.35" y="729.825"/>
      <point x="490.7" y="721.5" type="curve"/>
      <point x="499.925" y="809.7" type="line"/>
      <point x="484.275" y="814.0"/>
      <point x="450.525" y="818.35"/>
      <point x="422.3" y="818.35" type="curve" smooth="yes"/>
      <point x="313.75" y="818.35"/>
      <point x="234.075" y="742.75"/>
      <point x="212.45" y="601.975" type="curve" smooth="yes"/>
      <point x="205.475" y="557.0" type="line"/>
      <point x="100.675" y="532.625" type="line"/>
      <point x="93.025" y="476.125" type="line"/>
      <point x="194.825" y="476.125" type="line"/>
    </contour>
  </outline>
</glyph>
<glyph name="Ohorn" format="2">
  <advance width="673.0"/>
  <unicode hex="01A0"/>
  <anchor x="379.0" y="747.0" name="top"/>
  <anchor x="300.0" y="0.0" name="bottom"/>
  <anchor x="350.0" y="374.0" name="center"/>
  <anchor x="404.0" y="10.0" name="ogonek"/>
  <anchor x="82.0" y="747.0" name="topleft"/>
  <anchor x="715.0" y="747.0" name="topright"/>
  <outline>
    <contour>
      <point x="463.0" y="668.0" type="line"/>
      <point x="593.0" y="668.0"/>
      <point x="697.0" y="726.0"/>
      <point x="697.0" y="854.0" type="curve" smooth="yes"/>
      <point x="697.0" y="861.0"/>
      <point x="696.0" y="868.0"/>
      <point x="695.0" y="876.0" type="curve"/>
      <point x="615.0" y="876.0" type="line"/>
      <point x="616.0" y="872.0"/>
      <point x="614.0" y="866.0"/>
      <point x="614.0" y="859.0" type="curve" smooth="yes"/>
      <point x="614.0" y="792.0"/>
      <point x="588.0" y="735.0"/>
      <point x="473.0" y="735.0" type="curve"/>
    </contour>
    <component base="O"/>
  </outline>
</glyph>
<glyph name="Ezh" format="2">
  <advance width="513.0"/>
  <unicode hex="01B7"/>
  <anchor x="347.0" y="747.0" name="top"/>
  <outline>
    <contour>
      <point x="122.0" y="-7.0" type="curve" smooth="yes"/>
      <point x="342.0" y="-7.0"/>
      <point x="466.0" y="94.0"/>
      <point x="466.0" y="245.0" type="curve" smooth="yes"/>
      <point x="466.0" y="322.0"/>
      <point x="423.0" y="407.0"/>
      <point x="290.0" y="424.0" type="curve"/>
      <point x="515.0" y="653.0" type="line"/>
      <point x="530.0" y="748.0" type="line"/>
      <point x="97.0" y="747.0" type="line"/>
      <point x="88.0" y="670.0" type="line"/>
      <point x="430.0" y="677.0" type="line"/>
      <point x="329.0" y="571.0" type="line"/>
      <point x="179.0" y="416.0" type="line"/>
      <point x="169.0" y="338.0" type="line"/>
      <point x="225.0" y="369.0" type="line"/>
      <point x="303.0" y="372.0"/>
      <point x="377.0" y="332.0"/>
      <point x="377.0" y="239.0" type="curve" smooth="yes"/>
      <point x="377.0" y="129.0"/>
      <point x="263.0" y="69.0"/>
      <point x="127.0" y="69.0" type="curve" smooth="yes"/>
      <point x="97.0" y="69.0"/>
      <point x="57.0" y="72.0"/>
      <point x="29.0" y="75.0" type="curve"/>
      <point x="21.0" y="-1.0" type="line"/>
      <point x="56.0" y="-4.0"/>
      <point x="86.0" y="-7.0"/>
    </contour>
  </outline>
</glyph>
<glyph name="jdotless" format="2">
  <advance width="283.0"/>
  <unicode hex="0237"/>
  <note>
uni0237
</note>
  <anchor x="69.0" y="-273.0" name="bottom"/>
  <anchor x="179.0" y="557.0" name="top"/>
  <outline>
    <contour>
      <point x="-47.0" y="-251.0" type="curve" smooth="yes"/>
      <point x="69.0" y="-251.0"/>
      <point x="136.0" y="-137.0"/>
      <point x="155.0" y="2.0" type="curve" smooth="yes"/>
      <point x="230.0" y="557.0" type="line"/>
      <point x="135.0" y="557.0" type="line"/>
      <point x="64.0" y="34.0" type="line" smooth="yes"/>
      <point x="49.0" y="-79.0"/>
      <point x="27.0" y="-185.0"/>
      <point x="-61.0" y="-185.0" type="curve" smooth="yes"/>
      <point x="-68.0" y="-185.0"/>
      <point x="-82.0" y="-182.0"/>
      <point x="-87.0" y="-178.0" type="curve"/>
      <point x="-112.0" y="-232.0" type="line"/>
      <point x="-94.0" y="-245.0"/>
      <point x="-72.0" y="-251.0"/>
    </contour>
  </outline>
</glyph>
<glyph name="ezh" format="2">
  <advance width="451.0"/>
  <unicode hex="0292"/>
  <anchor x="179.0" y="0.0" name="bottom"/>
  <anchor x="216.0" y="279.0" name="center"/>
  <anchor x="258.0" y="557.0" name="top"/>
  <outline>
    <contour>
      <point x="95.0" y="-147.0" type="curve" smooth="yes"/>
      <point x="273.0" y="-147.0"/>
      <point x="401.0" y="-52.0"/>
      <point x="404.0" y="96.0" type="curve" smooth="yes"/>
      <point x="406.0" y="172.0"/>
      <point x="344.0" y="251.0"/>
      <point x="239.0" y="251.0" type="curve"/>
      <point x="450.0" y="521.0" type="line"/>
      <point x="430.0" y="557.0" type="line"/>
      <point x="76.0" y="557.0" type="line"/>
      <point x="63.0" y="480.0" type="line"/>
      <point x="328.0" y="480.0" type="line"/>
      <point x="269.0" y="427.0" type="line"/>
      <point x="116.0" y="230.0" type="line"/>
      <point x="156.0" y="180.0" type="line"/>
      <point x="239.0" y="180.0"/>
      <point x="295.0" y="163.0"/>
      <point x="295.0" y="90.0" type="curve"/>
      <point x="295.0" y="-13.0"/>
      <point x="206.0" y="-76.0"/>
      <point x="88.0" y="-76.0" type="curve" smooth="yes"/>
      <point x="55.0" y="-76.0"/>
      <point x="33.0" y="-73.0"/>
      <point x="5.0" y="-68.0" type="curve"/>
      <point x="-5.0" y="-143.0" type="line"/>
      <point x="28.0" y="-144.0"/>
      <point x="60.0" y="-147.0"/>
    </contour>
  </outline>
</glyph>
<glyph name="commaturnedmod" format="2">
  <unicode hex="02BB"/>
  <anchor x="38.0" y="557.0" name="_top"/>
  <anchor x="66.0" y="780.0" name="top"/>
  <outline>
    <contour>
      <point x="65.0" y="895.0" type="line"/>
      <point x="-1.0" y="849.0"/>
      <point x="-10.0" y="798.0"/>
      <point x="-10.0" y="755.0" type="curve" smooth="yes"/>
      <point x="-10.0" y="712.0"/>
      <point x="8.0" y="673.0"/>
      <point x="46.0" y="643.0" type="curve"/>
      <point x="111.0" y="685.0" type="line"/>
      <point x="115.0" y="719.0" type="line"/>
      <point x="94.0" y="723.0"/>
      <point x="77.0" y="755.0"/>
      <point x="77.0" y="786.0" type="curve" smooth="yes"/>
      <point x="77.0" y="808.0"/>
      <point x="82.0" y="831.0"/>
      <point x="107.0" y="851.0" type="curve"/>
      <point x="109.0" y="865.0" type="line"/>
    </contour>
  </outline>
</glyph>
<glyph name="apostrophemod" format="2">
  <unicode hex="02BC"/>
  <anchor x="38.0" y="557.0" name="_top"/>
  <anchor x="66.0" y="780.0" name="top"/>
  <outline>
    <contour>
      <point x="40.0" y="643.0" type="line"/>
      <point x="106.0" y="689.0"/>
      <point x="115.0" y="740.0"/>
      <point x="115.0" y="783.0" type="curve" smooth="yes"/>
      <point x="115.0" y="826.0"/>
      <point x="97.0" y="865.0"/>
      <point x="59.0" y="895.0" type="curve"/>
      <point x="-6.0" y="853.0" type="line"/>
      <point x="-10.0" y="819.0" type="line"/>
      <point x="11.0" y="815.0"/>
      <point x="28.0" y="783.0"/>
      <point x="28.0" y="752.0" type="curve" smooth="yes"/>
      <point x="28.0" y="730.0"/>
      <point x="23.0" y="707.0"/>
      <point x="-2.0" y="687.0" type="curve"/>
      <point x="-4.0" y="673.0" type="line"/>
    </contour>
  </outline>
</glyph>
<glyph name="ringhalfright" format="2">
  <unicode hex="02BE"/>
  <anchor x="38.0" y="557.0" name="_top"/>
  <anchor x="66.0" y="780.0" name="top"/>
  <outline>
    <contour>
      <point x="0.0" y="648.0" type="line"/>
      <point x="97.0" y="648.0"/>
      <point x="158.0" y="702.0"/>
      <point x="157.0" y="785.0" type="curve" smooth="yes"/>
      <point x="156.0" y="878.0"/>
      <point x="77.0" y="915.0"/>
      <point x="0.0" y="915.0" type="curve"/>
      <point x="0.0" y="854.0" type="line"/>
      <point x="50.0" y="854.0"/>
      <point x="81.0" y="831.0"/>
      <point x="81.0" y="785.0" type="curve" smooth="yes"/>
      <point x="81.0" y="727.0"/>
      <point x="60.0" y="710.0"/>
      <point x="0.0" y="710.0" type="curve"/>
    </contour>
  </outline>
</glyph>
<glyph name="ringhalfleft" format="2">
  <unicode hex="02BF"/>
  <anchor x="38.0" y="557.0" name="_top"/>
  <anchor x="66.0" y="780.0" name="top"/>
  <outline>
    <contour>
      <point x="0.0" y="648.0" type="curve"/>
      <point x="0.0" y="710.0" type="line"/>
      <point x="-60.0" y="710.0"/>
      <point x="-81.0" y="727.0"/>
      <point x="-81.0" y="785.0" type="curve" smooth="yes"/>
      <point x="-81.0" y="831.0"/>
      <point x="-50.0" y="854.0"/>
      <point x="0.0" y="854.0" type="curve"/>
      <point x="0.0" y="915.0" type="line"/>
      <point x="-77.0" y="915.0"/>
      <point x="-156.0" y="878.0"/>
      <point x="-157.0" y="785.0" type="curve" smooth="yes"/>
      <point x="-158.0" y="702.0"/>
      <point x="-97.0" y="648.0"/>
    </contour>
  </outline>
</glyph>
<glyph name="circumflex" format="2">
  <advance width="388.65"/>
  <unicode hex="02C6"/>
  <note>
circumflex
</note>
  <outline>
    <contour>
      <point x="78.4" y="601.1" type="line"/>
      <point x="229.45" y="726.3" type="line"/>
      <point x="330.175" y="604.45" type="line"/>
      <point x="380.725" y="638.125" type="line"/>
      <point x="286.1" y="820.45" type="line"/>
      <point x="199.1" y="820.45" type="line"/>
      <point x="35.85" y="638.125" type="line"/>
    </contour>
  </outline>
</glyph>
<glyph name="caron" format="2">
  <advance width="388.0"/>
  <unicode hex="02C7"/>
  <note>
caron
</note>
  <outline>
    <contour>
      <point x="158.0" y="627.0" type="line"/>
      <point x="244.0" y="627.0" type="line"/>
      <point x="397.0" y="778.0" type="line"/>
      <point x="357.0" y="820.0" type="line"/>
      <point x="205.0" y="701.0" type="line"/>
      <point x="82.0" y="820.0" type="line"/>
      <point x="39.0" y="777.0" type="line"/>
    </contour>
  </outline>
</glyph>
<glyph name="secondtonechinese" format="2">
  <unicode hex="02CA"/>
  <anchor x="38.0" y="557.0" name="_top"/>
  <anchor x="66.0" y="780.0" name="top"/>
  <outline>
    <contour>
      <point x="-3.15" y="625.175" type="line"/>
      <point x="33.15" y="640.15"/>
      <point x="161.8" y="753.275"/>
      <point x="187.425" y="802.725" type="curve"/>
      <point x="101.325" y="874.9" type="line"/>
      <point x="53.675" y="802.675"/>
      <point x="-8.325" y="734.725"/>
      <point x="-64.0" y="676.65" type="curve"/>
    </contour>
  </outline>
</glyph>
<glyph name="verticallinelowmod" format="2">
  <unicode hex="02CC"/>
  <outline>
    <contour>
      <point x="-31.3" y="-286.175" type="line"/>
      <point x="29.975" y="-286.175" type="line"/>
      <point x="52.625" y="95.0" type="line"/>
      <point x="-52.625" y="95.0" type="line"/>
    </contour>
  </outline>
</glyph>
<glyph name="breve" format="2">
  <advance width="350.65"/>
  <unicode hex="02D8"/>
  <note>
breve
</note>
  <outline>
    <contour>
      <point x="170.975" y="635.0" type="curve" smooth="yes"/>
      <point x="266.225" y="635.0"/>
      <point x="338.25" y="716.025"/>
      <point x="338.25" y="808.275" type="curve"/>
      <point x="270.025" y="808.275" type="line"/>
      <point x="256.7" y="753.175"/>
      <point x="234.975" y="712.525"/>
      <point x="174.95" y="712.525" type="curve" smooth="yes"/>
      <point x="120.375" y="712.525"/>
      <point x="99.625" y="744.175"/>
      <point x="94.225" y="808.275" type="curve"/>
      <point x="24.0" y="808.275" type="line"/>
      <point x="7.05" y="716.325"/>
      <point x="71.425" y="635.0"/>
    </contour>
  </outline>
</glyph>
<glyph name="dotaccent" format="2">
  <advance width="189.325"/>
  <unicode hex="02D9"/>
  <note>
dotaccent
</note>
  <outline>
    <contour>
      <point x="84.675" y="665.4" type="curve" smooth="yes"/>
      <point x="128.225" y="665.4"/>
      <point x="164.875" y="701.725"/>
      <point x="164.875" y="743.625" type="curve" smooth="yes"/>
      <point x="164.875" y="776.575"/>
      <point x="137.6" y="801.525"/>
      <point x="100.65" y="801.525" type="curve" smooth="yes"/>
      <point x="60.075" y="801.525"/>
      <point x="24.45" y="765.225"/>
      <point x="24.45" y="724.975" type="curve" smooth="yes"/>
      <point x="24.45" y="692.025"/>
      <point x="53.075" y="665.4"/>
    </contour>
  </outline>
</glyph>
<glyph name="ring" format="2">
  <advance width="353.325"/>
  <unicode hex="02DA"/>
  <note>
ring
</note>
  <outline>
    <contour>
      <point x="184.7" y="612.0" type="curve" smooth="yes"/>
      <point x="244.35" y="612.0"/>
      <point x="298.65" y="631.65"/>
      <point x="329.625" y="672.625" type="curve" smooth="yes"/>
      <point x="344.95" y="692.275"/>
      <point x="352.275" y="716.925"/>
      <point x="352.275" y="746.575" type="curve" smooth="yes"/>
      <point x="352.275" y="826.25"/>
      <point x="299.3" y="873.3"/>
      <point x="215.0" y="873.3" type="curve" smooth="yes"/>
      <point x="159.0" y="873.3"/>
      <point x="101.7" y="853.275"/>
      <point x="67.725" y="812.3" type="curve" smooth="yes"/>
      <point x="50.4" y="791.65"/>
      <point x="42.075" y="766.675"/>
      <point x="42.075" y="736.7" type="curve" smooth="yes"/>
      <point x="42.075" y="657.675"/>
      <point x="94.725" y="612.0"/>
    </contour>
    <contour>
      <point x="188.0" y="666.925" type="curve" smooth="yes"/>
      <point x="148.3" y="666.925"/>
      <point x="114.3" y="697.275"/>
      <point x="114.3" y="736.3" type="curve" smooth="yes"/>
      <point x="114.3" y="794.675"/>
      <point x="155.65" y="818.025"/>
      <point x="206.675" y="818.025" type="curve" smooth="yes"/>
      <point x="249.05" y="818.025"/>
      <point x="278.375" y="790.025"/>
      <point x="278.375" y="751.0" type="curve" smooth="yes"/>
      <point x="278.375" y="688.875"/>
      <point x="245.325" y="666.925"/>
    </contour>
  </outline>
</glyph>
<glyph name="ogonek" format="2">
  <advance width="238.0"/>
  <unicode hex="02DB"/>
  <note>
ogonek
</note>
  <outline>
    <contour>
      <point x="99.0" y="-212.0" type="curve" smooth="yes"/>
      <point x="150.0" y="-212.0"/>
      <point x="191.0" y="-191.0"/>
      <point x="219.0" y="-167.0" type="curve"/>
      <point x="194.0" y="-118.0" type="line"/>
      <point x="169.0" y="-135.0"/>
      <point x="151.0" y="-140.0"/>
      <point x="130.0" y="-140.0" type="curve" smooth="yes"/>
      <point x="115.0" y="-140.0"/>
      <point x="100.0" y="-132.0"/>
      <point x="100.0" y="-108.0" type="curve" smooth="yes"/>
      <point x="100.0" y="-76.0"/>
      <point x="141.0" y="-43.0"/>
      <point x="201.0" y="0.0" type="curve"/>
      <point x="171.0" y="29.0" type="line"/>
      <point x="125.0" y="0.0" type="line" smooth="yes"/>
      <point x="73.0" y="-30.0"/>
      <point x="5.0" y="-75.0"/>
      <point x="5.0" y="-137.0" type="curve" smooth="yes"/>
      <point x="5.0" y="-177.0"/>
      <point x="42.0" y="-212.0"/>
    </contour>
  </outline>
</glyph>
<glyph name="tilde" format="2">
  <advance width="383.0"/>
  <unicode hex="02DC"/>
  <note>
tilde
</note>
  <anchor x="228.0" y="557.0" name="_top"/>
  <anchor x="255.0" y="766.0" name="top"/>
  <outline>
    <contour>
      <point x="316.0" y="635.0" type="curve" smooth="yes"/>
      <point x="366.0" y="635.0"/>
      <point x="405.0" y="675.0"/>
      <point x="422.0" y="725.0" type="curve"/>
      <point x="384.0" y="768.0" type="line"/>
      <point x="364.0" y="728.0"/>
      <point x="345.0" y="714.0"/>
      <point x="320.0" y="714.0" type="curve" smooth="yes"/>
      <point x="305.0" y="714.0"/>
      <point x="292.0" y="720.0"/>
      <point x="274.0" y="739.0" type="curve" smooth="yes"/>
      <point x="249.0" y="766.0"/>
      <point x="216.0" y="783.0"/>
      <point x="184.0" y="783.0" type="curve" smooth="yes"/>
      <point x="140.0" y="783.0"/>
      <point x="95.0" y="742.0"/>
      <point x="75.0" y="700.0" type="curve"/>
      <point x="114.0" y="659.0" type="line"/>
      <point x="134.0" y="694.0"/>
      <point x="151.0" y="704.0"/>
      <point x="174.0" y="704.0" type="curve" smooth="yes"/>
      <point x="193.0" y="704.0"/>
      <point x="207.0" y="694.0"/>
      <point x="225.0" y="674.0" type="curve" smooth="yes"/>
      <point x="246.0" y="650.0"/>
      <point x="280.0" y="635.0"/>
    </contour>
  </outline>
</glyph>
<glyph name="hungarumlaut" format="2">
  <advance width="448.65"/>
  <unicode hex="02DD"/>
  <note>
hungarumlaut
</note>
  <outline>
    <contour>
      <point x="302.4" y="614.825" type="line"/>
      <point x="345.75" y="635.175"/>
      <point x="433.575" y="743.475"/>
      <point x="452.625" y="789.425" type="curve"/>
      <point x="376.425" y="849.375" type="line"/>
      <point x="253.8" y="643.1" type="line"/>
    </contour>
    <contour>
      <point x="90.5" y="614.825" type="line"/>
      <point x="134.825" y="639.85"/>
      <point x="214.725" y="741.15"/>
      <point x="234.75" y="790.075" type="curve"/>
      <point x="158.875" y="849.375" type="line"/>
      <point x="41.275" y="643.1" type="line"/>
    </contour>
  </outline>
</glyph>
<glyph name="gravecomb" format="2">
  <unicode hex="0300"/>
  <note>
grave
</note>
  <anchor x="37.0" y="557.0" name="_top"/>
  <anchor x="67.0" y="788.0" name="top"/>
  <outline>
    <contour>
      <point x="97.0" y="653.0" type="curve"/>
      <point x="138.0" y="687.0" type="line"/>
      <point x="-3.0" y="883.0" type="line"/>
      <point x="-77.0" y="816.0" type="line"/>
      <point x="-53.0" y="774.0"/>
      <point x="50.0" y="672.0"/>
    </contour>
  </outline>
</glyph>
<glyph name="acutecomb" format="2">
  <unicode hex="0301"/>
  <note>
acute
</note>
  <anchor x="67.0" y="557.0" name="_top"/>
  <anchor x="15.0" y="727.0" name="top"/>
  <outline>
    <contour>
      <point x="35.0" y="653.0" type="line"/>
      <point x="82.0" y="670.0"/>
      <point x="197.0" y="772.0"/>
      <point x="220.0" y="816.0" type="curve"/>
      <point x="146.0" y="883.0" type="line"/>
      <point x="-5.0" y="687.0" type="line"/>
    </contour>
  </outline>
</glyph>
<glyph name="circumflexcomb" format="2">
  <unicode hex="0302"/>
  <note>
circumflex
</note>
  <anchor x="37.0" y="557.0" name="_top"/>
  <anchor x="67.0" y="788.0" name="top"/>
  <outline>
    <contour>
      <point x="-87.025" y="634.025" type="line"/>
      <point x="64.025" y="759.225" type="line"/>
      <point x="164.75" y="637.375" type="line"/>
      <point x="215.3" y="671.05" type="line"/>
      <point x="120.675" y="853.375" type="line"/>
      <point x="33.675" y="853.375" type="line"/>
      <point x="-129.575" y="671.05" type="line"/>
    </contour>
  </outline>
</glyph>
<glyph name="tildecomb" format="2">
  <unicode hex="0303"/>
  <note>
tilde
</note>
  <anchor x="37.0" y="557.0" name="_top"/>
  <anchor x="58.0" y="746.0" name="top"/>
  <outline>
    <contour>
      <point x="125.0" y="635.0" type="curve" smooth="yes"/>
      <point x="175.0" y="635.0"/>
      <point x="214.0" y="675.0"/>
      <point x="231.0" y="725.0" type="curve"/>
      <point x="193.0" y="768.0" type="line"/>
      <point x="173.0" y="728.0"/>
      <point x="154.0" y="714.0"/>
      <point x="129.0" y="714.0" type="curve" smooth="yes"/>
      <point x="114.0" y="714.0"/>
      <point x="101.0" y="720.0"/>
      <point x="83.0" y="739.0" type="curve" smooth="yes"/>
      <point x="58.0" y="766.0"/>
      <point x="25.0" y="783.0"/>
      <point x="-7.0" y="783.0" type="curve" smooth="yes"/>
      <point x="-51.0" y="783.0"/>
      <point x="-96.0" y="742.0"/>
      <point x="-116.0" y="700.0" type="curve"/>
      <point x="-77.0" y="659.0" type="line"/>
      <point x="-57.0" y="694.0"/>
      <point x="-40.0" y="704.0"/>
      <point x="-17.0" y="704.0" type="curve" smooth="yes"/>
      <point x="2.0" y="704.0"/>
      <point x="16.0" y="694.0"/>
      <point x="34.0" y="674.0" type="curve" smooth="yes"/>
      <point x="55.0" y="650.0"/>
      <point x="89.0" y="635.0"/>
    </contour>
  </outline>
</glyph>
<glyph name="macroncomb" format="2">
  <unicode hex="0304"/>
  <note>
macron
</note>
  <anchor x="37.0" y="557.0" name="_top"/>
  <anchor x="58.0" y="711.575" name="top"/>
  <outline>
    <contour>
      <point x="-73.6" y="655.05" type="line"/>
      <point x="179.925" y="655.05" type="line"/>
      <point x="188.25" y="732.6" type="line"/>
      <point x="-65.95" y="732.6" type="line"/>
    </contour>
  </outline>
</glyph>
<glyph name="brevecomb" format="2">
  <unicode hex="0306"/>
  <note>
breve
</note>
  <anchor x="37.0" y="557.0" name="_top"/>
  <anchor x="67.0" y="788.0" name="top"/>
  <outline>
    <contour>
      <point x="46.0" y="631.0" type="curve" smooth="yes"/>
      <point x="139.0" y="631.0"/>
      <point x="211.0" y="712.0"/>
      <point x="211.0" y="802.0" type="curve"/>
      <point x="147.0" y="802.0" type="line"/>
      <point x="131.0" y="743.0"/>
      <point x="110.0" y="703.0"/>
      <point x="49.0" y="703.0" type="curve" smooth="yes"/>
      <point x="-1.0" y="703.0"/>
      <point x="-24.0" y="735.0"/>
      <point x="-34.0" y="802.0" type="curve"/>
      <point x="-100.0" y="802.0" type="line"/>
      <point x="-100.0" y="699.0"/>
      <point x="-49.0" y="631.0"/>
    </contour>
  </outline>
</glyph>
<glyph name="dotaccentcomb" format="2">
  <unicode hex="0307"/>
  <note>
dotaccent
</note>
  <anchor x="37.0" y="557.0" name="_top"/>
  <anchor x="63.0" y="769.0" name="top"/>
  <outline>
    <contour>
      <point x="52.0" y="668.0" type="curve" smooth="yes"/>
      <point x="91.0" y="668.0"/>
      <point x="127.0" y="704.0"/>
      <point x="127.0" y="742.0" type="curve" smooth="yes"/>
      <point x="127.0" y="773.0"/>
      <point x="102.0" y="796.0"/>
      <point x="67.0" y="796.0" type="curve" smooth="yes"/>
      <point x="30.0" y="796.0"/>
      <point x="-5.0" y="761.0"/>
      <point x="-5.0" y="724.0" type="curve" smooth="yes"/>
      <point x="-5.0" y="693.0"/>
      <point x="23.0" y="668.0"/>
    </contour>
  </outline>
</glyph>
<glyph name="dieresiscomb" format="2">
  <unicode hex="0308"/>
  <note>
dieresis
</note>
  <anchor x="37.0" y="557.0" name="_top"/>
  <anchor x="62.0" y="750.0" name="top"/>
  <outline>
    <contour>
      <point x="-59.0" y="661.0" type="curve" smooth="yes"/>
      <point x="-11.0" y="661.0"/>
      <point x="16.0" y="694.0"/>
      <point x="16.0" y="732.0" type="curve" smooth="yes"/>
      <point x="16.0" y="763.0"/>
      <point x="-9.0" y="789.0"/>
      <point x="-44.0" y="789.0" type="curve" smooth="yes"/>
      <point x="-81.0" y="789.0"/>
      <point x="-115.0" y="763.0"/>
      <point x="-115.0" y="717.0" type="curve" smooth="yes"/>
      <point x="-115.0" y="686.0"/>
      <point x="-88.0" y="661.0"/>
    </contour>
    <contour>
      <point x="157.0" y="661.0" type="curve" smooth="yes"/>
      <point x="205.0" y="661.0"/>
      <point x="232.0" y="694.0"/>
      <point x="232.0" y="732.0" type="curve" smooth="yes"/>
      <point x="232.0" y="763.0"/>
      <point x="207.0" y="789.0"/>
      <point x="172.0" y="789.0" type="curve" smooth="yes"/>
      <point x="135.0" y="789.0"/>
      <point x="101.0" y="763.0"/>
      <point x="101.0" y="717.0" type="curve" smooth="yes"/>
      <point x="101.0" y="686.0"/>
      <point x="128.0" y="661.0"/>
    </contour>
  </outline>
</glyph>
